G04 #@! TF.GenerationSoftware,KiCad,Pcbnew,(5.1.0)-1*
G04 #@! TF.CreationDate,2019-05-23T22:12:47+09:00*
G04 #@! TF.ProjectId,ble5,626c6535-2e6b-4696-9361-645f70636258,v1.4*
G04 #@! TF.SameCoordinates,Original*
G04 #@! TF.FileFunction,Copper,L2,Bot*
G04 #@! TF.FilePolarity,Positive*
%FSLAX46Y46*%
G04 Gerber Fmt 4.6, Leading zero omitted, Abs format (unit mm)*
G04 Created by KiCad (PCBNEW (5.1.0)-1) date 2019-05-23 22:12:47*
%MOMM*%
%LPD*%
G04 APERTURE LIST*
%ADD10O,3.048000X1.524000*%
%ADD11O,1.524000X1.800000*%
%ADD12C,0.800000*%
%ADD13C,0.300000*%
%ADD14C,0.254000*%
G04 APERTURE END LIST*
D10*
X114300000Y-44450000D03*
X114300000Y-46990000D03*
X114300000Y-49530000D03*
X114300000Y-52070000D03*
X114300000Y-54610000D03*
X114300000Y-57150000D03*
X114300000Y-59690000D03*
X114300000Y-62230000D03*
X137160000Y-44450000D03*
X137160000Y-46990000D03*
X137160000Y-49530000D03*
X137160000Y-52070000D03*
X137160000Y-54610000D03*
X137160000Y-57150000D03*
X137160000Y-59690000D03*
X137160000Y-62230000D03*
D11*
X128700000Y-62500000D03*
X126700000Y-62500000D03*
X124700000Y-62500000D03*
X122700000Y-62500000D03*
D12*
X118302400Y-49890600D03*
X117950000Y-58670400D03*
X131400000Y-57800000D03*
X133700000Y-55500000D03*
X134300000Y-47900000D03*
X125800000Y-47200000D03*
X134300000Y-53200000D03*
X122800000Y-46600000D03*
X124709400Y-55779000D03*
X133337900Y-45640900D03*
X120694000Y-57575000D03*
X122022400Y-47419200D03*
X127860400Y-59501800D03*
X117468100Y-45297800D03*
X129450000Y-51297400D03*
X126027100Y-51482000D03*
X124851400Y-51499400D03*
X123734600Y-51475300D03*
X122646100Y-51448400D03*
X122046200Y-49916200D03*
D13*
X118302400Y-49890600D02*
X118302400Y-45071000D01*
X118302400Y-45071000D02*
X117681400Y-44450000D01*
X117681400Y-44450000D02*
X114300000Y-44450000D01*
X122700000Y-62500000D02*
X121587700Y-62500000D01*
X121587700Y-62500000D02*
X121587700Y-62308100D01*
X121587700Y-62308100D02*
X117950000Y-58670400D01*
X131400000Y-57800000D02*
X133700000Y-55500000D01*
X133600000Y-47200000D02*
X134300000Y-47900000D01*
X125800000Y-47200000D02*
X133600000Y-47200000D01*
X124709400Y-55779000D02*
X121279400Y-52349000D01*
X121279400Y-52349000D02*
X121279400Y-49607100D01*
X121279400Y-49607100D02*
X125245600Y-45640900D01*
X125245600Y-45640900D02*
X133337900Y-45640900D01*
X135285700Y-44450000D02*
X134094800Y-45640900D01*
X134094800Y-45640900D02*
X133337900Y-45640900D01*
X137160000Y-44450000D02*
X135285700Y-44450000D01*
X124700000Y-62500000D02*
X124700000Y-61249700D01*
X124700000Y-61249700D02*
X124368700Y-61249700D01*
X124368700Y-61249700D02*
X120694000Y-57575000D01*
X116174300Y-54610000D02*
X120810000Y-54610000D01*
X120810000Y-54610000D02*
X128700000Y-62500000D01*
X114300000Y-54610000D02*
X116174300Y-54610000D01*
X122022400Y-47419200D02*
X120713000Y-48728600D01*
X120713000Y-48728600D02*
X120713000Y-52843800D01*
X120713000Y-52843800D02*
X127371000Y-59501800D01*
X127371000Y-59501800D02*
X127860400Y-59501800D01*
X126700000Y-62500000D02*
X121024700Y-56824700D01*
X121024700Y-56824700D02*
X116499600Y-56824700D01*
X116499600Y-56824700D02*
X116174300Y-57150000D01*
X114300000Y-57150000D02*
X116174300Y-57150000D01*
X116174300Y-52070000D02*
X116174300Y-46591600D01*
X116174300Y-46591600D02*
X117468100Y-45297800D01*
X114300000Y-52070000D02*
X116174300Y-52070000D01*
X135285700Y-49530000D02*
X133518300Y-51297400D01*
X133518300Y-51297400D02*
X129450000Y-51297400D01*
X137160000Y-49530000D02*
X135285700Y-49530000D01*
X126027100Y-51482000D02*
X126615100Y-52070000D01*
X126615100Y-52070000D02*
X137160000Y-52070000D01*
X135285700Y-54610000D02*
X127962000Y-54610000D01*
X127962000Y-54610000D02*
X124851400Y-51499400D01*
X137160000Y-54610000D02*
X135285700Y-54610000D01*
X129409300Y-57150000D02*
X123734600Y-51475300D01*
X130959300Y-58700000D02*
X129409300Y-57150000D01*
X133700000Y-58700000D02*
X130959300Y-58700000D01*
X135250000Y-57150000D02*
X133700000Y-58700000D01*
X135285700Y-57150000D02*
X135250000Y-57150000D01*
X135285700Y-57150000D02*
X137160000Y-57150000D01*
X122646100Y-51448400D02*
X130887700Y-59690000D01*
X130887700Y-59690000D02*
X137160000Y-59690000D01*
X122046200Y-49916200D02*
X121856500Y-50105900D01*
X121856500Y-50105900D02*
X121856500Y-51759300D01*
X121856500Y-51759300D02*
X132327200Y-62230000D01*
X132327200Y-62230000D02*
X137160000Y-62230000D01*
D14*
G36*
X119659000Y-57676939D02*
G01*
X119698774Y-57876898D01*
X119776795Y-58065256D01*
X119890063Y-58234774D01*
X120034226Y-58378937D01*
X120203744Y-58492205D01*
X120392102Y-58570226D01*
X120592061Y-58610000D01*
X120618843Y-58610000D01*
X123026192Y-61017349D01*
X122827000Y-61130280D01*
X122827000Y-62373000D01*
X122847000Y-62373000D01*
X122847000Y-62627000D01*
X122827000Y-62627000D01*
X122827000Y-62647000D01*
X122573000Y-62647000D01*
X122573000Y-62627000D01*
X121461251Y-62627000D01*
X121317986Y-62845752D01*
X121385071Y-63111378D01*
X121469978Y-63290000D01*
X115972490Y-63290000D01*
X116054608Y-63222608D01*
X116229183Y-63009887D01*
X116358904Y-62767195D01*
X116438786Y-62503860D01*
X116465759Y-62230000D01*
X116458299Y-62154248D01*
X121317986Y-62154248D01*
X121461251Y-62373000D01*
X122573000Y-62373000D01*
X122573000Y-61130280D01*
X122356930Y-61007780D01*
X122104932Y-61097476D01*
X121869670Y-61237865D01*
X121666317Y-61421454D01*
X121502688Y-61641188D01*
X121385071Y-61888622D01*
X121317986Y-62154248D01*
X116458299Y-62154248D01*
X116438786Y-61956140D01*
X116358904Y-61692805D01*
X116229183Y-61450113D01*
X116054608Y-61237392D01*
X115841887Y-61062817D01*
X115649529Y-60960000D01*
X115841887Y-60857183D01*
X116054608Y-60682608D01*
X116229183Y-60469887D01*
X116358904Y-60227195D01*
X116438786Y-59963860D01*
X116465759Y-59690000D01*
X116438786Y-59416140D01*
X116358904Y-59152805D01*
X116229183Y-58910113D01*
X116054608Y-58697392D01*
X115841887Y-58522817D01*
X115649529Y-58420000D01*
X115841887Y-58317183D01*
X116054608Y-58142608D01*
X116226053Y-57933701D01*
X116328187Y-57923641D01*
X116476160Y-57878754D01*
X116612533Y-57805862D01*
X116732064Y-57707764D01*
X116756648Y-57677809D01*
X116824757Y-57609700D01*
X119659000Y-57609700D01*
X119659000Y-57676939D01*
X119659000Y-57676939D01*
G37*
X119659000Y-57676939D02*
X119698774Y-57876898D01*
X119776795Y-58065256D01*
X119890063Y-58234774D01*
X120034226Y-58378937D01*
X120203744Y-58492205D01*
X120392102Y-58570226D01*
X120592061Y-58610000D01*
X120618843Y-58610000D01*
X123026192Y-61017349D01*
X122827000Y-61130280D01*
X122827000Y-62373000D01*
X122847000Y-62373000D01*
X122847000Y-62627000D01*
X122827000Y-62627000D01*
X122827000Y-62647000D01*
X122573000Y-62647000D01*
X122573000Y-62627000D01*
X121461251Y-62627000D01*
X121317986Y-62845752D01*
X121385071Y-63111378D01*
X121469978Y-63290000D01*
X115972490Y-63290000D01*
X116054608Y-63222608D01*
X116229183Y-63009887D01*
X116358904Y-62767195D01*
X116438786Y-62503860D01*
X116465759Y-62230000D01*
X116458299Y-62154248D01*
X121317986Y-62154248D01*
X121461251Y-62373000D01*
X122573000Y-62373000D01*
X122573000Y-61130280D01*
X122356930Y-61007780D01*
X122104932Y-61097476D01*
X121869670Y-61237865D01*
X121666317Y-61421454D01*
X121502688Y-61641188D01*
X121385071Y-61888622D01*
X121317986Y-62154248D01*
X116458299Y-62154248D01*
X116438786Y-61956140D01*
X116358904Y-61692805D01*
X116229183Y-61450113D01*
X116054608Y-61237392D01*
X115841887Y-61062817D01*
X115649529Y-60960000D01*
X115841887Y-60857183D01*
X116054608Y-60682608D01*
X116229183Y-60469887D01*
X116358904Y-60227195D01*
X116438786Y-59963860D01*
X116465759Y-59690000D01*
X116438786Y-59416140D01*
X116358904Y-59152805D01*
X116229183Y-58910113D01*
X116054608Y-58697392D01*
X115841887Y-58522817D01*
X115649529Y-58420000D01*
X115841887Y-58317183D01*
X116054608Y-58142608D01*
X116226053Y-57933701D01*
X116328187Y-57923641D01*
X116476160Y-57878754D01*
X116612533Y-57805862D01*
X116732064Y-57707764D01*
X116756648Y-57677809D01*
X116824757Y-57609700D01*
X119659000Y-57609700D01*
X119659000Y-57676939D01*
G36*
X135405392Y-55602608D02*
G01*
X135618113Y-55777183D01*
X135810471Y-55880000D01*
X135618113Y-55982817D01*
X135405392Y-56157392D01*
X135237085Y-56362475D01*
X135211446Y-56365000D01*
X135211439Y-56365000D01*
X135096113Y-56376359D01*
X134948140Y-56421246D01*
X134811767Y-56494138D01*
X134776793Y-56522841D01*
X134722187Y-56567655D01*
X134722184Y-56567658D01*
X134692236Y-56592236D01*
X134667658Y-56622184D01*
X133374843Y-57915000D01*
X131284458Y-57915000D01*
X129937112Y-56567655D01*
X128764457Y-55395000D01*
X135235013Y-55395000D01*
X135405392Y-55602608D01*
X135405392Y-55602608D01*
G37*
X135405392Y-55602608D02*
X135618113Y-55777183D01*
X135810471Y-55880000D01*
X135618113Y-55982817D01*
X135405392Y-56157392D01*
X135237085Y-56362475D01*
X135211446Y-56365000D01*
X135211439Y-56365000D01*
X135096113Y-56376359D01*
X134948140Y-56421246D01*
X134811767Y-56494138D01*
X134776793Y-56522841D01*
X134722187Y-56567655D01*
X134722184Y-56567658D01*
X134692236Y-56592236D01*
X134667658Y-56622184D01*
X133374843Y-57915000D01*
X131284458Y-57915000D01*
X129937112Y-56567655D01*
X128764457Y-55395000D01*
X135235013Y-55395000D01*
X135405392Y-55602608D01*
G36*
X122902673Y-46873670D02*
G01*
X122826337Y-46759426D01*
X122682174Y-46615263D01*
X122512656Y-46501995D01*
X122324298Y-46423974D01*
X122124339Y-46384200D01*
X121920461Y-46384200D01*
X121720502Y-46423974D01*
X121532144Y-46501995D01*
X121362626Y-46615263D01*
X121218463Y-46759426D01*
X121105195Y-46928944D01*
X121027174Y-47117302D01*
X120987400Y-47317261D01*
X120987400Y-47344042D01*
X120185190Y-48146253D01*
X120155236Y-48170836D01*
X120057138Y-48290368D01*
X119984246Y-48426741D01*
X119939359Y-48574714D01*
X119928000Y-48690040D01*
X119928000Y-48690047D01*
X119924203Y-48728600D01*
X119928000Y-48767153D01*
X119928001Y-52805237D01*
X119924203Y-52843800D01*
X119939359Y-52997686D01*
X119984246Y-53145659D01*
X119984247Y-53145660D01*
X120057139Y-53282033D01*
X120082632Y-53313096D01*
X120130655Y-53371612D01*
X120130659Y-53371616D01*
X120155237Y-53401564D01*
X120185185Y-53426142D01*
X120584043Y-53825000D01*
X116224987Y-53825000D01*
X116054608Y-53617392D01*
X115841887Y-53442817D01*
X115649529Y-53340000D01*
X115841887Y-53237183D01*
X116054608Y-53062608D01*
X116226053Y-52853701D01*
X116328187Y-52843641D01*
X116476160Y-52798754D01*
X116612533Y-52725862D01*
X116732064Y-52627764D01*
X116830162Y-52508233D01*
X116903054Y-52371860D01*
X116947941Y-52223887D01*
X116963098Y-52070000D01*
X116959300Y-52031439D01*
X116959300Y-46916757D01*
X117543257Y-46332800D01*
X117570039Y-46332800D01*
X117769998Y-46293026D01*
X117958356Y-46215005D01*
X118090065Y-46127000D01*
X123649343Y-46127000D01*
X122902673Y-46873670D01*
X122902673Y-46873670D01*
G37*
X122902673Y-46873670D02*
X122826337Y-46759426D01*
X122682174Y-46615263D01*
X122512656Y-46501995D01*
X122324298Y-46423974D01*
X122124339Y-46384200D01*
X121920461Y-46384200D01*
X121720502Y-46423974D01*
X121532144Y-46501995D01*
X121362626Y-46615263D01*
X121218463Y-46759426D01*
X121105195Y-46928944D01*
X121027174Y-47117302D01*
X120987400Y-47317261D01*
X120987400Y-47344042D01*
X120185190Y-48146253D01*
X120155236Y-48170836D01*
X120057138Y-48290368D01*
X119984246Y-48426741D01*
X119939359Y-48574714D01*
X119928000Y-48690040D01*
X119928000Y-48690047D01*
X119924203Y-48728600D01*
X119928000Y-48767153D01*
X119928001Y-52805237D01*
X119924203Y-52843800D01*
X119939359Y-52997686D01*
X119984246Y-53145659D01*
X119984247Y-53145660D01*
X120057139Y-53282033D01*
X120082632Y-53313096D01*
X120130655Y-53371612D01*
X120130659Y-53371616D01*
X120155237Y-53401564D01*
X120185185Y-53426142D01*
X120584043Y-53825000D01*
X116224987Y-53825000D01*
X116054608Y-53617392D01*
X115841887Y-53442817D01*
X115649529Y-53340000D01*
X115841887Y-53237183D01*
X116054608Y-53062608D01*
X116226053Y-52853701D01*
X116328187Y-52843641D01*
X116476160Y-52798754D01*
X116612533Y-52725862D01*
X116732064Y-52627764D01*
X116830162Y-52508233D01*
X116903054Y-52371860D01*
X116947941Y-52223887D01*
X116963098Y-52070000D01*
X116959300Y-52031439D01*
X116959300Y-46916757D01*
X117543257Y-46332800D01*
X117570039Y-46332800D01*
X117769998Y-46293026D01*
X117958356Y-46215005D01*
X118090065Y-46127000D01*
X123649343Y-46127000D01*
X122902673Y-46873670D01*
G36*
X135405392Y-53062608D02*
G01*
X135618113Y-53237183D01*
X135810471Y-53340000D01*
X135618113Y-53442817D01*
X135405392Y-53617392D01*
X135235013Y-53825000D01*
X128287157Y-53825000D01*
X127317157Y-52855000D01*
X135235013Y-52855000D01*
X135405392Y-53062608D01*
X135405392Y-53062608D01*
G37*
X135405392Y-53062608D02*
X135618113Y-53237183D01*
X135810471Y-53340000D01*
X135618113Y-53442817D01*
X135405392Y-53617392D01*
X135235013Y-53825000D01*
X128287157Y-53825000D01*
X127317157Y-52855000D01*
X135235013Y-52855000D01*
X135405392Y-53062608D01*
G36*
X135230817Y-46210113D02*
G01*
X135101096Y-46452805D01*
X135021214Y-46716140D01*
X134994241Y-46990000D01*
X135021214Y-47263860D01*
X135101096Y-47527195D01*
X135230817Y-47769887D01*
X135405392Y-47982608D01*
X135618113Y-48157183D01*
X135810471Y-48260000D01*
X135618113Y-48362817D01*
X135405392Y-48537392D01*
X135233947Y-48746299D01*
X135131813Y-48756359D01*
X134983840Y-48801246D01*
X134847467Y-48874138D01*
X134790398Y-48920974D01*
X134757887Y-48947655D01*
X134757884Y-48947658D01*
X134727936Y-48972236D01*
X134703358Y-49002184D01*
X133193143Y-50512400D01*
X130128711Y-50512400D01*
X130109774Y-50493463D01*
X129940256Y-50380195D01*
X129751898Y-50302174D01*
X129551939Y-50262400D01*
X129348061Y-50262400D01*
X129148102Y-50302174D01*
X128959744Y-50380195D01*
X128790226Y-50493463D01*
X128646063Y-50637626D01*
X128532795Y-50807144D01*
X128454774Y-50995502D01*
X128415000Y-51195461D01*
X128415000Y-51285000D01*
X127043191Y-51285000D01*
X127022326Y-51180102D01*
X126944305Y-50991744D01*
X126831037Y-50822226D01*
X126686874Y-50678063D01*
X126517356Y-50564795D01*
X126328998Y-50486774D01*
X126129039Y-50447000D01*
X125925161Y-50447000D01*
X125725202Y-50486774D01*
X125536844Y-50564795D01*
X125426229Y-50638705D01*
X125341656Y-50582195D01*
X125153298Y-50504174D01*
X124953339Y-50464400D01*
X124749461Y-50464400D01*
X124549502Y-50504174D01*
X124361144Y-50582195D01*
X124311034Y-50615677D01*
X124224856Y-50558095D01*
X124036498Y-50480074D01*
X123836539Y-50440300D01*
X123632661Y-50440300D01*
X123432702Y-50480074D01*
X123244344Y-50558095D01*
X123210479Y-50580723D01*
X123136356Y-50531195D01*
X122947998Y-50453174D01*
X122934044Y-50450398D01*
X122963405Y-50406456D01*
X123041426Y-50218098D01*
X123081200Y-50018139D01*
X123081200Y-49814261D01*
X123041426Y-49614302D01*
X122963405Y-49425944D01*
X122850137Y-49256426D01*
X122795184Y-49201473D01*
X125570757Y-46425900D01*
X132659189Y-46425900D01*
X132678126Y-46444837D01*
X132847644Y-46558105D01*
X133036002Y-46636126D01*
X133235961Y-46675900D01*
X133439839Y-46675900D01*
X133639798Y-46636126D01*
X133828156Y-46558105D01*
X133997674Y-46444837D01*
X134016611Y-46425900D01*
X134056247Y-46425900D01*
X134094800Y-46429697D01*
X134133353Y-46425900D01*
X134133361Y-46425900D01*
X134248687Y-46414541D01*
X134396660Y-46369654D01*
X134533033Y-46296762D01*
X134652564Y-46198664D01*
X134677147Y-46168710D01*
X134718857Y-46127000D01*
X135299026Y-46127000D01*
X135230817Y-46210113D01*
X135230817Y-46210113D01*
G37*
X135230817Y-46210113D02*
X135101096Y-46452805D01*
X135021214Y-46716140D01*
X134994241Y-46990000D01*
X135021214Y-47263860D01*
X135101096Y-47527195D01*
X135230817Y-47769887D01*
X135405392Y-47982608D01*
X135618113Y-48157183D01*
X135810471Y-48260000D01*
X135618113Y-48362817D01*
X135405392Y-48537392D01*
X135233947Y-48746299D01*
X135131813Y-48756359D01*
X134983840Y-48801246D01*
X134847467Y-48874138D01*
X134790398Y-48920974D01*
X134757887Y-48947655D01*
X134757884Y-48947658D01*
X134727936Y-48972236D01*
X134703358Y-49002184D01*
X133193143Y-50512400D01*
X130128711Y-50512400D01*
X130109774Y-50493463D01*
X129940256Y-50380195D01*
X129751898Y-50302174D01*
X129551939Y-50262400D01*
X129348061Y-50262400D01*
X129148102Y-50302174D01*
X128959744Y-50380195D01*
X128790226Y-50493463D01*
X128646063Y-50637626D01*
X128532795Y-50807144D01*
X128454774Y-50995502D01*
X128415000Y-51195461D01*
X128415000Y-51285000D01*
X127043191Y-51285000D01*
X127022326Y-51180102D01*
X126944305Y-50991744D01*
X126831037Y-50822226D01*
X126686874Y-50678063D01*
X126517356Y-50564795D01*
X126328998Y-50486774D01*
X126129039Y-50447000D01*
X125925161Y-50447000D01*
X125725202Y-50486774D01*
X125536844Y-50564795D01*
X125426229Y-50638705D01*
X125341656Y-50582195D01*
X125153298Y-50504174D01*
X124953339Y-50464400D01*
X124749461Y-50464400D01*
X124549502Y-50504174D01*
X124361144Y-50582195D01*
X124311034Y-50615677D01*
X124224856Y-50558095D01*
X124036498Y-50480074D01*
X123836539Y-50440300D01*
X123632661Y-50440300D01*
X123432702Y-50480074D01*
X123244344Y-50558095D01*
X123210479Y-50580723D01*
X123136356Y-50531195D01*
X122947998Y-50453174D01*
X122934044Y-50450398D01*
X122963405Y-50406456D01*
X123041426Y-50218098D01*
X123081200Y-50018139D01*
X123081200Y-49814261D01*
X123041426Y-49614302D01*
X122963405Y-49425944D01*
X122850137Y-49256426D01*
X122795184Y-49201473D01*
X125570757Y-46425900D01*
X132659189Y-46425900D01*
X132678126Y-46444837D01*
X132847644Y-46558105D01*
X133036002Y-46636126D01*
X133235961Y-46675900D01*
X133439839Y-46675900D01*
X133639798Y-46636126D01*
X133828156Y-46558105D01*
X133997674Y-46444837D01*
X134016611Y-46425900D01*
X134056247Y-46425900D01*
X134094800Y-46429697D01*
X134133353Y-46425900D01*
X134133361Y-46425900D01*
X134248687Y-46414541D01*
X134396660Y-46369654D01*
X134533033Y-46296762D01*
X134652564Y-46198664D01*
X134677147Y-46168710D01*
X134718857Y-46127000D01*
X135299026Y-46127000D01*
X135230817Y-46210113D01*
M02*
