G04 #@! TF.GenerationSoftware,KiCad,Pcbnew,(5.1.0)-1*
G04 #@! TF.CreationDate,2019-05-23T22:12:47+09:00*
G04 #@! TF.ProjectId,ble5,626c6535-2e6b-4696-9361-645f70636258,v1.4*
G04 #@! TF.SameCoordinates,Original*
G04 #@! TF.FileFunction,Legend,Top*
G04 #@! TF.FilePolarity,Positive*
%FSLAX46Y46*%
G04 Gerber Fmt 4.6, Leading zero omitted, Abs format (unit mm)*
G04 Created by KiCad (PCBNEW (5.1.0)-1) date 2019-05-23 22:12:47*
%MOMM*%
%LPD*%
G04 APERTURE LIST*
%ADD10C,0.150000*%
%ADD11C,0.200000*%
%ADD12C,0.120000*%
%ADD13C,0.180000*%
%ADD14C,0.066040*%
%ADD15C,0.127000*%
%ADD16C,0.152400*%
%ADD17C,0.100000*%
G04 APERTURE END LIST*
D10*
X130871428Y-61071428D02*
X130671428Y-60785714D01*
X130528571Y-61071428D02*
X130528571Y-60471428D01*
X130757142Y-60471428D01*
X130814285Y-60500000D01*
X130842857Y-60528571D01*
X130871428Y-60585714D01*
X130871428Y-60671428D01*
X130842857Y-60728571D01*
X130814285Y-60757142D01*
X130757142Y-60785714D01*
X130528571Y-60785714D01*
X131100000Y-61042857D02*
X131185714Y-61071428D01*
X131328571Y-61071428D01*
X131385714Y-61042857D01*
X131414285Y-61014285D01*
X131442857Y-60957142D01*
X131442857Y-60900000D01*
X131414285Y-60842857D01*
X131385714Y-60814285D01*
X131328571Y-60785714D01*
X131214285Y-60757142D01*
X131157142Y-60728571D01*
X131128571Y-60700000D01*
X131100000Y-60642857D01*
X131100000Y-60585714D01*
X131128571Y-60528571D01*
X131157142Y-60500000D01*
X131214285Y-60471428D01*
X131357142Y-60471428D01*
X131442857Y-60500000D01*
X131614285Y-60471428D02*
X131957142Y-60471428D01*
X131785714Y-61071428D02*
X131785714Y-60471428D01*
X119185714Y-60757142D02*
X119271428Y-60785714D01*
X119300000Y-60814285D01*
X119328571Y-60871428D01*
X119328571Y-60957142D01*
X119300000Y-61014285D01*
X119271428Y-61042857D01*
X119214285Y-61071428D01*
X118985714Y-61071428D01*
X118985714Y-60471428D01*
X119185714Y-60471428D01*
X119242857Y-60500000D01*
X119271428Y-60528571D01*
X119300000Y-60585714D01*
X119300000Y-60642857D01*
X119271428Y-60700000D01*
X119242857Y-60728571D01*
X119185714Y-60757142D01*
X118985714Y-60757142D01*
X119700000Y-60471428D02*
X119814285Y-60471428D01*
X119871428Y-60500000D01*
X119928571Y-60557142D01*
X119957142Y-60671428D01*
X119957142Y-60871428D01*
X119928571Y-60985714D01*
X119871428Y-61042857D01*
X119814285Y-61071428D01*
X119700000Y-61071428D01*
X119642857Y-61042857D01*
X119585714Y-60985714D01*
X119557142Y-60871428D01*
X119557142Y-60671428D01*
X119585714Y-60557142D01*
X119642857Y-60500000D01*
X119700000Y-60471428D01*
X120328571Y-60471428D02*
X120442857Y-60471428D01*
X120500000Y-60500000D01*
X120557142Y-60557142D01*
X120585714Y-60671428D01*
X120585714Y-60871428D01*
X120557142Y-60985714D01*
X120500000Y-61042857D01*
X120442857Y-61071428D01*
X120328571Y-61071428D01*
X120271428Y-61042857D01*
X120214285Y-60985714D01*
X120185714Y-60871428D01*
X120185714Y-60671428D01*
X120214285Y-60557142D01*
X120271428Y-60500000D01*
X120328571Y-60471428D01*
X120757142Y-60471428D02*
X121100000Y-60471428D01*
X120928571Y-61071428D02*
X120928571Y-60471428D01*
D11*
X135338095Y-43561904D02*
X135338095Y-44057142D01*
X135033333Y-43790476D01*
X135033333Y-43904761D01*
X134995238Y-43980952D01*
X134957142Y-44019047D01*
X134880952Y-44057142D01*
X134690476Y-44057142D01*
X134614285Y-44019047D01*
X134576190Y-43980952D01*
X134538095Y-43904761D01*
X134538095Y-43676190D01*
X134576190Y-43600000D01*
X134614285Y-43561904D01*
X134614285Y-44400000D02*
X134576190Y-44438095D01*
X134538095Y-44400000D01*
X134576190Y-44361904D01*
X134614285Y-44400000D01*
X134538095Y-44400000D01*
X135338095Y-44704761D02*
X135338095Y-45200000D01*
X135033333Y-44933333D01*
X135033333Y-45047619D01*
X134995238Y-45123809D01*
X134957142Y-45161904D01*
X134880952Y-45200000D01*
X134690476Y-45200000D01*
X134614285Y-45161904D01*
X134576190Y-45123809D01*
X134538095Y-45047619D01*
X134538095Y-44819047D01*
X134576190Y-44742857D01*
X134614285Y-44704761D01*
X134538095Y-46461904D02*
X134919047Y-46195238D01*
X134538095Y-46004761D02*
X135338095Y-46004761D01*
X135338095Y-46309523D01*
X135300000Y-46385714D01*
X135261904Y-46423809D01*
X135185714Y-46461904D01*
X135071428Y-46461904D01*
X134995238Y-46423809D01*
X134957142Y-46385714D01*
X134919047Y-46309523D01*
X134919047Y-46004761D01*
X134576190Y-46766666D02*
X134538095Y-46880952D01*
X134538095Y-47071428D01*
X134576190Y-47147619D01*
X134614285Y-47185714D01*
X134690476Y-47223809D01*
X134766666Y-47223809D01*
X134842857Y-47185714D01*
X134880952Y-47147619D01*
X134919047Y-47071428D01*
X134957142Y-46919047D01*
X134995238Y-46842857D01*
X135033333Y-46804761D01*
X135109523Y-46766666D01*
X135185714Y-46766666D01*
X135261904Y-46804761D01*
X135300000Y-46842857D01*
X135338095Y-46919047D01*
X135338095Y-47109523D01*
X135300000Y-47223809D01*
X135338095Y-47452380D02*
X135338095Y-47909523D01*
X134538095Y-47680952D02*
X135338095Y-47680952D01*
D12*
X135042857Y-48685714D02*
X135014285Y-48771428D01*
X134985714Y-48800000D01*
X134928571Y-48828571D01*
X134842857Y-48828571D01*
X134785714Y-48800000D01*
X134757142Y-48771428D01*
X134728571Y-48714285D01*
X134728571Y-48485714D01*
X135328571Y-48485714D01*
X135328571Y-48685714D01*
X135300000Y-48742857D01*
X135271428Y-48771428D01*
X135214285Y-48800000D01*
X135157142Y-48800000D01*
X135100000Y-48771428D01*
X135071428Y-48742857D01*
X135042857Y-48685714D01*
X135042857Y-48485714D01*
X135328571Y-49200000D02*
X135328571Y-49314285D01*
X135300000Y-49371428D01*
X135242857Y-49428571D01*
X135128571Y-49457142D01*
X134928571Y-49457142D01*
X134814285Y-49428571D01*
X134757142Y-49371428D01*
X134728571Y-49314285D01*
X134728571Y-49200000D01*
X134757142Y-49142857D01*
X134814285Y-49085714D01*
X134928571Y-49057142D01*
X135128571Y-49057142D01*
X135242857Y-49085714D01*
X135300000Y-49142857D01*
X135328571Y-49200000D01*
X135328571Y-49828571D02*
X135328571Y-49942857D01*
X135300000Y-50000000D01*
X135242857Y-50057142D01*
X135128571Y-50085714D01*
X134928571Y-50085714D01*
X134814285Y-50057142D01*
X134757142Y-50000000D01*
X134728571Y-49942857D01*
X134728571Y-49828571D01*
X134757142Y-49771428D01*
X134814285Y-49714285D01*
X134928571Y-49685714D01*
X135128571Y-49685714D01*
X135242857Y-49714285D01*
X135300000Y-49771428D01*
X135328571Y-49828571D01*
X135328571Y-50257142D02*
X135328571Y-50600000D01*
X134728571Y-50428571D02*
X135328571Y-50428571D01*
D11*
X134538095Y-51300000D02*
X135338095Y-51300000D01*
X135338095Y-51833333D02*
X135338095Y-51985714D01*
X135300000Y-52061904D01*
X135223809Y-52138095D01*
X135071428Y-52176190D01*
X134804761Y-52176190D01*
X134652380Y-52138095D01*
X134576190Y-52061904D01*
X134538095Y-51985714D01*
X134538095Y-51833333D01*
X134576190Y-51757142D01*
X134652380Y-51680952D01*
X134804761Y-51642857D01*
X135071428Y-51642857D01*
X135223809Y-51680952D01*
X135300000Y-51757142D01*
X135338095Y-51833333D01*
X135338095Y-52442857D02*
X135338095Y-52976190D01*
X134538095Y-52633333D01*
X134538095Y-53800000D02*
X135338095Y-53800000D01*
X135338095Y-54333333D02*
X135338095Y-54485714D01*
X135300000Y-54561904D01*
X135223809Y-54638095D01*
X135071428Y-54676190D01*
X134804761Y-54676190D01*
X134652380Y-54638095D01*
X134576190Y-54561904D01*
X134538095Y-54485714D01*
X134538095Y-54333333D01*
X134576190Y-54257142D01*
X134652380Y-54180952D01*
X134804761Y-54142857D01*
X135071428Y-54142857D01*
X135223809Y-54180952D01*
X135300000Y-54257142D01*
X135338095Y-54333333D01*
X135338095Y-55361904D02*
X135338095Y-55209523D01*
X135300000Y-55133333D01*
X135261904Y-55095238D01*
X135147619Y-55019047D01*
X134995238Y-54980952D01*
X134690476Y-54980952D01*
X134614285Y-55019047D01*
X134576190Y-55057142D01*
X134538095Y-55133333D01*
X134538095Y-55285714D01*
X134576190Y-55361904D01*
X134614285Y-55400000D01*
X134690476Y-55438095D01*
X134880952Y-55438095D01*
X134957142Y-55400000D01*
X134995238Y-55361904D01*
X135033333Y-55285714D01*
X135033333Y-55133333D01*
X134995238Y-55057142D01*
X134957142Y-55019047D01*
X134880952Y-54980952D01*
X134538095Y-56400000D02*
X135338095Y-56400000D01*
X135338095Y-56933333D02*
X135338095Y-57085714D01*
X135300000Y-57161904D01*
X135223809Y-57238095D01*
X135071428Y-57276190D01*
X134804761Y-57276190D01*
X134652380Y-57238095D01*
X134576190Y-57161904D01*
X134538095Y-57085714D01*
X134538095Y-56933333D01*
X134576190Y-56857142D01*
X134652380Y-56780952D01*
X134804761Y-56742857D01*
X135071428Y-56742857D01*
X135223809Y-56780952D01*
X135300000Y-56857142D01*
X135338095Y-56933333D01*
X135338095Y-58000000D02*
X135338095Y-57619047D01*
X134957142Y-57580952D01*
X134995238Y-57619047D01*
X135033333Y-57695238D01*
X135033333Y-57885714D01*
X134995238Y-57961904D01*
X134957142Y-58000000D01*
X134880952Y-58038095D01*
X134690476Y-58038095D01*
X134614285Y-58000000D01*
X134576190Y-57961904D01*
X134538095Y-57885714D01*
X134538095Y-57695238D01*
X134576190Y-57619047D01*
X134614285Y-57580952D01*
X134538095Y-58900000D02*
X135338095Y-58900000D01*
X135338095Y-59433333D02*
X135338095Y-59585714D01*
X135300000Y-59661904D01*
X135223809Y-59738095D01*
X135071428Y-59776190D01*
X134804761Y-59776190D01*
X134652380Y-59738095D01*
X134576190Y-59661904D01*
X134538095Y-59585714D01*
X134538095Y-59433333D01*
X134576190Y-59357142D01*
X134652380Y-59280952D01*
X134804761Y-59242857D01*
X135071428Y-59242857D01*
X135223809Y-59280952D01*
X135300000Y-59357142D01*
X135338095Y-59433333D01*
X135071428Y-60461904D02*
X134538095Y-60461904D01*
X135376190Y-60271428D02*
X134804761Y-60080952D01*
X134804761Y-60576190D01*
X134538095Y-61400000D02*
X135338095Y-61400000D01*
X135338095Y-61933333D02*
X135338095Y-62085714D01*
X135300000Y-62161904D01*
X135223809Y-62238095D01*
X135071428Y-62276190D01*
X134804761Y-62276190D01*
X134652380Y-62238095D01*
X134576190Y-62161904D01*
X134538095Y-62085714D01*
X134538095Y-61933333D01*
X134576190Y-61857142D01*
X134652380Y-61780952D01*
X134804761Y-61742857D01*
X135071428Y-61742857D01*
X135223809Y-61780952D01*
X135300000Y-61857142D01*
X135338095Y-61933333D01*
X135338095Y-62542857D02*
X135338095Y-63038095D01*
X135033333Y-62771428D01*
X135033333Y-62885714D01*
X134995238Y-62961904D01*
X134957142Y-63000000D01*
X134880952Y-63038095D01*
X134690476Y-63038095D01*
X134614285Y-63000000D01*
X134576190Y-62961904D01*
X134538095Y-62885714D01*
X134538095Y-62657142D01*
X134576190Y-62580952D01*
X134614285Y-62542857D01*
X116861904Y-62738095D02*
X116480952Y-63004761D01*
X116861904Y-63195238D02*
X116061904Y-63195238D01*
X116061904Y-62890476D01*
X116100000Y-62814285D01*
X116138095Y-62776190D01*
X116214285Y-62738095D01*
X116328571Y-62738095D01*
X116404761Y-62776190D01*
X116442857Y-62814285D01*
X116480952Y-62890476D01*
X116480952Y-63195238D01*
X116061904Y-62509523D02*
X116061904Y-62052380D01*
X116861904Y-62280952D02*
X116061904Y-62280952D01*
X116823809Y-61823809D02*
X116861904Y-61709523D01*
X116861904Y-61519047D01*
X116823809Y-61442857D01*
X116785714Y-61404761D01*
X116709523Y-61366666D01*
X116633333Y-61366666D01*
X116557142Y-61404761D01*
X116519047Y-61442857D01*
X116480952Y-61519047D01*
X116442857Y-61671428D01*
X116404761Y-61747619D01*
X116366666Y-61785714D01*
X116290476Y-61823809D01*
X116214285Y-61823809D01*
X116138095Y-61785714D01*
X116100000Y-61747619D01*
X116061904Y-61671428D01*
X116061904Y-61480952D01*
X116100000Y-61366666D01*
X116785714Y-60138095D02*
X116823809Y-60176190D01*
X116861904Y-60290476D01*
X116861904Y-60366666D01*
X116823809Y-60480952D01*
X116747619Y-60557142D01*
X116671428Y-60595238D01*
X116519047Y-60633333D01*
X116404761Y-60633333D01*
X116252380Y-60595238D01*
X116176190Y-60557142D01*
X116100000Y-60480952D01*
X116061904Y-60366666D01*
X116061904Y-60290476D01*
X116100000Y-60176190D01*
X116138095Y-60138095D01*
X116061904Y-59909523D02*
X116061904Y-59452380D01*
X116861904Y-59680952D02*
X116061904Y-59680952D01*
X116823809Y-59223809D02*
X116861904Y-59109523D01*
X116861904Y-58919047D01*
X116823809Y-58842857D01*
X116785714Y-58804761D01*
X116709523Y-58766666D01*
X116633333Y-58766666D01*
X116557142Y-58804761D01*
X116519047Y-58842857D01*
X116480952Y-58919047D01*
X116442857Y-59071428D01*
X116404761Y-59147619D01*
X116366666Y-59185714D01*
X116290476Y-59223809D01*
X116214285Y-59223809D01*
X116138095Y-59185714D01*
X116100000Y-59147619D01*
X116061904Y-59071428D01*
X116061904Y-58880952D01*
X116100000Y-58766666D01*
X116861904Y-57133333D02*
X116480952Y-57400000D01*
X116861904Y-57590476D02*
X116061904Y-57590476D01*
X116061904Y-57285714D01*
X116100000Y-57209523D01*
X116138095Y-57171428D01*
X116214285Y-57133333D01*
X116328571Y-57133333D01*
X116404761Y-57171428D01*
X116442857Y-57209523D01*
X116480952Y-57285714D01*
X116480952Y-57590476D01*
X116061904Y-56866666D02*
X116861904Y-56333333D01*
X116061904Y-56333333D02*
X116861904Y-56866666D01*
X116161904Y-55209523D02*
X116161904Y-54752380D01*
X116961904Y-54980952D02*
X116161904Y-54980952D01*
X116161904Y-54561904D02*
X116961904Y-54028571D01*
X116161904Y-54028571D02*
X116961904Y-54561904D01*
X116961904Y-52900000D02*
X116161904Y-52900000D01*
X116161904Y-52366666D02*
X116161904Y-52214285D01*
X116200000Y-52138095D01*
X116276190Y-52061904D01*
X116428571Y-52023809D01*
X116695238Y-52023809D01*
X116847619Y-52061904D01*
X116923809Y-52138095D01*
X116961904Y-52214285D01*
X116961904Y-52366666D01*
X116923809Y-52442857D01*
X116847619Y-52519047D01*
X116695238Y-52557142D01*
X116428571Y-52557142D01*
X116276190Y-52519047D01*
X116200000Y-52442857D01*
X116161904Y-52366666D01*
X116238095Y-51719047D02*
X116200000Y-51680952D01*
X116161904Y-51604761D01*
X116161904Y-51414285D01*
X116200000Y-51338095D01*
X116238095Y-51300000D01*
X116314285Y-51261904D01*
X116390476Y-51261904D01*
X116504761Y-51300000D01*
X116961904Y-51757142D01*
X116961904Y-51261904D01*
X116961904Y-50300000D02*
X116161904Y-50300000D01*
X116161904Y-49766666D02*
X116161904Y-49614285D01*
X116200000Y-49538095D01*
X116276190Y-49461904D01*
X116428571Y-49423809D01*
X116695238Y-49423809D01*
X116847619Y-49461904D01*
X116923809Y-49538095D01*
X116961904Y-49614285D01*
X116961904Y-49766666D01*
X116923809Y-49842857D01*
X116847619Y-49919047D01*
X116695238Y-49957142D01*
X116428571Y-49957142D01*
X116276190Y-49919047D01*
X116200000Y-49842857D01*
X116161904Y-49766666D01*
X116961904Y-48661904D02*
X116961904Y-49119047D01*
X116961904Y-48890476D02*
X116161904Y-48890476D01*
X116276190Y-48966666D01*
X116352380Y-49042857D01*
X116390476Y-49119047D01*
X116961904Y-47800000D02*
X116161904Y-47800000D01*
X116161904Y-47266666D02*
X116161904Y-47114285D01*
X116200000Y-47038095D01*
X116276190Y-46961904D01*
X116428571Y-46923809D01*
X116695238Y-46923809D01*
X116847619Y-46961904D01*
X116923809Y-47038095D01*
X116961904Y-47114285D01*
X116961904Y-47266666D01*
X116923809Y-47342857D01*
X116847619Y-47419047D01*
X116695238Y-47457142D01*
X116428571Y-47457142D01*
X116276190Y-47419047D01*
X116200000Y-47342857D01*
X116161904Y-47266666D01*
X116161904Y-46428571D02*
X116161904Y-46352380D01*
X116200000Y-46276190D01*
X116238095Y-46238095D01*
X116314285Y-46200000D01*
X116466666Y-46161904D01*
X116657142Y-46161904D01*
X116809523Y-46200000D01*
X116885714Y-46238095D01*
X116923809Y-46276190D01*
X116961904Y-46352380D01*
X116961904Y-46428571D01*
X116923809Y-46504761D01*
X116885714Y-46542857D01*
X116809523Y-46580952D01*
X116657142Y-46619047D01*
X116466666Y-46619047D01*
X116314285Y-46580952D01*
X116238095Y-46542857D01*
X116200000Y-46504761D01*
X116161904Y-46428571D01*
X116200000Y-45109523D02*
X116161904Y-45185714D01*
X116161904Y-45300000D01*
X116200000Y-45414285D01*
X116276190Y-45490476D01*
X116352380Y-45528571D01*
X116504761Y-45566666D01*
X116619047Y-45566666D01*
X116771428Y-45528571D01*
X116847619Y-45490476D01*
X116923809Y-45414285D01*
X116961904Y-45300000D01*
X116961904Y-45223809D01*
X116923809Y-45109523D01*
X116885714Y-45071428D01*
X116619047Y-45071428D01*
X116619047Y-45223809D01*
X116961904Y-44728571D02*
X116161904Y-44728571D01*
X116961904Y-44271428D01*
X116161904Y-44271428D01*
X116961904Y-43890476D02*
X116161904Y-43890476D01*
X116161904Y-43700000D01*
X116200000Y-43585714D01*
X116276190Y-43509523D01*
X116352380Y-43471428D01*
X116504761Y-43433333D01*
X116619047Y-43433333D01*
X116771428Y-43471428D01*
X116847619Y-43509523D01*
X116923809Y-43585714D01*
X116961904Y-43700000D01*
X116961904Y-43890476D01*
D13*
X135589000Y-43078000D02*
X133811000Y-43078000D01*
X135589000Y-39522000D02*
X135589000Y-43078000D01*
X133811000Y-39522000D02*
X135589000Y-39522000D01*
X133811000Y-43078000D02*
X133811000Y-39522000D01*
X123922000Y-58211000D02*
X127478000Y-58211000D01*
X127478000Y-58211000D02*
X127478000Y-59989000D01*
X127478000Y-59989000D02*
X123922000Y-59989000D01*
X123922000Y-59989000D02*
X123922000Y-58211000D01*
D14*
X126497560Y-56801220D02*
X126149580Y-56801220D01*
X126149580Y-56801220D02*
X126149580Y-57598780D01*
X126497560Y-57598780D02*
X126149580Y-57598780D01*
X126497560Y-56801220D02*
X126497560Y-57598780D01*
X125250420Y-56801220D02*
X124902440Y-56801220D01*
X124902440Y-56801220D02*
X124902440Y-57598780D01*
X125250420Y-57598780D02*
X124902440Y-57598780D01*
X125250420Y-56801220D02*
X125250420Y-57598780D01*
X127099540Y-56402440D02*
X124300460Y-56402440D01*
X124300460Y-56402440D02*
X124300460Y-57997560D01*
X127099540Y-57997560D02*
X124300460Y-57997560D01*
X127099540Y-56402440D02*
X127099540Y-57997560D01*
D15*
X125382500Y-57517500D02*
X125382500Y-56882500D01*
X125382500Y-57200000D02*
X126017500Y-57517500D01*
X126017500Y-57517500D02*
X126017500Y-56882500D01*
X126017500Y-56882500D02*
X125382500Y-57200000D01*
D14*
X114046000Y-59436000D02*
X114046000Y-59944000D01*
X114046000Y-59944000D02*
X114554000Y-59944000D01*
X114554000Y-59436000D02*
X114554000Y-59944000D01*
X114046000Y-59436000D02*
X114554000Y-59436000D01*
X114046000Y-56896000D02*
X114046000Y-57404000D01*
X114046000Y-57404000D02*
X114554000Y-57404000D01*
X114554000Y-56896000D02*
X114554000Y-57404000D01*
X114046000Y-56896000D02*
X114554000Y-56896000D01*
X114046000Y-54356000D02*
X114046000Y-54864000D01*
X114046000Y-54864000D02*
X114554000Y-54864000D01*
X114554000Y-54356000D02*
X114554000Y-54864000D01*
X114046000Y-54356000D02*
X114554000Y-54356000D01*
X114046000Y-51816000D02*
X114046000Y-52324000D01*
X114046000Y-52324000D02*
X114554000Y-52324000D01*
X114554000Y-51816000D02*
X114554000Y-52324000D01*
X114046000Y-51816000D02*
X114554000Y-51816000D01*
X114046000Y-49276000D02*
X114046000Y-49784000D01*
X114046000Y-49784000D02*
X114554000Y-49784000D01*
X114554000Y-49276000D02*
X114554000Y-49784000D01*
X114046000Y-49276000D02*
X114554000Y-49276000D01*
X114046000Y-46736000D02*
X114046000Y-47244000D01*
X114046000Y-47244000D02*
X114554000Y-47244000D01*
X114554000Y-46736000D02*
X114554000Y-47244000D01*
X114046000Y-46736000D02*
X114554000Y-46736000D01*
X114046000Y-44196000D02*
X114046000Y-44704000D01*
X114046000Y-44704000D02*
X114554000Y-44704000D01*
X114554000Y-44196000D02*
X114554000Y-44704000D01*
X114046000Y-44196000D02*
X114554000Y-44196000D01*
X114046000Y-61976000D02*
X114046000Y-62484000D01*
X114046000Y-62484000D02*
X114554000Y-62484000D01*
X114554000Y-61976000D02*
X114554000Y-62484000D01*
X114046000Y-61976000D02*
X114554000Y-61976000D01*
D16*
X115570000Y-59055000D02*
X115570000Y-60325000D01*
X115570000Y-60325000D02*
X114935000Y-60960000D01*
X114935000Y-60960000D02*
X113665000Y-60960000D01*
X113665000Y-60960000D02*
X113030000Y-60325000D01*
X114935000Y-55880000D02*
X115570000Y-56515000D01*
X115570000Y-56515000D02*
X115570000Y-57785000D01*
X115570000Y-57785000D02*
X114935000Y-58420000D01*
X114935000Y-58420000D02*
X113665000Y-58420000D01*
X113665000Y-58420000D02*
X113030000Y-57785000D01*
X113030000Y-57785000D02*
X113030000Y-56515000D01*
X113030000Y-56515000D02*
X113665000Y-55880000D01*
X115570000Y-59055000D02*
X114935000Y-58420000D01*
X113665000Y-58420000D02*
X113030000Y-59055000D01*
X113030000Y-60325000D02*
X113030000Y-59055000D01*
X115570000Y-51435000D02*
X115570000Y-52705000D01*
X115570000Y-52705000D02*
X114935000Y-53340000D01*
X114935000Y-53340000D02*
X113665000Y-53340000D01*
X113665000Y-53340000D02*
X113030000Y-52705000D01*
X114935000Y-53340000D02*
X115570000Y-53975000D01*
X115570000Y-53975000D02*
X115570000Y-55245000D01*
X115570000Y-55245000D02*
X114935000Y-55880000D01*
X114935000Y-55880000D02*
X113665000Y-55880000D01*
X113665000Y-55880000D02*
X113030000Y-55245000D01*
X113030000Y-55245000D02*
X113030000Y-53975000D01*
X113030000Y-53975000D02*
X113665000Y-53340000D01*
X114935000Y-48260000D02*
X115570000Y-48895000D01*
X115570000Y-48895000D02*
X115570000Y-50165000D01*
X115570000Y-50165000D02*
X114935000Y-50800000D01*
X114935000Y-50800000D02*
X113665000Y-50800000D01*
X113665000Y-50800000D02*
X113030000Y-50165000D01*
X113030000Y-50165000D02*
X113030000Y-48895000D01*
X113030000Y-48895000D02*
X113665000Y-48260000D01*
X115570000Y-51435000D02*
X114935000Y-50800000D01*
X113665000Y-50800000D02*
X113030000Y-51435000D01*
X113030000Y-52705000D02*
X113030000Y-51435000D01*
X115570000Y-43815000D02*
X115570000Y-45085000D01*
X115570000Y-45085000D02*
X114935000Y-45720000D01*
X114935000Y-45720000D02*
X113665000Y-45720000D01*
X113665000Y-45720000D02*
X113030000Y-45085000D01*
X114935000Y-45720000D02*
X115570000Y-46355000D01*
X115570000Y-46355000D02*
X115570000Y-47625000D01*
X115570000Y-47625000D02*
X114935000Y-48260000D01*
X114935000Y-48260000D02*
X113665000Y-48260000D01*
X113665000Y-48260000D02*
X113030000Y-47625000D01*
X113030000Y-47625000D02*
X113030000Y-46355000D01*
X113030000Y-46355000D02*
X113665000Y-45720000D01*
X114935000Y-43180000D02*
X113665000Y-43180000D01*
X115570000Y-43815000D02*
X114935000Y-43180000D01*
X113665000Y-43180000D02*
X113030000Y-43815000D01*
X113030000Y-45085000D02*
X113030000Y-43815000D01*
X115570000Y-61595000D02*
X115570000Y-62865000D01*
X115570000Y-62865000D02*
X114935000Y-63500000D01*
X114935000Y-63500000D02*
X113665000Y-63500000D01*
X113665000Y-63500000D02*
X113030000Y-62865000D01*
X115570000Y-61595000D02*
X114935000Y-60960000D01*
X113665000Y-60960000D02*
X113030000Y-61595000D01*
X113030000Y-62865000D02*
X113030000Y-61595000D01*
X138430000Y-43815000D02*
X138430000Y-45085000D01*
X137795000Y-45720000D02*
X138430000Y-45085000D01*
X135890000Y-45085000D02*
X136525000Y-45720000D01*
X137795000Y-43180000D02*
X138430000Y-43815000D01*
X136525000Y-43180000D02*
X137795000Y-43180000D01*
X135890000Y-43815000D02*
X136525000Y-43180000D01*
X135890000Y-45085000D02*
X135890000Y-43815000D01*
X138430000Y-61595000D02*
X138430000Y-62865000D01*
X137795000Y-63500000D02*
X138430000Y-62865000D01*
X135890000Y-62865000D02*
X136525000Y-63500000D01*
X136525000Y-63500000D02*
X137795000Y-63500000D01*
X138430000Y-60325000D02*
X137795000Y-60960000D01*
X138430000Y-59055000D02*
X138430000Y-60325000D01*
X137795000Y-58420000D02*
X138430000Y-59055000D01*
X136525000Y-58420000D02*
X137795000Y-58420000D01*
X135890000Y-59055000D02*
X136525000Y-58420000D01*
X135890000Y-60325000D02*
X135890000Y-59055000D01*
X136525000Y-60960000D02*
X135890000Y-60325000D01*
X137795000Y-60960000D02*
X138430000Y-61595000D01*
X136525000Y-60960000D02*
X137795000Y-60960000D01*
X135890000Y-61595000D02*
X136525000Y-60960000D01*
X135890000Y-62865000D02*
X135890000Y-61595000D01*
X138430000Y-53975000D02*
X138430000Y-55245000D01*
X137795000Y-55880000D02*
X138430000Y-55245000D01*
X135890000Y-55245000D02*
X136525000Y-55880000D01*
X138430000Y-57785000D02*
X137795000Y-58420000D01*
X138430000Y-56515000D02*
X138430000Y-57785000D01*
X137795000Y-55880000D02*
X138430000Y-56515000D01*
X136525000Y-55880000D02*
X137795000Y-55880000D01*
X135890000Y-56515000D02*
X136525000Y-55880000D01*
X135890000Y-57785000D02*
X135890000Y-56515000D01*
X136525000Y-58420000D02*
X135890000Y-57785000D01*
X138430000Y-52705000D02*
X137795000Y-53340000D01*
X138430000Y-51435000D02*
X138430000Y-52705000D01*
X137795000Y-50800000D02*
X138430000Y-51435000D01*
X136525000Y-50800000D02*
X137795000Y-50800000D01*
X135890000Y-51435000D02*
X136525000Y-50800000D01*
X135890000Y-52705000D02*
X135890000Y-51435000D01*
X136525000Y-53340000D02*
X135890000Y-52705000D01*
X137795000Y-53340000D02*
X138430000Y-53975000D01*
X136525000Y-53340000D02*
X137795000Y-53340000D01*
X135890000Y-53975000D02*
X136525000Y-53340000D01*
X135890000Y-55245000D02*
X135890000Y-53975000D01*
X138430000Y-46355000D02*
X138430000Y-47625000D01*
X137795000Y-48260000D02*
X138430000Y-47625000D01*
X135890000Y-47625000D02*
X136525000Y-48260000D01*
X138430000Y-50165000D02*
X137795000Y-50800000D01*
X138430000Y-48895000D02*
X138430000Y-50165000D01*
X137795000Y-48260000D02*
X138430000Y-48895000D01*
X136525000Y-48260000D02*
X137795000Y-48260000D01*
X135890000Y-48895000D02*
X136525000Y-48260000D01*
X135890000Y-50165000D02*
X135890000Y-48895000D01*
X136525000Y-50800000D02*
X135890000Y-50165000D01*
X137795000Y-45720000D02*
X138430000Y-46355000D01*
X136525000Y-45720000D02*
X137795000Y-45720000D01*
X135890000Y-46355000D02*
X136525000Y-45720000D01*
X135890000Y-47625000D02*
X135890000Y-46355000D01*
D14*
X137414000Y-44704000D02*
X136906000Y-44704000D01*
X136906000Y-44704000D02*
X136906000Y-44196000D01*
X137414000Y-44196000D02*
X136906000Y-44196000D01*
X137414000Y-44704000D02*
X137414000Y-44196000D01*
X137414000Y-62484000D02*
X136906000Y-62484000D01*
X136906000Y-62484000D02*
X136906000Y-61976000D01*
X137414000Y-61976000D02*
X136906000Y-61976000D01*
X137414000Y-62484000D02*
X137414000Y-61976000D01*
X137414000Y-59944000D02*
X136906000Y-59944000D01*
X136906000Y-59944000D02*
X136906000Y-59436000D01*
X137414000Y-59436000D02*
X136906000Y-59436000D01*
X137414000Y-59944000D02*
X137414000Y-59436000D01*
X137414000Y-57404000D02*
X136906000Y-57404000D01*
X136906000Y-57404000D02*
X136906000Y-56896000D01*
X137414000Y-56896000D02*
X136906000Y-56896000D01*
X137414000Y-57404000D02*
X137414000Y-56896000D01*
X137414000Y-54864000D02*
X136906000Y-54864000D01*
X136906000Y-54864000D02*
X136906000Y-54356000D01*
X137414000Y-54356000D02*
X136906000Y-54356000D01*
X137414000Y-54864000D02*
X137414000Y-54356000D01*
X137414000Y-52324000D02*
X136906000Y-52324000D01*
X136906000Y-52324000D02*
X136906000Y-51816000D01*
X137414000Y-51816000D02*
X136906000Y-51816000D01*
X137414000Y-52324000D02*
X137414000Y-51816000D01*
X137414000Y-49784000D02*
X136906000Y-49784000D01*
X136906000Y-49784000D02*
X136906000Y-49276000D01*
X137414000Y-49276000D02*
X136906000Y-49276000D01*
X137414000Y-49784000D02*
X137414000Y-49276000D01*
X137414000Y-47244000D02*
X136906000Y-47244000D01*
X136906000Y-47244000D02*
X136906000Y-46736000D01*
X137414000Y-46736000D02*
X136906000Y-46736000D01*
X137414000Y-47244000D02*
X137414000Y-46736000D01*
D13*
X121828000Y-56889000D02*
X118272000Y-56889000D01*
X118272000Y-56889000D02*
X118272000Y-55111000D01*
X118272000Y-55111000D02*
X121828000Y-55111000D01*
X121828000Y-55111000D02*
X121828000Y-56889000D01*
X132978000Y-55011000D02*
X132978000Y-56789000D01*
X129422000Y-55011000D02*
X132978000Y-55011000D01*
X129422000Y-56789000D02*
X129422000Y-55011000D01*
X132978000Y-56789000D02*
X129422000Y-56789000D01*
D10*
X122200000Y-39500000D02*
X122200000Y-42500000D01*
X122200000Y-42500000D02*
X129700000Y-42500000D01*
X129700000Y-42500000D02*
X129700000Y-39500000D01*
X129700000Y-39500000D02*
X122200000Y-39500000D01*
X119700000Y-54000000D02*
X121700000Y-54000000D01*
X130200000Y-54000000D02*
X131700000Y-54000000D01*
X132200000Y-39500000D02*
X129700000Y-39500000D01*
X122200000Y-39500000D02*
X119700000Y-39500000D01*
X132200000Y-39500000D02*
X132200000Y-39000000D01*
X132200000Y-39000000D02*
X119700000Y-39000000D01*
X119700000Y-39000000D02*
X119700000Y-39500000D01*
X119700000Y-54000000D02*
X119700000Y-53500000D01*
X131700000Y-54000000D02*
X131700000Y-53500000D01*
X123700000Y-61000000D02*
X123700000Y-61500000D01*
X123700000Y-61500000D02*
X127700000Y-61500000D01*
X127700000Y-61500000D02*
X127700000Y-61000000D01*
X125700000Y-61000000D02*
X130200000Y-61000000D01*
X130200000Y-61000000D02*
X130200000Y-64000000D01*
X130200000Y-64000000D02*
X121200000Y-64000000D01*
X121200000Y-64000000D02*
X121200000Y-61000000D01*
X121200000Y-61000000D02*
X125700000Y-61000000D01*
D17*
X136785714Y-41787380D02*
X136823809Y-41825476D01*
X136861904Y-41939761D01*
X136861904Y-42015952D01*
X136823809Y-42130238D01*
X136747619Y-42206428D01*
X136671428Y-42244523D01*
X136519047Y-42282619D01*
X136404761Y-42282619D01*
X136252380Y-42244523D01*
X136176190Y-42206428D01*
X136100000Y-42130238D01*
X136061904Y-42015952D01*
X136061904Y-41939761D01*
X136100000Y-41825476D01*
X136138095Y-41787380D01*
X136061904Y-41520714D02*
X136061904Y-41025476D01*
X136366666Y-41292142D01*
X136366666Y-41177857D01*
X136404761Y-41101666D01*
X136442857Y-41063571D01*
X136519047Y-41025476D01*
X136709523Y-41025476D01*
X136785714Y-41063571D01*
X136823809Y-41101666D01*
X136861904Y-41177857D01*
X136861904Y-41406428D01*
X136823809Y-41482619D01*
X136785714Y-41520714D01*
X123761904Y-59287380D02*
X123380952Y-59554047D01*
X123761904Y-59744523D02*
X122961904Y-59744523D01*
X122961904Y-59439761D01*
X123000000Y-59363571D01*
X123038095Y-59325476D01*
X123114285Y-59287380D01*
X123228571Y-59287380D01*
X123304761Y-59325476D01*
X123342857Y-59363571D01*
X123380952Y-59439761D01*
X123380952Y-59744523D01*
X123038095Y-58982619D02*
X123000000Y-58944523D01*
X122961904Y-58868333D01*
X122961904Y-58677857D01*
X123000000Y-58601666D01*
X123038095Y-58563571D01*
X123114285Y-58525476D01*
X123190476Y-58525476D01*
X123304761Y-58563571D01*
X123761904Y-59020714D01*
X123761904Y-58525476D01*
X125009523Y-56261904D02*
X125009523Y-55461904D01*
X125200000Y-55461904D01*
X125314285Y-55500000D01*
X125390476Y-55576190D01*
X125428571Y-55652380D01*
X125466666Y-55804761D01*
X125466666Y-55919047D01*
X125428571Y-56071428D01*
X125390476Y-56147619D01*
X125314285Y-56223809D01*
X125200000Y-56261904D01*
X125009523Y-56261904D01*
X126228571Y-56261904D02*
X125771428Y-56261904D01*
X126000000Y-56261904D02*
X126000000Y-55461904D01*
X125923809Y-55576190D01*
X125847619Y-55652380D01*
X125771428Y-55690476D01*
X122612619Y-56261904D02*
X122345952Y-55880952D01*
X122155476Y-56261904D02*
X122155476Y-55461904D01*
X122460238Y-55461904D01*
X122536428Y-55500000D01*
X122574523Y-55538095D01*
X122612619Y-55614285D01*
X122612619Y-55728571D01*
X122574523Y-55804761D01*
X122536428Y-55842857D01*
X122460238Y-55880952D01*
X122155476Y-55880952D01*
X122879285Y-55461904D02*
X123412619Y-55461904D01*
X123069761Y-56261904D01*
X128512619Y-56161904D02*
X128245952Y-55780952D01*
X128055476Y-56161904D02*
X128055476Y-55361904D01*
X128360238Y-55361904D01*
X128436428Y-55400000D01*
X128474523Y-55438095D01*
X128512619Y-55514285D01*
X128512619Y-55628571D01*
X128474523Y-55704761D01*
X128436428Y-55742857D01*
X128360238Y-55780952D01*
X128055476Y-55780952D01*
X128969761Y-55704761D02*
X128893571Y-55666666D01*
X128855476Y-55628571D01*
X128817380Y-55552380D01*
X128817380Y-55514285D01*
X128855476Y-55438095D01*
X128893571Y-55400000D01*
X128969761Y-55361904D01*
X129122142Y-55361904D01*
X129198333Y-55400000D01*
X129236428Y-55438095D01*
X129274523Y-55514285D01*
X129274523Y-55552380D01*
X129236428Y-55628571D01*
X129198333Y-55666666D01*
X129122142Y-55704761D01*
X128969761Y-55704761D01*
X128893571Y-55742857D01*
X128855476Y-55780952D01*
X128817380Y-55857142D01*
X128817380Y-56009523D01*
X128855476Y-56085714D01*
X128893571Y-56123809D01*
X128969761Y-56161904D01*
X129122142Y-56161904D01*
X129198333Y-56123809D01*
X129236428Y-56085714D01*
X129274523Y-56009523D01*
X129274523Y-55857142D01*
X129236428Y-55780952D01*
X129198333Y-55742857D01*
X129122142Y-55704761D01*
X118883333Y-58943809D02*
X118997619Y-58981904D01*
X119188095Y-58981904D01*
X119264285Y-58943809D01*
X119302380Y-58905714D01*
X119340476Y-58829523D01*
X119340476Y-58753333D01*
X119302380Y-58677142D01*
X119264285Y-58639047D01*
X119188095Y-58600952D01*
X119035714Y-58562857D01*
X118959523Y-58524761D01*
X118921428Y-58486666D01*
X118883333Y-58410476D01*
X118883333Y-58334285D01*
X118921428Y-58258095D01*
X118959523Y-58220000D01*
X119035714Y-58181904D01*
X119226190Y-58181904D01*
X119340476Y-58220000D01*
X119607142Y-58181904D02*
X119797619Y-58981904D01*
X119950000Y-58410476D01*
X120102380Y-58981904D01*
X120292857Y-58181904D01*
X121016666Y-58981904D02*
X120559523Y-58981904D01*
X120788095Y-58981904D02*
X120788095Y-58181904D01*
X120711904Y-58296190D01*
X120635714Y-58372380D01*
X120559523Y-58410476D01*
X129983333Y-59073809D02*
X130097619Y-59111904D01*
X130288095Y-59111904D01*
X130364285Y-59073809D01*
X130402380Y-59035714D01*
X130440476Y-58959523D01*
X130440476Y-58883333D01*
X130402380Y-58807142D01*
X130364285Y-58769047D01*
X130288095Y-58730952D01*
X130135714Y-58692857D01*
X130059523Y-58654761D01*
X130021428Y-58616666D01*
X129983333Y-58540476D01*
X129983333Y-58464285D01*
X130021428Y-58388095D01*
X130059523Y-58350000D01*
X130135714Y-58311904D01*
X130326190Y-58311904D01*
X130440476Y-58350000D01*
X130707142Y-58311904D02*
X130897619Y-59111904D01*
X131050000Y-58540476D01*
X131202380Y-59111904D01*
X131392857Y-58311904D01*
X131659523Y-58388095D02*
X131697619Y-58350000D01*
X131773809Y-58311904D01*
X131964285Y-58311904D01*
X132040476Y-58350000D01*
X132078571Y-58388095D01*
X132116666Y-58464285D01*
X132116666Y-58540476D01*
X132078571Y-58654761D01*
X131621428Y-59111904D01*
X132116666Y-59111904D01*
X117090476Y-39461904D02*
X117090476Y-40109523D01*
X117128571Y-40185714D01*
X117166666Y-40223809D01*
X117242857Y-40261904D01*
X117395238Y-40261904D01*
X117471428Y-40223809D01*
X117509523Y-40185714D01*
X117547619Y-40109523D01*
X117547619Y-39461904D01*
X117852380Y-39461904D02*
X118347619Y-39461904D01*
X118080952Y-39766666D01*
X118195238Y-39766666D01*
X118271428Y-39804761D01*
X118309523Y-39842857D01*
X118347619Y-39919047D01*
X118347619Y-40109523D01*
X118309523Y-40185714D01*
X118271428Y-40223809D01*
X118195238Y-40261904D01*
X117966666Y-40261904D01*
X117890476Y-40223809D01*
X117852380Y-40185714D01*
D10*
X130461904Y-63052380D02*
X130461904Y-62052380D01*
X130842857Y-62052380D01*
X130938095Y-62100000D01*
X130985714Y-62147619D01*
X131033333Y-62242857D01*
X131033333Y-62385714D01*
X130985714Y-62480952D01*
X130938095Y-62528571D01*
X130842857Y-62576190D01*
X130461904Y-62576190D01*
X131366666Y-62052380D02*
X131985714Y-62052380D01*
X131652380Y-62433333D01*
X131795238Y-62433333D01*
X131890476Y-62480952D01*
X131938095Y-62528571D01*
X131985714Y-62623809D01*
X131985714Y-62861904D01*
X131938095Y-62957142D01*
X131890476Y-63004761D01*
X131795238Y-63052380D01*
X131509523Y-63052380D01*
X131414285Y-63004761D01*
X131366666Y-62957142D01*
M02*
