G04 #@! TF.GenerationSoftware,KiCad,Pcbnew,(5.1.0)-1*
G04 #@! TF.CreationDate,2019-05-23T22:12:47+09:00*
G04 #@! TF.ProjectId,ble5,626c6535-2e6b-4696-9361-645f70636258,v1.4*
G04 #@! TF.SameCoordinates,Original*
G04 #@! TF.FileFunction,Copper,L1,Top*
G04 #@! TF.FilePolarity,Positive*
%FSLAX46Y46*%
G04 Gerber Fmt 4.6, Leading zero omitted, Abs format (unit mm)*
G04 Created by KiCad (PCBNEW (5.1.0)-1) date 2019-05-23 22:12:47*
%MOMM*%
%LPD*%
G04 APERTURE LIST*
%ADD10R,1.000000X1.100000*%
%ADD11R,1.100000X1.000000*%
%ADD12R,1.049020X1.079500*%
%ADD13O,3.048000X1.524000*%
%ADD14R,1.050000X0.650000*%
%ADD15O,2.400000X0.800000*%
%ADD16O,0.800000X2.400000*%
%ADD17O,1.524000X1.800000*%
%ADD18C,0.800000*%
%ADD19C,0.300000*%
%ADD20C,0.254000*%
G04 APERTURE END LIST*
D10*
X134700000Y-40450000D03*
X134700000Y-42150000D03*
D11*
X124850000Y-59100000D03*
X126550000Y-59100000D03*
D12*
X126573760Y-57200000D03*
X124826240Y-57200000D03*
D13*
X114300000Y-44450000D03*
X114300000Y-46990000D03*
X114300000Y-49530000D03*
X114300000Y-52070000D03*
X114300000Y-54610000D03*
X114300000Y-57150000D03*
X114300000Y-59690000D03*
X114300000Y-62230000D03*
X137160000Y-44450000D03*
X137160000Y-46990000D03*
X137160000Y-49530000D03*
X137160000Y-52070000D03*
X137160000Y-54610000D03*
X137160000Y-57150000D03*
X137160000Y-59690000D03*
X137160000Y-62230000D03*
D11*
X120900000Y-56000000D03*
X119200000Y-56000000D03*
X130350000Y-55900000D03*
X132050000Y-55900000D03*
D14*
X122100000Y-59850000D03*
X117950000Y-59850000D03*
X122100000Y-57700000D03*
X117950000Y-57700000D03*
X129050000Y-57600000D03*
X133200000Y-57600000D03*
X129050000Y-59750000D03*
X133200000Y-59750000D03*
D15*
X120200000Y-40000000D03*
X120200000Y-41200000D03*
X120200000Y-42400000D03*
X120200000Y-43600000D03*
X120200000Y-44800000D03*
X120200000Y-46000000D03*
X120200000Y-47200000D03*
X120200000Y-48400000D03*
X120200000Y-49600000D03*
X120200000Y-50800000D03*
X120200000Y-52000000D03*
X120200000Y-53200000D03*
D16*
X122250000Y-53300000D03*
X123450000Y-53300000D03*
X124650000Y-53300000D03*
X125850000Y-53300000D03*
X127050000Y-53300000D03*
X128250000Y-53300000D03*
X129450000Y-53300000D03*
D15*
X131500000Y-53200000D03*
X131500000Y-52000000D03*
X131500000Y-50800000D03*
X131500000Y-49600000D03*
X131500000Y-48400000D03*
X131500000Y-47200000D03*
X131500000Y-46000000D03*
X131500000Y-44800000D03*
X131500000Y-43600000D03*
X131500000Y-42400000D03*
X131500000Y-41200000D03*
X131500000Y-40000000D03*
D17*
X128700000Y-62500000D03*
X126700000Y-62500000D03*
X124700000Y-62500000D03*
X122700000Y-62500000D03*
D18*
X118302400Y-49890600D03*
X117950000Y-58670400D03*
X131400000Y-57800000D03*
X133700000Y-55500000D03*
X134300000Y-47900000D03*
X125800000Y-47200000D03*
X134300000Y-53200000D03*
X122800000Y-46600000D03*
X124709400Y-55779000D03*
X133337900Y-45640900D03*
X120694000Y-57575000D03*
X122022400Y-47419200D03*
X127860400Y-59501800D03*
X117468100Y-45297800D03*
X129450000Y-51297400D03*
X126027100Y-51482000D03*
X124851400Y-51499400D03*
X123734600Y-51475300D03*
X122646100Y-51448400D03*
X122046200Y-49916200D03*
D19*
X129433000Y-57450100D02*
X129199900Y-57450100D01*
X129199900Y-57450100D02*
X129050000Y-57600000D01*
X132324700Y-57600000D02*
X132174800Y-57450100D01*
X133200000Y-57600000D02*
X132324700Y-57600000D01*
X132174800Y-57450100D02*
X129433000Y-57450100D01*
X129433000Y-57450100D02*
X129433000Y-55267000D01*
X129433000Y-55267000D02*
X131500000Y-53200000D01*
X117950000Y-57700000D02*
X118052300Y-57597700D01*
X118052300Y-57597700D02*
X118052300Y-54497200D01*
X118052300Y-54497200D02*
X119349500Y-53200000D01*
X119349500Y-53200000D02*
X118302400Y-52152900D01*
X118302400Y-52152900D02*
X118302400Y-49890600D01*
X119424900Y-53200000D02*
X119349500Y-53200000D01*
X117950000Y-58670400D02*
X117950000Y-57700000D01*
X120200000Y-53200000D02*
X119424900Y-53200000D01*
X133050300Y-40000000D02*
X133500300Y-40450000D01*
X133500300Y-40450000D02*
X133974800Y-40450000D01*
X131500000Y-40000000D02*
X133050300Y-40000000D01*
X122975300Y-59950300D02*
X122975300Y-57700000D01*
X122700000Y-61249700D02*
X122975300Y-60974400D01*
X122975300Y-60974400D02*
X122975300Y-59950300D01*
X122975300Y-59950300D02*
X126550000Y-59950300D01*
X126550000Y-59100000D02*
X126550000Y-59950300D01*
X129050000Y-57600000D02*
X128174700Y-57600000D01*
X128174700Y-57600000D02*
X127525000Y-58249700D01*
X127525000Y-58249700D02*
X126550000Y-58249700D01*
X126550000Y-59100000D02*
X126550000Y-58249700D01*
X122100000Y-57700000D02*
X122975300Y-57700000D01*
X122700000Y-62500000D02*
X122700000Y-61249700D01*
X134700000Y-40450000D02*
X133974800Y-40450000D01*
X120200000Y-40000000D02*
X121850300Y-40000000D01*
X131500000Y-40000000D02*
X129849700Y-40000000D01*
X129849700Y-40000000D02*
X129849700Y-45113300D01*
X129849700Y-45113300D02*
X128363400Y-46599600D01*
X128363400Y-46599600D02*
X125600000Y-46599600D01*
X125600000Y-46599600D02*
X123346400Y-46599600D01*
X123346400Y-46599600D02*
X123173400Y-46426600D01*
X123173400Y-46426600D02*
X121850300Y-45103500D01*
X121850300Y-45103500D02*
X121850300Y-40000000D01*
X120200000Y-40000000D02*
X118649700Y-40000000D01*
X114300000Y-44450000D02*
X118649700Y-40100300D01*
X118649700Y-40100300D02*
X118649700Y-40000000D01*
X125600000Y-46599600D02*
X125600000Y-47000000D01*
X133700000Y-53800000D02*
X134300000Y-53200000D01*
X133700000Y-55500000D02*
X133700000Y-53800000D01*
X131600000Y-57600000D02*
X131400000Y-57800000D01*
X131600000Y-57600000D02*
X133200000Y-57600000D01*
X125600000Y-47000000D02*
X125800000Y-47200000D01*
X134300000Y-47900000D02*
X134300000Y-53200000D01*
X123173400Y-46426600D02*
X122973400Y-46426600D01*
X122973400Y-46426600D02*
X122800000Y-46600000D01*
X124709400Y-56000000D02*
X125373800Y-56000000D01*
X125373800Y-56000000D02*
X126573800Y-57200000D01*
X120900000Y-56000000D02*
X124709400Y-56000000D01*
X124709400Y-56000000D02*
X124709400Y-55779000D01*
X132050000Y-55049700D02*
X133050300Y-54049400D01*
X133050300Y-54049400D02*
X133050300Y-45640900D01*
X133050300Y-42400000D02*
X133050300Y-45640900D01*
X133050300Y-45640900D02*
X133337900Y-45640900D01*
X134700000Y-42150000D02*
X134700000Y-43050300D01*
X137160000Y-44450000D02*
X135285700Y-44450000D01*
X135285700Y-44450000D02*
X135285700Y-43636000D01*
X135285700Y-43636000D02*
X134700000Y-43050300D01*
X131500000Y-42400000D02*
X133050300Y-42400000D01*
X120900000Y-56000000D02*
X120900000Y-56850300D01*
X120694000Y-57575000D02*
X120694000Y-57056300D01*
X120694000Y-57056300D02*
X120900000Y-56850300D01*
X132050000Y-55900000D02*
X132050000Y-55049700D01*
X124826200Y-57200000D02*
X124826200Y-58090100D01*
X124826200Y-58090100D02*
X124850000Y-58113900D01*
X124850000Y-58113900D02*
X124850000Y-59100000D01*
X133200000Y-59750000D02*
X134075300Y-59750000D01*
X134075300Y-59750000D02*
X134075300Y-57129900D01*
X134075300Y-57129900D02*
X133695700Y-56750300D01*
X133200000Y-59750000D02*
X132762400Y-59750000D01*
X133695700Y-56750300D02*
X130350000Y-56750300D01*
X135285700Y-46990000D02*
X135285700Y-55160300D01*
X135285700Y-55160300D02*
X133695700Y-56750300D01*
X130350000Y-55900000D02*
X130350000Y-56750300D01*
X133050300Y-41200000D02*
X133550700Y-41700400D01*
X133550700Y-41700400D02*
X133550700Y-44775500D01*
X133550700Y-44775500D02*
X135285700Y-46510500D01*
X135285700Y-46510500D02*
X135285700Y-46990000D01*
X131500000Y-41200000D02*
X133050300Y-41200000D01*
X132762400Y-59750000D02*
X132324700Y-59750000D01*
X137160000Y-46990000D02*
X135285700Y-46990000D01*
X129925300Y-59750000D02*
X132324700Y-59750000D01*
X129050000Y-59750000D02*
X129925300Y-59750000D01*
X120200000Y-44800000D02*
X118649700Y-44800000D01*
X114300000Y-54610000D02*
X116174300Y-54610000D01*
X116174300Y-54610000D02*
X116174300Y-48915800D01*
X116174300Y-48915800D02*
X118649700Y-46440400D01*
X118649700Y-46440400D02*
X118649700Y-44800000D01*
X121750300Y-46000000D02*
X121750300Y-47147100D01*
X121750300Y-47147100D02*
X122022400Y-47419200D01*
X126700000Y-62500000D02*
X127860400Y-61339600D01*
X127860400Y-61339600D02*
X127860400Y-59501800D01*
X120200000Y-46000000D02*
X121750300Y-46000000D01*
X120200000Y-41200000D02*
X118649700Y-41200000D01*
X118649700Y-41200000D02*
X116217100Y-43632600D01*
X116217100Y-43632600D02*
X116217100Y-45072900D01*
X116217100Y-45072900D02*
X114300000Y-46990000D01*
X114300000Y-49530000D02*
X116717500Y-47112500D01*
X116717500Y-47112500D02*
X116717500Y-44332200D01*
X116717500Y-44332200D02*
X118649700Y-42400000D01*
X120200000Y-42400000D02*
X118649700Y-42400000D01*
X118649700Y-43600000D02*
X117468100Y-44781600D01*
X117468100Y-44781600D02*
X117468100Y-45297800D01*
X120200000Y-43600000D02*
X118649700Y-43600000D01*
X114300000Y-59690000D02*
X116174300Y-59690000D01*
X120200000Y-47200000D02*
X118649700Y-47200000D01*
X118649700Y-47200000D02*
X116801600Y-49048100D01*
X116801600Y-49048100D02*
X116801600Y-54860100D01*
X116801600Y-54860100D02*
X116174300Y-55487400D01*
X116174300Y-55487400D02*
X116174300Y-59690000D01*
X116174300Y-62230000D02*
X117051700Y-61352600D01*
X117051700Y-61352600D02*
X117051700Y-55567800D01*
X117051700Y-55567800D02*
X117551900Y-55067600D01*
X117551900Y-55067600D02*
X117551900Y-49497800D01*
X117551900Y-49497800D02*
X118649700Y-48400000D01*
X114300000Y-62230000D02*
X116174300Y-62230000D01*
X120200000Y-48400000D02*
X118649700Y-48400000D01*
X119200000Y-56000000D02*
X119200000Y-55149700D01*
X129450000Y-53300000D02*
X129450000Y-53976200D01*
X129450000Y-53976200D02*
X128567800Y-54858400D01*
X128567800Y-54858400D02*
X119491300Y-54858400D01*
X119491300Y-54858400D02*
X119200000Y-55149700D01*
X129450000Y-51297400D02*
X129450000Y-53300000D01*
X122100000Y-59850000D02*
X121224700Y-59850000D01*
X119200000Y-59475300D02*
X118825300Y-59850000D01*
X119200000Y-56000000D02*
X119200000Y-59475300D01*
X119200000Y-59475300D02*
X120850000Y-59475300D01*
X120850000Y-59475300D02*
X121224700Y-59850000D01*
X117950000Y-59850000D02*
X118825300Y-59850000D01*
X125850000Y-51749700D02*
X125850000Y-51659100D01*
X125850000Y-51659100D02*
X126027100Y-51482000D01*
X125850000Y-53300000D02*
X125850000Y-51749700D01*
X124650000Y-51749700D02*
X124851400Y-51548300D01*
X124851400Y-51548300D02*
X124851400Y-51499400D01*
X124650000Y-53300000D02*
X124650000Y-51749700D01*
X123450000Y-53300000D02*
X123450000Y-51749700D01*
X123460200Y-51749700D02*
X123734600Y-51475300D01*
X123450000Y-51749700D02*
X123460200Y-51749700D01*
X121750300Y-50800000D02*
X122398700Y-51448400D01*
X122398700Y-51448400D02*
X122646100Y-51448400D01*
X120200000Y-50800000D02*
X121750300Y-50800000D01*
X120200000Y-49600000D02*
X121750300Y-49600000D01*
X121750300Y-49600000D02*
X121750300Y-49620300D01*
X121750300Y-49620300D02*
X122046200Y-49916200D01*
D20*
G36*
X123663658Y-57739750D02*
G01*
X123675918Y-57864232D01*
X123712228Y-57983930D01*
X123771193Y-58094244D01*
X123832397Y-58168821D01*
X123769463Y-58245506D01*
X123710498Y-58355820D01*
X123674188Y-58475518D01*
X123661928Y-58600000D01*
X123661928Y-59600000D01*
X123674188Y-59724482D01*
X123710498Y-59844180D01*
X123769463Y-59954494D01*
X123848815Y-60051185D01*
X123945506Y-60130537D01*
X124055820Y-60189502D01*
X124175518Y-60225812D01*
X124300000Y-60238072D01*
X125400000Y-60238072D01*
X125524482Y-60225812D01*
X125644180Y-60189502D01*
X125700000Y-60159665D01*
X125755820Y-60189502D01*
X125875518Y-60225812D01*
X126000000Y-60238072D01*
X126264250Y-60235000D01*
X126423000Y-60076250D01*
X126423000Y-59227000D01*
X126403000Y-59227000D01*
X126403000Y-58973000D01*
X126423000Y-58973000D01*
X126423000Y-58953000D01*
X126677000Y-58953000D01*
X126677000Y-58973000D01*
X126697000Y-58973000D01*
X126697000Y-59227000D01*
X126677000Y-59227000D01*
X126677000Y-60076250D01*
X126835750Y-60235000D01*
X127075401Y-60237786D01*
X127075400Y-61014442D01*
X127074193Y-61015650D01*
X126973860Y-60985214D01*
X126700000Y-60958241D01*
X126426141Y-60985214D01*
X126162806Y-61065096D01*
X125920114Y-61194817D01*
X125707393Y-61369392D01*
X125700000Y-61378400D01*
X125692608Y-61369392D01*
X125479887Y-61194817D01*
X125237195Y-61065096D01*
X124973860Y-60985214D01*
X124700000Y-60958241D01*
X124426141Y-60985214D01*
X124162806Y-61065096D01*
X123920114Y-61194817D01*
X123707393Y-61369392D01*
X123694039Y-61385663D01*
X123530330Y-61237865D01*
X123295068Y-61097476D01*
X123043070Y-61007780D01*
X122827000Y-61130280D01*
X122827000Y-62373000D01*
X122847000Y-62373000D01*
X122847000Y-62627000D01*
X122827000Y-62627000D01*
X122827000Y-62647000D01*
X122573000Y-62647000D01*
X122573000Y-62627000D01*
X121461251Y-62627000D01*
X121317986Y-62845752D01*
X121385071Y-63111378D01*
X121469978Y-63290000D01*
X115972490Y-63290000D01*
X116054608Y-63222608D01*
X116226053Y-63013701D01*
X116328187Y-63003641D01*
X116476160Y-62958754D01*
X116612533Y-62885862D01*
X116732064Y-62787764D01*
X116756647Y-62757810D01*
X117360209Y-62154248D01*
X121317986Y-62154248D01*
X121461251Y-62373000D01*
X122573000Y-62373000D01*
X122573000Y-61130280D01*
X122356930Y-61007780D01*
X122104932Y-61097476D01*
X121869670Y-61237865D01*
X121666317Y-61421454D01*
X121502688Y-61641188D01*
X121385071Y-61888622D01*
X121317986Y-62154248D01*
X117360209Y-62154248D01*
X117579517Y-61934941D01*
X117609464Y-61910364D01*
X117644714Y-61867413D01*
X117658150Y-61851041D01*
X117707562Y-61790833D01*
X117780454Y-61654460D01*
X117780454Y-61654459D01*
X117825342Y-61506487D01*
X117833716Y-61421454D01*
X117836700Y-61391161D01*
X117836700Y-61391156D01*
X117840497Y-61352600D01*
X117836700Y-61314045D01*
X117836700Y-60813072D01*
X118475000Y-60813072D01*
X118599482Y-60800812D01*
X118719180Y-60764502D01*
X118829494Y-60705537D01*
X118922479Y-60629226D01*
X118979187Y-60623641D01*
X119127160Y-60578754D01*
X119263533Y-60505862D01*
X119383064Y-60407764D01*
X119407647Y-60377809D01*
X119525157Y-60260300D01*
X120524844Y-60260300D01*
X120642349Y-60377805D01*
X120666936Y-60407764D01*
X120786467Y-60505862D01*
X120898902Y-60565959D01*
X120922840Y-60578754D01*
X121070813Y-60623642D01*
X121127521Y-60629227D01*
X121220506Y-60705537D01*
X121330820Y-60764502D01*
X121450518Y-60800812D01*
X121575000Y-60813072D01*
X122625000Y-60813072D01*
X122749482Y-60800812D01*
X122869180Y-60764502D01*
X122979494Y-60705537D01*
X123076185Y-60626185D01*
X123155537Y-60529494D01*
X123214502Y-60419180D01*
X123250812Y-60299482D01*
X123263072Y-60175000D01*
X123263072Y-59525000D01*
X123250812Y-59400518D01*
X123214502Y-59280820D01*
X123155537Y-59170506D01*
X123076185Y-59073815D01*
X122979494Y-58994463D01*
X122869180Y-58935498D01*
X122749482Y-58899188D01*
X122625000Y-58886928D01*
X121575000Y-58886928D01*
X121450518Y-58899188D01*
X121402979Y-58913609D01*
X121288233Y-58819438D01*
X121151860Y-58746546D01*
X121003887Y-58701659D01*
X120888561Y-58690300D01*
X120888553Y-58690300D01*
X120850000Y-58686503D01*
X120811447Y-58690300D01*
X119985000Y-58690300D01*
X119985000Y-58329711D01*
X120034226Y-58378937D01*
X120203744Y-58492205D01*
X120392102Y-58570226D01*
X120592061Y-58610000D01*
X120795939Y-58610000D01*
X120995898Y-58570226D01*
X121157061Y-58503469D01*
X121220506Y-58555537D01*
X121330820Y-58614502D01*
X121450518Y-58650812D01*
X121575000Y-58663072D01*
X121814250Y-58660000D01*
X121973000Y-58501250D01*
X121973000Y-57827000D01*
X122227000Y-57827000D01*
X122227000Y-58501250D01*
X122385750Y-58660000D01*
X122625000Y-58663072D01*
X122749482Y-58650812D01*
X122869180Y-58614502D01*
X122979494Y-58555537D01*
X123076185Y-58476185D01*
X123155537Y-58379494D01*
X123214502Y-58269180D01*
X123250812Y-58149482D01*
X123263072Y-58025000D01*
X123260000Y-57985750D01*
X123101250Y-57827000D01*
X122227000Y-57827000D01*
X121973000Y-57827000D01*
X121953000Y-57827000D01*
X121953000Y-57573000D01*
X121973000Y-57573000D01*
X121973000Y-57553000D01*
X122227000Y-57553000D01*
X122227000Y-57573000D01*
X123101250Y-57573000D01*
X123260000Y-57414250D01*
X123263072Y-57375000D01*
X123250812Y-57250518D01*
X123214502Y-57130820D01*
X123155537Y-57020506D01*
X123076185Y-56923815D01*
X122979494Y-56844463D01*
X122869180Y-56785498D01*
X122867538Y-56785000D01*
X123663658Y-56785000D01*
X123663658Y-57739750D01*
X123663658Y-57739750D01*
G37*
X123663658Y-57739750D02*
X123675918Y-57864232D01*
X123712228Y-57983930D01*
X123771193Y-58094244D01*
X123832397Y-58168821D01*
X123769463Y-58245506D01*
X123710498Y-58355820D01*
X123674188Y-58475518D01*
X123661928Y-58600000D01*
X123661928Y-59600000D01*
X123674188Y-59724482D01*
X123710498Y-59844180D01*
X123769463Y-59954494D01*
X123848815Y-60051185D01*
X123945506Y-60130537D01*
X124055820Y-60189502D01*
X124175518Y-60225812D01*
X124300000Y-60238072D01*
X125400000Y-60238072D01*
X125524482Y-60225812D01*
X125644180Y-60189502D01*
X125700000Y-60159665D01*
X125755820Y-60189502D01*
X125875518Y-60225812D01*
X126000000Y-60238072D01*
X126264250Y-60235000D01*
X126423000Y-60076250D01*
X126423000Y-59227000D01*
X126403000Y-59227000D01*
X126403000Y-58973000D01*
X126423000Y-58973000D01*
X126423000Y-58953000D01*
X126677000Y-58953000D01*
X126677000Y-58973000D01*
X126697000Y-58973000D01*
X126697000Y-59227000D01*
X126677000Y-59227000D01*
X126677000Y-60076250D01*
X126835750Y-60235000D01*
X127075401Y-60237786D01*
X127075400Y-61014442D01*
X127074193Y-61015650D01*
X126973860Y-60985214D01*
X126700000Y-60958241D01*
X126426141Y-60985214D01*
X126162806Y-61065096D01*
X125920114Y-61194817D01*
X125707393Y-61369392D01*
X125700000Y-61378400D01*
X125692608Y-61369392D01*
X125479887Y-61194817D01*
X125237195Y-61065096D01*
X124973860Y-60985214D01*
X124700000Y-60958241D01*
X124426141Y-60985214D01*
X124162806Y-61065096D01*
X123920114Y-61194817D01*
X123707393Y-61369392D01*
X123694039Y-61385663D01*
X123530330Y-61237865D01*
X123295068Y-61097476D01*
X123043070Y-61007780D01*
X122827000Y-61130280D01*
X122827000Y-62373000D01*
X122847000Y-62373000D01*
X122847000Y-62627000D01*
X122827000Y-62627000D01*
X122827000Y-62647000D01*
X122573000Y-62647000D01*
X122573000Y-62627000D01*
X121461251Y-62627000D01*
X121317986Y-62845752D01*
X121385071Y-63111378D01*
X121469978Y-63290000D01*
X115972490Y-63290000D01*
X116054608Y-63222608D01*
X116226053Y-63013701D01*
X116328187Y-63003641D01*
X116476160Y-62958754D01*
X116612533Y-62885862D01*
X116732064Y-62787764D01*
X116756647Y-62757810D01*
X117360209Y-62154248D01*
X121317986Y-62154248D01*
X121461251Y-62373000D01*
X122573000Y-62373000D01*
X122573000Y-61130280D01*
X122356930Y-61007780D01*
X122104932Y-61097476D01*
X121869670Y-61237865D01*
X121666317Y-61421454D01*
X121502688Y-61641188D01*
X121385071Y-61888622D01*
X121317986Y-62154248D01*
X117360209Y-62154248D01*
X117579517Y-61934941D01*
X117609464Y-61910364D01*
X117644714Y-61867413D01*
X117658150Y-61851041D01*
X117707562Y-61790833D01*
X117780454Y-61654460D01*
X117780454Y-61654459D01*
X117825342Y-61506487D01*
X117833716Y-61421454D01*
X117836700Y-61391161D01*
X117836700Y-61391156D01*
X117840497Y-61352600D01*
X117836700Y-61314045D01*
X117836700Y-60813072D01*
X118475000Y-60813072D01*
X118599482Y-60800812D01*
X118719180Y-60764502D01*
X118829494Y-60705537D01*
X118922479Y-60629226D01*
X118979187Y-60623641D01*
X119127160Y-60578754D01*
X119263533Y-60505862D01*
X119383064Y-60407764D01*
X119407647Y-60377809D01*
X119525157Y-60260300D01*
X120524844Y-60260300D01*
X120642349Y-60377805D01*
X120666936Y-60407764D01*
X120786467Y-60505862D01*
X120898902Y-60565959D01*
X120922840Y-60578754D01*
X121070813Y-60623642D01*
X121127521Y-60629227D01*
X121220506Y-60705537D01*
X121330820Y-60764502D01*
X121450518Y-60800812D01*
X121575000Y-60813072D01*
X122625000Y-60813072D01*
X122749482Y-60800812D01*
X122869180Y-60764502D01*
X122979494Y-60705537D01*
X123076185Y-60626185D01*
X123155537Y-60529494D01*
X123214502Y-60419180D01*
X123250812Y-60299482D01*
X123263072Y-60175000D01*
X123263072Y-59525000D01*
X123250812Y-59400518D01*
X123214502Y-59280820D01*
X123155537Y-59170506D01*
X123076185Y-59073815D01*
X122979494Y-58994463D01*
X122869180Y-58935498D01*
X122749482Y-58899188D01*
X122625000Y-58886928D01*
X121575000Y-58886928D01*
X121450518Y-58899188D01*
X121402979Y-58913609D01*
X121288233Y-58819438D01*
X121151860Y-58746546D01*
X121003887Y-58701659D01*
X120888561Y-58690300D01*
X120888553Y-58690300D01*
X120850000Y-58686503D01*
X120811447Y-58690300D01*
X119985000Y-58690300D01*
X119985000Y-58329711D01*
X120034226Y-58378937D01*
X120203744Y-58492205D01*
X120392102Y-58570226D01*
X120592061Y-58610000D01*
X120795939Y-58610000D01*
X120995898Y-58570226D01*
X121157061Y-58503469D01*
X121220506Y-58555537D01*
X121330820Y-58614502D01*
X121450518Y-58650812D01*
X121575000Y-58663072D01*
X121814250Y-58660000D01*
X121973000Y-58501250D01*
X121973000Y-57827000D01*
X122227000Y-57827000D01*
X122227000Y-58501250D01*
X122385750Y-58660000D01*
X122625000Y-58663072D01*
X122749482Y-58650812D01*
X122869180Y-58614502D01*
X122979494Y-58555537D01*
X123076185Y-58476185D01*
X123155537Y-58379494D01*
X123214502Y-58269180D01*
X123250812Y-58149482D01*
X123263072Y-58025000D01*
X123260000Y-57985750D01*
X123101250Y-57827000D01*
X122227000Y-57827000D01*
X121973000Y-57827000D01*
X121953000Y-57827000D01*
X121953000Y-57573000D01*
X121973000Y-57573000D01*
X121973000Y-57553000D01*
X122227000Y-57553000D01*
X122227000Y-57573000D01*
X123101250Y-57573000D01*
X123260000Y-57414250D01*
X123263072Y-57375000D01*
X123250812Y-57250518D01*
X123214502Y-57130820D01*
X123155537Y-57020506D01*
X123076185Y-56923815D01*
X122979494Y-56844463D01*
X122869180Y-56785498D01*
X122867538Y-56785000D01*
X123663658Y-56785000D01*
X123663658Y-57739750D01*
G36*
X129161928Y-55400000D02*
G01*
X129161928Y-56400000D01*
X129174188Y-56524482D01*
X129210498Y-56644180D01*
X129252671Y-56723079D01*
X129177000Y-56798750D01*
X129177000Y-57473000D01*
X130036814Y-57473000D01*
X130048140Y-57479054D01*
X130196113Y-57523941D01*
X130311439Y-57535300D01*
X130311440Y-57535300D01*
X130350000Y-57539098D01*
X130388561Y-57535300D01*
X133290301Y-57535300D01*
X133290300Y-58786928D01*
X132675000Y-58786928D01*
X132550518Y-58799188D01*
X132430820Y-58835498D01*
X132320506Y-58894463D01*
X132234556Y-58965000D01*
X130015444Y-58965000D01*
X129929494Y-58894463D01*
X129819180Y-58835498D01*
X129699482Y-58799188D01*
X129575000Y-58786928D01*
X128609239Y-58786928D01*
X128520174Y-58697863D01*
X128350656Y-58584595D01*
X128162298Y-58506574D01*
X127962339Y-58466800D01*
X127758461Y-58466800D01*
X127725176Y-58473421D01*
X127689502Y-58355820D01*
X127630537Y-58245506D01*
X127567603Y-58168821D01*
X127628807Y-58094244D01*
X127687772Y-57983930D01*
X127705648Y-57925000D01*
X127886928Y-57925000D01*
X127899188Y-58049482D01*
X127935498Y-58169180D01*
X127994463Y-58279494D01*
X128073815Y-58376185D01*
X128170506Y-58455537D01*
X128280820Y-58514502D01*
X128400518Y-58550812D01*
X128525000Y-58563072D01*
X128764250Y-58560000D01*
X128923000Y-58401250D01*
X128923000Y-57727000D01*
X129177000Y-57727000D01*
X129177000Y-58401250D01*
X129335750Y-58560000D01*
X129575000Y-58563072D01*
X129699482Y-58550812D01*
X129819180Y-58514502D01*
X129929494Y-58455537D01*
X130026185Y-58376185D01*
X130105537Y-58279494D01*
X130164502Y-58169180D01*
X130200812Y-58049482D01*
X130213072Y-57925000D01*
X132036928Y-57925000D01*
X132049188Y-58049482D01*
X132085498Y-58169180D01*
X132144463Y-58279494D01*
X132223815Y-58376185D01*
X132320506Y-58455537D01*
X132430820Y-58514502D01*
X132550518Y-58550812D01*
X132675000Y-58563072D01*
X132914250Y-58560000D01*
X133073000Y-58401250D01*
X133073000Y-57727000D01*
X132198750Y-57727000D01*
X132040000Y-57885750D01*
X132036928Y-57925000D01*
X130213072Y-57925000D01*
X130210000Y-57885750D01*
X130051250Y-57727000D01*
X129177000Y-57727000D01*
X128923000Y-57727000D01*
X128048750Y-57727000D01*
X127890000Y-57885750D01*
X127886928Y-57925000D01*
X127705648Y-57925000D01*
X127724082Y-57864232D01*
X127736342Y-57739750D01*
X127736342Y-57275000D01*
X127886928Y-57275000D01*
X127890000Y-57314250D01*
X128048750Y-57473000D01*
X128923000Y-57473000D01*
X128923000Y-56798750D01*
X128764250Y-56640000D01*
X128525000Y-56636928D01*
X128400518Y-56649188D01*
X128280820Y-56685498D01*
X128170506Y-56744463D01*
X128073815Y-56823815D01*
X127994463Y-56920506D01*
X127935498Y-57030820D01*
X127899188Y-57150518D01*
X127886928Y-57275000D01*
X127736342Y-57275000D01*
X127736342Y-56660250D01*
X127724082Y-56535768D01*
X127687772Y-56416070D01*
X127628807Y-56305756D01*
X127549455Y-56209065D01*
X127452764Y-56129713D01*
X127342450Y-56070748D01*
X127222752Y-56034438D01*
X127098270Y-56022178D01*
X126506135Y-56022178D01*
X126127357Y-55643400D01*
X128529247Y-55643400D01*
X128567800Y-55647197D01*
X128606353Y-55643400D01*
X128606361Y-55643400D01*
X128721687Y-55632041D01*
X128869660Y-55587154D01*
X129006033Y-55514262D01*
X129125564Y-55416164D01*
X129150147Y-55386210D01*
X129164722Y-55371636D01*
X129161928Y-55400000D01*
X129161928Y-55400000D01*
G37*
X129161928Y-55400000D02*
X129161928Y-56400000D01*
X129174188Y-56524482D01*
X129210498Y-56644180D01*
X129252671Y-56723079D01*
X129177000Y-56798750D01*
X129177000Y-57473000D01*
X130036814Y-57473000D01*
X130048140Y-57479054D01*
X130196113Y-57523941D01*
X130311439Y-57535300D01*
X130311440Y-57535300D01*
X130350000Y-57539098D01*
X130388561Y-57535300D01*
X133290301Y-57535300D01*
X133290300Y-58786928D01*
X132675000Y-58786928D01*
X132550518Y-58799188D01*
X132430820Y-58835498D01*
X132320506Y-58894463D01*
X132234556Y-58965000D01*
X130015444Y-58965000D01*
X129929494Y-58894463D01*
X129819180Y-58835498D01*
X129699482Y-58799188D01*
X129575000Y-58786928D01*
X128609239Y-58786928D01*
X128520174Y-58697863D01*
X128350656Y-58584595D01*
X128162298Y-58506574D01*
X127962339Y-58466800D01*
X127758461Y-58466800D01*
X127725176Y-58473421D01*
X127689502Y-58355820D01*
X127630537Y-58245506D01*
X127567603Y-58168821D01*
X127628807Y-58094244D01*
X127687772Y-57983930D01*
X127705648Y-57925000D01*
X127886928Y-57925000D01*
X127899188Y-58049482D01*
X127935498Y-58169180D01*
X127994463Y-58279494D01*
X128073815Y-58376185D01*
X128170506Y-58455537D01*
X128280820Y-58514502D01*
X128400518Y-58550812D01*
X128525000Y-58563072D01*
X128764250Y-58560000D01*
X128923000Y-58401250D01*
X128923000Y-57727000D01*
X129177000Y-57727000D01*
X129177000Y-58401250D01*
X129335750Y-58560000D01*
X129575000Y-58563072D01*
X129699482Y-58550812D01*
X129819180Y-58514502D01*
X129929494Y-58455537D01*
X130026185Y-58376185D01*
X130105537Y-58279494D01*
X130164502Y-58169180D01*
X130200812Y-58049482D01*
X130213072Y-57925000D01*
X132036928Y-57925000D01*
X132049188Y-58049482D01*
X132085498Y-58169180D01*
X132144463Y-58279494D01*
X132223815Y-58376185D01*
X132320506Y-58455537D01*
X132430820Y-58514502D01*
X132550518Y-58550812D01*
X132675000Y-58563072D01*
X132914250Y-58560000D01*
X133073000Y-58401250D01*
X133073000Y-57727000D01*
X132198750Y-57727000D01*
X132040000Y-57885750D01*
X132036928Y-57925000D01*
X130213072Y-57925000D01*
X130210000Y-57885750D01*
X130051250Y-57727000D01*
X129177000Y-57727000D01*
X128923000Y-57727000D01*
X128048750Y-57727000D01*
X127890000Y-57885750D01*
X127886928Y-57925000D01*
X127705648Y-57925000D01*
X127724082Y-57864232D01*
X127736342Y-57739750D01*
X127736342Y-57275000D01*
X127886928Y-57275000D01*
X127890000Y-57314250D01*
X128048750Y-57473000D01*
X128923000Y-57473000D01*
X128923000Y-56798750D01*
X128764250Y-56640000D01*
X128525000Y-56636928D01*
X128400518Y-56649188D01*
X128280820Y-56685498D01*
X128170506Y-56744463D01*
X128073815Y-56823815D01*
X127994463Y-56920506D01*
X127935498Y-57030820D01*
X127899188Y-57150518D01*
X127886928Y-57275000D01*
X127736342Y-57275000D01*
X127736342Y-56660250D01*
X127724082Y-56535768D01*
X127687772Y-56416070D01*
X127628807Y-56305756D01*
X127549455Y-56209065D01*
X127452764Y-56129713D01*
X127342450Y-56070748D01*
X127222752Y-56034438D01*
X127098270Y-56022178D01*
X126506135Y-56022178D01*
X126127357Y-55643400D01*
X128529247Y-55643400D01*
X128567800Y-55647197D01*
X128606353Y-55643400D01*
X128606361Y-55643400D01*
X128721687Y-55632041D01*
X128869660Y-55587154D01*
X129006033Y-55514262D01*
X129125564Y-55416164D01*
X129150147Y-55386210D01*
X129164722Y-55371636D01*
X129161928Y-55400000D01*
G36*
X118011928Y-56500000D02*
G01*
X118024188Y-56624482D01*
X118060498Y-56744180D01*
X118119463Y-56854494D01*
X118120271Y-56855479D01*
X118077000Y-56898750D01*
X118077000Y-57573000D01*
X118097000Y-57573000D01*
X118097000Y-57827000D01*
X118077000Y-57827000D01*
X118077000Y-58501250D01*
X118235750Y-58660000D01*
X118415001Y-58662302D01*
X118415001Y-58886928D01*
X117836700Y-58886928D01*
X117836700Y-55892957D01*
X118011928Y-55717728D01*
X118011928Y-56500000D01*
X118011928Y-56500000D01*
G37*
X118011928Y-56500000D02*
X118024188Y-56624482D01*
X118060498Y-56744180D01*
X118119463Y-56854494D01*
X118120271Y-56855479D01*
X118077000Y-56898750D01*
X118077000Y-57573000D01*
X118097000Y-57573000D01*
X118097000Y-57827000D01*
X118077000Y-57827000D01*
X118077000Y-58501250D01*
X118235750Y-58660000D01*
X118415001Y-58662302D01*
X118415001Y-58886928D01*
X117836700Y-58886928D01*
X117836700Y-55892957D01*
X118011928Y-55717728D01*
X118011928Y-56500000D01*
G36*
X134500700Y-46835657D02*
G01*
X134500700Y-46951439D01*
X134496902Y-46990000D01*
X134500700Y-47028560D01*
X134500701Y-54835142D01*
X133370543Y-55965300D01*
X133238072Y-55965300D01*
X133238072Y-55400000D01*
X133225812Y-55275518D01*
X133189502Y-55155820D01*
X133142315Y-55067542D01*
X133578111Y-54631746D01*
X133608064Y-54607164D01*
X133706162Y-54487633D01*
X133779054Y-54351260D01*
X133788250Y-54320946D01*
X133823942Y-54203287D01*
X133833364Y-54107614D01*
X133835300Y-54087961D01*
X133835300Y-54087956D01*
X133839097Y-54049400D01*
X133835300Y-54010844D01*
X133835300Y-46553332D01*
X133997674Y-46444837D01*
X134053777Y-46388734D01*
X134500700Y-46835657D01*
X134500700Y-46835657D01*
G37*
X134500700Y-46835657D02*
X134500700Y-46951439D01*
X134496902Y-46990000D01*
X134500700Y-47028560D01*
X134500701Y-54835142D01*
X133370543Y-55965300D01*
X133238072Y-55965300D01*
X133238072Y-55400000D01*
X133225812Y-55275518D01*
X133189502Y-55155820D01*
X133142315Y-55067542D01*
X133578111Y-54631746D01*
X133608064Y-54607164D01*
X133706162Y-54487633D01*
X133779054Y-54351260D01*
X133788250Y-54320946D01*
X133823942Y-54203287D01*
X133833364Y-54107614D01*
X133835300Y-54087961D01*
X133835300Y-54087956D01*
X133839097Y-54049400D01*
X133835300Y-54010844D01*
X133835300Y-46553332D01*
X133997674Y-46444837D01*
X134053777Y-46388734D01*
X134500700Y-46835657D01*
G36*
X118379976Y-49802895D02*
G01*
X118439159Y-49997993D01*
X118535266Y-50177797D01*
X118553488Y-50200000D01*
X118535266Y-50222203D01*
X118439159Y-50402007D01*
X118379976Y-50597105D01*
X118359993Y-50800000D01*
X118379976Y-51002895D01*
X118439159Y-51197993D01*
X118535266Y-51377797D01*
X118553488Y-51400000D01*
X118535266Y-51422203D01*
X118439159Y-51602007D01*
X118379976Y-51797105D01*
X118359993Y-52000000D01*
X118379976Y-52202895D01*
X118439159Y-52397993D01*
X118535266Y-52577797D01*
X118552466Y-52598755D01*
X118468872Y-52730582D01*
X118405334Y-52913877D01*
X118533002Y-53073000D01*
X120073000Y-53073000D01*
X120073000Y-53053000D01*
X120327000Y-53053000D01*
X120327000Y-53073000D01*
X120347000Y-53073000D01*
X120347000Y-53327000D01*
X120327000Y-53327000D01*
X120327000Y-53347000D01*
X120073000Y-53347000D01*
X120073000Y-53327000D01*
X118533002Y-53327000D01*
X118405334Y-53486123D01*
X118468872Y-53669418D01*
X118578342Y-53842052D01*
X118719388Y-53990013D01*
X118886590Y-54107614D01*
X119073522Y-54190336D01*
X119075195Y-54190711D01*
X119053067Y-54202538D01*
X118933536Y-54300636D01*
X118908955Y-54330588D01*
X118672185Y-54567358D01*
X118642237Y-54591936D01*
X118617659Y-54621884D01*
X118617655Y-54621888D01*
X118595766Y-54648560D01*
X118544139Y-54711467D01*
X118508041Y-54779002D01*
X118471246Y-54847841D01*
X118456944Y-54894990D01*
X118405820Y-54910498D01*
X118336900Y-54947337D01*
X118336900Y-49822957D01*
X118377913Y-49781944D01*
X118379976Y-49802895D01*
X118379976Y-49802895D01*
G37*
X118379976Y-49802895D02*
X118439159Y-49997993D01*
X118535266Y-50177797D01*
X118553488Y-50200000D01*
X118535266Y-50222203D01*
X118439159Y-50402007D01*
X118379976Y-50597105D01*
X118359993Y-50800000D01*
X118379976Y-51002895D01*
X118439159Y-51197993D01*
X118535266Y-51377797D01*
X118553488Y-51400000D01*
X118535266Y-51422203D01*
X118439159Y-51602007D01*
X118379976Y-51797105D01*
X118359993Y-52000000D01*
X118379976Y-52202895D01*
X118439159Y-52397993D01*
X118535266Y-52577797D01*
X118552466Y-52598755D01*
X118468872Y-52730582D01*
X118405334Y-52913877D01*
X118533002Y-53073000D01*
X120073000Y-53073000D01*
X120073000Y-53053000D01*
X120327000Y-53053000D01*
X120327000Y-53073000D01*
X120347000Y-53073000D01*
X120347000Y-53327000D01*
X120327000Y-53327000D01*
X120327000Y-53347000D01*
X120073000Y-53347000D01*
X120073000Y-53327000D01*
X118533002Y-53327000D01*
X118405334Y-53486123D01*
X118468872Y-53669418D01*
X118578342Y-53842052D01*
X118719388Y-53990013D01*
X118886590Y-54107614D01*
X119073522Y-54190336D01*
X119075195Y-54190711D01*
X119053067Y-54202538D01*
X118933536Y-54300636D01*
X118908955Y-54330588D01*
X118672185Y-54567358D01*
X118642237Y-54591936D01*
X118617659Y-54621884D01*
X118617655Y-54621888D01*
X118595766Y-54648560D01*
X118544139Y-54711467D01*
X118508041Y-54779002D01*
X118471246Y-54847841D01*
X118456944Y-54894990D01*
X118405820Y-54910498D01*
X118336900Y-54947337D01*
X118336900Y-49822957D01*
X118377913Y-49781944D01*
X118379976Y-49802895D01*
G36*
X131627000Y-53073000D02*
G01*
X131647000Y-53073000D01*
X131647000Y-53327000D01*
X131627000Y-53327000D01*
X131627000Y-54235000D01*
X131754543Y-54235000D01*
X131522185Y-54467358D01*
X131492237Y-54491936D01*
X131467659Y-54521884D01*
X131467655Y-54521888D01*
X131457745Y-54533964D01*
X131394139Y-54611467D01*
X131388569Y-54621888D01*
X131321246Y-54747841D01*
X131306944Y-54794990D01*
X131255820Y-54810498D01*
X131200000Y-54840335D01*
X131144180Y-54810498D01*
X131024482Y-54774188D01*
X130900000Y-54761928D01*
X130245690Y-54761928D01*
X130314734Y-54677797D01*
X130410841Y-54497993D01*
X130470024Y-54302895D01*
X130478789Y-54213906D01*
X130573000Y-54235000D01*
X131373000Y-54235000D01*
X131373000Y-53327000D01*
X131353000Y-53327000D01*
X131353000Y-53073000D01*
X131373000Y-53073000D01*
X131373000Y-53053000D01*
X131627000Y-53053000D01*
X131627000Y-53073000D01*
X131627000Y-53073000D01*
G37*
X131627000Y-53073000D02*
X131647000Y-53073000D01*
X131647000Y-53327000D01*
X131627000Y-53327000D01*
X131627000Y-54235000D01*
X131754543Y-54235000D01*
X131522185Y-54467358D01*
X131492237Y-54491936D01*
X131467659Y-54521884D01*
X131467655Y-54521888D01*
X131457745Y-54533964D01*
X131394139Y-54611467D01*
X131388569Y-54621888D01*
X131321246Y-54747841D01*
X131306944Y-54794990D01*
X131255820Y-54810498D01*
X131200000Y-54840335D01*
X131144180Y-54810498D01*
X131024482Y-54774188D01*
X130900000Y-54761928D01*
X130245690Y-54761928D01*
X130314734Y-54677797D01*
X130410841Y-54497993D01*
X130470024Y-54302895D01*
X130478789Y-54213906D01*
X130573000Y-54235000D01*
X131373000Y-54235000D01*
X131373000Y-53327000D01*
X131353000Y-53327000D01*
X131353000Y-53073000D01*
X131373000Y-53073000D01*
X131373000Y-53053000D01*
X131627000Y-53053000D01*
X131627000Y-53073000D01*
G36*
X129679976Y-46202895D02*
G01*
X129739159Y-46397993D01*
X129835266Y-46577797D01*
X129853488Y-46600000D01*
X129835266Y-46622203D01*
X129739159Y-46802007D01*
X129679976Y-46997105D01*
X129659993Y-47200000D01*
X129679976Y-47402895D01*
X129739159Y-47597993D01*
X129835266Y-47777797D01*
X129853488Y-47800000D01*
X129835266Y-47822203D01*
X129739159Y-48002007D01*
X129679976Y-48197105D01*
X129659993Y-48400000D01*
X129679976Y-48602895D01*
X129739159Y-48797993D01*
X129835266Y-48977797D01*
X129853488Y-49000000D01*
X129835266Y-49022203D01*
X129739159Y-49202007D01*
X129679976Y-49397105D01*
X129659993Y-49600000D01*
X129679976Y-49802895D01*
X129739159Y-49997993D01*
X129835266Y-50177797D01*
X129853488Y-50200000D01*
X129835266Y-50222203D01*
X129785157Y-50315950D01*
X129751898Y-50302174D01*
X129551939Y-50262400D01*
X129348061Y-50262400D01*
X129148102Y-50302174D01*
X128959744Y-50380195D01*
X128790226Y-50493463D01*
X128646063Y-50637626D01*
X128532795Y-50807144D01*
X128454774Y-50995502D01*
X128415000Y-51195461D01*
X128415000Y-51399339D01*
X128430603Y-51477781D01*
X128250000Y-51459993D01*
X128047105Y-51479976D01*
X127852007Y-51539159D01*
X127672203Y-51635266D01*
X127650000Y-51653488D01*
X127627797Y-51635266D01*
X127447992Y-51539159D01*
X127252894Y-51479976D01*
X127062100Y-51461185D01*
X127062100Y-51380061D01*
X127022326Y-51180102D01*
X126944305Y-50991744D01*
X126831037Y-50822226D01*
X126686874Y-50678063D01*
X126517356Y-50564795D01*
X126328998Y-50486774D01*
X126129039Y-50447000D01*
X125925161Y-50447000D01*
X125725202Y-50486774D01*
X125536844Y-50564795D01*
X125426229Y-50638705D01*
X125341656Y-50582195D01*
X125153298Y-50504174D01*
X124953339Y-50464400D01*
X124749461Y-50464400D01*
X124549502Y-50504174D01*
X124361144Y-50582195D01*
X124311034Y-50615677D01*
X124224856Y-50558095D01*
X124036498Y-50480074D01*
X123836539Y-50440300D01*
X123632661Y-50440300D01*
X123432702Y-50480074D01*
X123244344Y-50558095D01*
X123210479Y-50580723D01*
X123136356Y-50531195D01*
X122947998Y-50453174D01*
X122934044Y-50450398D01*
X122963405Y-50406456D01*
X123041426Y-50218098D01*
X123081200Y-50018139D01*
X123081200Y-49814261D01*
X123041426Y-49614302D01*
X122963405Y-49425944D01*
X122850137Y-49256426D01*
X122705974Y-49112263D01*
X122536456Y-48998995D01*
X122348098Y-48920974D01*
X122148139Y-48881200D01*
X122070783Y-48881200D01*
X122052160Y-48871246D01*
X121939890Y-48837189D01*
X121960841Y-48797993D01*
X122020024Y-48602895D01*
X122034669Y-48454200D01*
X122124339Y-48454200D01*
X122324298Y-48414426D01*
X122512656Y-48336405D01*
X122682174Y-48223137D01*
X122826337Y-48078974D01*
X122939605Y-47909456D01*
X123017626Y-47721098D01*
X123057400Y-47521139D01*
X123057400Y-47317261D01*
X123017626Y-47117302D01*
X122939605Y-46928944D01*
X122826337Y-46759426D01*
X122682174Y-46615263D01*
X122535300Y-46517125D01*
X122535300Y-46127000D01*
X129672501Y-46127000D01*
X129679976Y-46202895D01*
X129679976Y-46202895D01*
G37*
X129679976Y-46202895D02*
X129739159Y-46397993D01*
X129835266Y-46577797D01*
X129853488Y-46600000D01*
X129835266Y-46622203D01*
X129739159Y-46802007D01*
X129679976Y-46997105D01*
X129659993Y-47200000D01*
X129679976Y-47402895D01*
X129739159Y-47597993D01*
X129835266Y-47777797D01*
X129853488Y-47800000D01*
X129835266Y-47822203D01*
X129739159Y-48002007D01*
X129679976Y-48197105D01*
X129659993Y-48400000D01*
X129679976Y-48602895D01*
X129739159Y-48797993D01*
X129835266Y-48977797D01*
X129853488Y-49000000D01*
X129835266Y-49022203D01*
X129739159Y-49202007D01*
X129679976Y-49397105D01*
X129659993Y-49600000D01*
X129679976Y-49802895D01*
X129739159Y-49997993D01*
X129835266Y-50177797D01*
X129853488Y-50200000D01*
X129835266Y-50222203D01*
X129785157Y-50315950D01*
X129751898Y-50302174D01*
X129551939Y-50262400D01*
X129348061Y-50262400D01*
X129148102Y-50302174D01*
X128959744Y-50380195D01*
X128790226Y-50493463D01*
X128646063Y-50637626D01*
X128532795Y-50807144D01*
X128454774Y-50995502D01*
X128415000Y-51195461D01*
X128415000Y-51399339D01*
X128430603Y-51477781D01*
X128250000Y-51459993D01*
X128047105Y-51479976D01*
X127852007Y-51539159D01*
X127672203Y-51635266D01*
X127650000Y-51653488D01*
X127627797Y-51635266D01*
X127447992Y-51539159D01*
X127252894Y-51479976D01*
X127062100Y-51461185D01*
X127062100Y-51380061D01*
X127022326Y-51180102D01*
X126944305Y-50991744D01*
X126831037Y-50822226D01*
X126686874Y-50678063D01*
X126517356Y-50564795D01*
X126328998Y-50486774D01*
X126129039Y-50447000D01*
X125925161Y-50447000D01*
X125725202Y-50486774D01*
X125536844Y-50564795D01*
X125426229Y-50638705D01*
X125341656Y-50582195D01*
X125153298Y-50504174D01*
X124953339Y-50464400D01*
X124749461Y-50464400D01*
X124549502Y-50504174D01*
X124361144Y-50582195D01*
X124311034Y-50615677D01*
X124224856Y-50558095D01*
X124036498Y-50480074D01*
X123836539Y-50440300D01*
X123632661Y-50440300D01*
X123432702Y-50480074D01*
X123244344Y-50558095D01*
X123210479Y-50580723D01*
X123136356Y-50531195D01*
X122947998Y-50453174D01*
X122934044Y-50450398D01*
X122963405Y-50406456D01*
X123041426Y-50218098D01*
X123081200Y-50018139D01*
X123081200Y-49814261D01*
X123041426Y-49614302D01*
X122963405Y-49425944D01*
X122850137Y-49256426D01*
X122705974Y-49112263D01*
X122536456Y-48998995D01*
X122348098Y-48920974D01*
X122148139Y-48881200D01*
X122070783Y-48881200D01*
X122052160Y-48871246D01*
X121939890Y-48837189D01*
X121960841Y-48797993D01*
X122020024Y-48602895D01*
X122034669Y-48454200D01*
X122124339Y-48454200D01*
X122324298Y-48414426D01*
X122512656Y-48336405D01*
X122682174Y-48223137D01*
X122826337Y-48078974D01*
X122939605Y-47909456D01*
X123017626Y-47721098D01*
X123057400Y-47521139D01*
X123057400Y-47317261D01*
X123017626Y-47117302D01*
X122939605Y-46928944D01*
X122826337Y-46759426D01*
X122682174Y-46615263D01*
X122535300Y-46517125D01*
X122535300Y-46127000D01*
X129672501Y-46127000D01*
X129679976Y-46202895D01*
M02*
