G04 #@! TF.GenerationSoftware,KiCad,Pcbnew,(5.1.0)-1*
G04 #@! TF.CreationDate,2019-05-23T22:12:48+09:00*
G04 #@! TF.ProjectId,ble5,626c6535-2e6b-4696-9361-645f70636258,v1.4*
G04 #@! TF.SameCoordinates,Original*
G04 #@! TF.FileFunction,Soldermask,Top*
G04 #@! TF.FilePolarity,Negative*
%FSLAX46Y46*%
G04 Gerber Fmt 4.6, Leading zero omitted, Abs format (unit mm)*
G04 Created by KiCad (PCBNEW (5.1.0)-1) date 2019-05-23 22:12:48*
%MOMM*%
%LPD*%
G04 APERTURE LIST*
%ADD10C,0.050000*%
G04 APERTURE END LIST*
D10*
G36*
X128888583Y-61413919D02*
G01*
X129069925Y-61468929D01*
X129237043Y-61558256D01*
X129383528Y-61678472D01*
X129503744Y-61824957D01*
X129593071Y-61992076D01*
X129648081Y-62173418D01*
X129662000Y-62314744D01*
X129662000Y-62685257D01*
X129648081Y-62826583D01*
X129593071Y-63007925D01*
X129503744Y-63175043D01*
X129383528Y-63321528D01*
X129237043Y-63441744D01*
X129069924Y-63531071D01*
X128888582Y-63586081D01*
X128700000Y-63604654D01*
X128511417Y-63586081D01*
X128330075Y-63531071D01*
X128162957Y-63441744D01*
X128016472Y-63321528D01*
X127896256Y-63175043D01*
X127810239Y-63014117D01*
X127796626Y-62993742D01*
X127779299Y-62976415D01*
X127758924Y-62962802D01*
X127736285Y-62953424D01*
X127712252Y-62948644D01*
X127687748Y-62948644D01*
X127663715Y-62953424D01*
X127641076Y-62962802D01*
X127620701Y-62976415D01*
X127603374Y-62993742D01*
X127589761Y-63014117D01*
X127503744Y-63175043D01*
X127383528Y-63321528D01*
X127237043Y-63441744D01*
X127069924Y-63531071D01*
X126888582Y-63586081D01*
X126700000Y-63604654D01*
X126511417Y-63586081D01*
X126330075Y-63531071D01*
X126162957Y-63441744D01*
X126016472Y-63321528D01*
X125896256Y-63175043D01*
X125810239Y-63014117D01*
X125796626Y-62993742D01*
X125779299Y-62976415D01*
X125758924Y-62962802D01*
X125736285Y-62953424D01*
X125712252Y-62948644D01*
X125687748Y-62948644D01*
X125663715Y-62953424D01*
X125641076Y-62962802D01*
X125620701Y-62976415D01*
X125603374Y-62993742D01*
X125589761Y-63014117D01*
X125503744Y-63175043D01*
X125383528Y-63321528D01*
X125237043Y-63441744D01*
X125069924Y-63531071D01*
X124888582Y-63586081D01*
X124700000Y-63604654D01*
X124511417Y-63586081D01*
X124330075Y-63531071D01*
X124162957Y-63441744D01*
X124016472Y-63321528D01*
X123896256Y-63175043D01*
X123810239Y-63014117D01*
X123796626Y-62993742D01*
X123779299Y-62976415D01*
X123758924Y-62962802D01*
X123736285Y-62953424D01*
X123712252Y-62948644D01*
X123687748Y-62948644D01*
X123663715Y-62953424D01*
X123641076Y-62962802D01*
X123620701Y-62976415D01*
X123603374Y-62993742D01*
X123589761Y-63014117D01*
X123503744Y-63175043D01*
X123383528Y-63321528D01*
X123237043Y-63441744D01*
X123069924Y-63531071D01*
X122888582Y-63586081D01*
X122700000Y-63604654D01*
X122511417Y-63586081D01*
X122330075Y-63531071D01*
X122162957Y-63441744D01*
X122016472Y-63321528D01*
X121896256Y-63175043D01*
X121806929Y-63007924D01*
X121751919Y-62826582D01*
X121738000Y-62685256D01*
X121738000Y-62314743D01*
X121751919Y-62173417D01*
X121806929Y-61992075D01*
X121896256Y-61824957D01*
X121917814Y-61798689D01*
X122016473Y-61678472D01*
X122162957Y-61558257D01*
X122162956Y-61558257D01*
X122162958Y-61558256D01*
X122330076Y-61468929D01*
X122511418Y-61413919D01*
X122700000Y-61395346D01*
X122888583Y-61413919D01*
X123069925Y-61468929D01*
X123237043Y-61558256D01*
X123383528Y-61678472D01*
X123503744Y-61824957D01*
X123589761Y-61985883D01*
X123603374Y-62006258D01*
X123620701Y-62023585D01*
X123641076Y-62037198D01*
X123663715Y-62046576D01*
X123687748Y-62051356D01*
X123712252Y-62051356D01*
X123736285Y-62046576D01*
X123758924Y-62037198D01*
X123779299Y-62023585D01*
X123796626Y-62006258D01*
X123810239Y-61985883D01*
X123896256Y-61824957D01*
X123917814Y-61798689D01*
X124016473Y-61678472D01*
X124162957Y-61558257D01*
X124162956Y-61558257D01*
X124162958Y-61558256D01*
X124330076Y-61468929D01*
X124511418Y-61413919D01*
X124700000Y-61395346D01*
X124888583Y-61413919D01*
X125069925Y-61468929D01*
X125237043Y-61558256D01*
X125383528Y-61678472D01*
X125503744Y-61824957D01*
X125589761Y-61985883D01*
X125603374Y-62006258D01*
X125620701Y-62023585D01*
X125641076Y-62037198D01*
X125663715Y-62046576D01*
X125687748Y-62051356D01*
X125712252Y-62051356D01*
X125736285Y-62046576D01*
X125758924Y-62037198D01*
X125779299Y-62023585D01*
X125796626Y-62006258D01*
X125810239Y-61985883D01*
X125896256Y-61824957D01*
X125917814Y-61798689D01*
X126016473Y-61678472D01*
X126162957Y-61558257D01*
X126162956Y-61558257D01*
X126162958Y-61558256D01*
X126330076Y-61468929D01*
X126511418Y-61413919D01*
X126700000Y-61395346D01*
X126888583Y-61413919D01*
X127069925Y-61468929D01*
X127237043Y-61558256D01*
X127383528Y-61678472D01*
X127503744Y-61824957D01*
X127589761Y-61985883D01*
X127603374Y-62006258D01*
X127620701Y-62023585D01*
X127641076Y-62037198D01*
X127663715Y-62046576D01*
X127687748Y-62051356D01*
X127712252Y-62051356D01*
X127736285Y-62046576D01*
X127758924Y-62037198D01*
X127779299Y-62023585D01*
X127796626Y-62006258D01*
X127810239Y-61985883D01*
X127896256Y-61824957D01*
X127917814Y-61798689D01*
X128016473Y-61678472D01*
X128162957Y-61558257D01*
X128162956Y-61558257D01*
X128162958Y-61558256D01*
X128330076Y-61468929D01*
X128511418Y-61413919D01*
X128700000Y-61395346D01*
X128888583Y-61413919D01*
X128888583Y-61413919D01*
G37*
G36*
X138110583Y-61281919D02*
G01*
X138291925Y-61336929D01*
X138459043Y-61426256D01*
X138605528Y-61546472D01*
X138725744Y-61692957D01*
X138815071Y-61860075D01*
X138870081Y-62041417D01*
X138888654Y-62230000D01*
X138870081Y-62418583D01*
X138815071Y-62599925D01*
X138725744Y-62767043D01*
X138605528Y-62913528D01*
X138459043Y-63033744D01*
X138291925Y-63123071D01*
X138110583Y-63178081D01*
X137969257Y-63192000D01*
X136350743Y-63192000D01*
X136209417Y-63178081D01*
X136028075Y-63123071D01*
X135860957Y-63033744D01*
X135714472Y-62913528D01*
X135594256Y-62767043D01*
X135504929Y-62599925D01*
X135449919Y-62418583D01*
X135431346Y-62230000D01*
X135449919Y-62041417D01*
X135504929Y-61860075D01*
X135594256Y-61692957D01*
X135714472Y-61546472D01*
X135860957Y-61426256D01*
X136028075Y-61336929D01*
X136209417Y-61281919D01*
X136350743Y-61268000D01*
X137969257Y-61268000D01*
X138110583Y-61281919D01*
X138110583Y-61281919D01*
G37*
G36*
X115250583Y-61281919D02*
G01*
X115431925Y-61336929D01*
X115599043Y-61426256D01*
X115745528Y-61546472D01*
X115865744Y-61692957D01*
X115955071Y-61860075D01*
X116010081Y-62041417D01*
X116028654Y-62230000D01*
X116010081Y-62418583D01*
X115955071Y-62599925D01*
X115865744Y-62767043D01*
X115745528Y-62913528D01*
X115599043Y-63033744D01*
X115431925Y-63123071D01*
X115250583Y-63178081D01*
X115109257Y-63192000D01*
X113490743Y-63192000D01*
X113349417Y-63178081D01*
X113168075Y-63123071D01*
X113000957Y-63033744D01*
X112854472Y-62913528D01*
X112734256Y-62767043D01*
X112644929Y-62599925D01*
X112589919Y-62418583D01*
X112571346Y-62230000D01*
X112589919Y-62041417D01*
X112644929Y-61860075D01*
X112734256Y-61692957D01*
X112854472Y-61546472D01*
X113000957Y-61426256D01*
X113168075Y-61336929D01*
X113349417Y-61281919D01*
X113490743Y-61268000D01*
X115109257Y-61268000D01*
X115250583Y-61281919D01*
X115250583Y-61281919D01*
G37*
G36*
X138110583Y-58741919D02*
G01*
X138291925Y-58796929D01*
X138459043Y-58886256D01*
X138605528Y-59006472D01*
X138725744Y-59152957D01*
X138815071Y-59320075D01*
X138870081Y-59501417D01*
X138888654Y-59690000D01*
X138870081Y-59878583D01*
X138815071Y-60059925D01*
X138725744Y-60227043D01*
X138605528Y-60373528D01*
X138459043Y-60493744D01*
X138291925Y-60583071D01*
X138110583Y-60638081D01*
X137969257Y-60652000D01*
X136350743Y-60652000D01*
X136209417Y-60638081D01*
X136028075Y-60583071D01*
X135860957Y-60493744D01*
X135714472Y-60373528D01*
X135594256Y-60227043D01*
X135504929Y-60059925D01*
X135449919Y-59878583D01*
X135431346Y-59690000D01*
X135449919Y-59501417D01*
X135504929Y-59320075D01*
X135594256Y-59152957D01*
X135714472Y-59006472D01*
X135860957Y-58886256D01*
X136028075Y-58796929D01*
X136209417Y-58741919D01*
X136350743Y-58728000D01*
X137969257Y-58728000D01*
X138110583Y-58741919D01*
X138110583Y-58741919D01*
G37*
G36*
X115250583Y-58741919D02*
G01*
X115431925Y-58796929D01*
X115599043Y-58886256D01*
X115745528Y-59006472D01*
X115865744Y-59152957D01*
X115955071Y-59320075D01*
X116010081Y-59501417D01*
X116028654Y-59690000D01*
X116010081Y-59878583D01*
X115955071Y-60059925D01*
X115865744Y-60227043D01*
X115745528Y-60373528D01*
X115599043Y-60493744D01*
X115431925Y-60583071D01*
X115250583Y-60638081D01*
X115109257Y-60652000D01*
X113490743Y-60652000D01*
X113349417Y-60638081D01*
X113168075Y-60583071D01*
X113000957Y-60493744D01*
X112854472Y-60373528D01*
X112734256Y-60227043D01*
X112644929Y-60059925D01*
X112589919Y-59878583D01*
X112571346Y-59690000D01*
X112589919Y-59501417D01*
X112644929Y-59320075D01*
X112734256Y-59152957D01*
X112854472Y-59006472D01*
X113000957Y-58886256D01*
X113168075Y-58796929D01*
X113349417Y-58741919D01*
X113490743Y-58728000D01*
X115109257Y-58728000D01*
X115250583Y-58741919D01*
X115250583Y-58741919D01*
G37*
G36*
X122825000Y-60375000D02*
G01*
X121375000Y-60375000D01*
X121375000Y-59325000D01*
X122825000Y-59325000D01*
X122825000Y-60375000D01*
X122825000Y-60375000D01*
G37*
G36*
X118675000Y-60375000D02*
G01*
X117225000Y-60375000D01*
X117225000Y-59325000D01*
X118675000Y-59325000D01*
X118675000Y-60375000D01*
X118675000Y-60375000D01*
G37*
G36*
X133925000Y-60275000D02*
G01*
X132475000Y-60275000D01*
X132475000Y-59225000D01*
X133925000Y-59225000D01*
X133925000Y-60275000D01*
X133925000Y-60275000D01*
G37*
G36*
X129775000Y-60275000D02*
G01*
X128325000Y-60275000D01*
X128325000Y-59225000D01*
X129775000Y-59225000D01*
X129775000Y-60275000D01*
X129775000Y-60275000D01*
G37*
G36*
X127300000Y-59800000D02*
G01*
X124100000Y-59800000D01*
X124100000Y-58400000D01*
X127300000Y-58400000D01*
X127300000Y-59800000D01*
X127300000Y-59800000D01*
G37*
G36*
X118675000Y-58225000D02*
G01*
X117225000Y-58225000D01*
X117225000Y-57175000D01*
X118675000Y-57175000D01*
X118675000Y-58225000D01*
X118675000Y-58225000D01*
G37*
G36*
X122825000Y-58225000D02*
G01*
X121375000Y-58225000D01*
X121375000Y-57175000D01*
X122825000Y-57175000D01*
X122825000Y-58225000D01*
X122825000Y-58225000D01*
G37*
G36*
X133925000Y-58125000D02*
G01*
X132475000Y-58125000D01*
X132475000Y-57075000D01*
X133925000Y-57075000D01*
X133925000Y-58125000D01*
X133925000Y-58125000D01*
G37*
G36*
X129775000Y-58125000D02*
G01*
X128325000Y-58125000D01*
X128325000Y-57075000D01*
X129775000Y-57075000D01*
X129775000Y-58125000D01*
X129775000Y-58125000D01*
G37*
G36*
X138110583Y-56201919D02*
G01*
X138291925Y-56256929D01*
X138459043Y-56346256D01*
X138605528Y-56466472D01*
X138725744Y-56612957D01*
X138815071Y-56780075D01*
X138870081Y-56961417D01*
X138888654Y-57150000D01*
X138870081Y-57338583D01*
X138815071Y-57519925D01*
X138725744Y-57687043D01*
X138605528Y-57833528D01*
X138459043Y-57953744D01*
X138291925Y-58043071D01*
X138110583Y-58098081D01*
X137969257Y-58112000D01*
X136350743Y-58112000D01*
X136209417Y-58098081D01*
X136028075Y-58043071D01*
X135860957Y-57953744D01*
X135714472Y-57833528D01*
X135594256Y-57687043D01*
X135504929Y-57519925D01*
X135449919Y-57338583D01*
X135431346Y-57150000D01*
X135449919Y-56961417D01*
X135504929Y-56780075D01*
X135594256Y-56612957D01*
X135714472Y-56466472D01*
X135860957Y-56346256D01*
X136028075Y-56256929D01*
X136209417Y-56201919D01*
X136350743Y-56188000D01*
X137969257Y-56188000D01*
X138110583Y-56201919D01*
X138110583Y-56201919D01*
G37*
G36*
X115250583Y-56201919D02*
G01*
X115431925Y-56256929D01*
X115599043Y-56346256D01*
X115745528Y-56466472D01*
X115865744Y-56612957D01*
X115955071Y-56780075D01*
X116010081Y-56961417D01*
X116028654Y-57150000D01*
X116010081Y-57338583D01*
X115955071Y-57519925D01*
X115865744Y-57687043D01*
X115745528Y-57833528D01*
X115599043Y-57953744D01*
X115431925Y-58043071D01*
X115250583Y-58098081D01*
X115109257Y-58112000D01*
X113490743Y-58112000D01*
X113349417Y-58098081D01*
X113168075Y-58043071D01*
X113000957Y-57953744D01*
X112854472Y-57833528D01*
X112734256Y-57687043D01*
X112644929Y-57519925D01*
X112589919Y-57338583D01*
X112571346Y-57150000D01*
X112589919Y-56961417D01*
X112644929Y-56780075D01*
X112734256Y-56612957D01*
X112854472Y-56466472D01*
X113000957Y-56346256D01*
X113168075Y-56256929D01*
X113349417Y-56201919D01*
X113490743Y-56188000D01*
X115109257Y-56188000D01*
X115250583Y-56201919D01*
X115250583Y-56201919D01*
G37*
G36*
X127298270Y-57939750D02*
G01*
X125849250Y-57939750D01*
X125849250Y-56460250D01*
X127298270Y-56460250D01*
X127298270Y-57939750D01*
X127298270Y-57939750D01*
G37*
G36*
X125550750Y-57939750D02*
G01*
X124101730Y-57939750D01*
X124101730Y-56460250D01*
X125550750Y-56460250D01*
X125550750Y-57939750D01*
X125550750Y-57939750D01*
G37*
G36*
X121650000Y-56700000D02*
G01*
X118450000Y-56700000D01*
X118450000Y-55300000D01*
X121650000Y-55300000D01*
X121650000Y-56700000D01*
X121650000Y-56700000D01*
G37*
G36*
X132800000Y-56600000D02*
G01*
X129600000Y-56600000D01*
X129600000Y-55200000D01*
X132800000Y-55200000D01*
X132800000Y-56600000D01*
X132800000Y-56600000D01*
G37*
G36*
X138110583Y-53661919D02*
G01*
X138291925Y-53716929D01*
X138459043Y-53806256D01*
X138605528Y-53926472D01*
X138725744Y-54072957D01*
X138815071Y-54240075D01*
X138870081Y-54421417D01*
X138888654Y-54610000D01*
X138870081Y-54798583D01*
X138815071Y-54979925D01*
X138725744Y-55147043D01*
X138605528Y-55293528D01*
X138459043Y-55413744D01*
X138291925Y-55503071D01*
X138110583Y-55558081D01*
X137969257Y-55572000D01*
X136350743Y-55572000D01*
X136209417Y-55558081D01*
X136028075Y-55503071D01*
X135860957Y-55413744D01*
X135714472Y-55293528D01*
X135594256Y-55147043D01*
X135504929Y-54979925D01*
X135449919Y-54798583D01*
X135431346Y-54610000D01*
X135449919Y-54421417D01*
X135504929Y-54240075D01*
X135594256Y-54072957D01*
X135714472Y-53926472D01*
X135860957Y-53806256D01*
X136028075Y-53716929D01*
X136209417Y-53661919D01*
X136350743Y-53648000D01*
X137969257Y-53648000D01*
X138110583Y-53661919D01*
X138110583Y-53661919D01*
G37*
G36*
X115250583Y-53661919D02*
G01*
X115431925Y-53716929D01*
X115599043Y-53806256D01*
X115745528Y-53926472D01*
X115865744Y-54072957D01*
X115955071Y-54240075D01*
X116010081Y-54421417D01*
X116028654Y-54610000D01*
X116010081Y-54798583D01*
X115955071Y-54979925D01*
X115865744Y-55147043D01*
X115745528Y-55293528D01*
X115599043Y-55413744D01*
X115431925Y-55503071D01*
X115250583Y-55558081D01*
X115109257Y-55572000D01*
X113490743Y-55572000D01*
X113349417Y-55558081D01*
X113168075Y-55503071D01*
X113000957Y-55413744D01*
X112854472Y-55293528D01*
X112734256Y-55147043D01*
X112644929Y-54979925D01*
X112589919Y-54798583D01*
X112571346Y-54610000D01*
X112589919Y-54421417D01*
X112644929Y-54240075D01*
X112734256Y-54072957D01*
X112854472Y-53926472D01*
X113000957Y-53806256D01*
X113168075Y-53716929D01*
X113349417Y-53661919D01*
X113490743Y-53648000D01*
X115109257Y-53648000D01*
X115250583Y-53661919D01*
X115250583Y-53661919D01*
G37*
G36*
X121117621Y-39408682D02*
G01*
X121230721Y-39442990D01*
X121334955Y-39498704D01*
X121426317Y-39573683D01*
X121501296Y-39665045D01*
X121557010Y-39769279D01*
X121591318Y-39882379D01*
X121602903Y-40000000D01*
X121591318Y-40117621D01*
X121557010Y-40230721D01*
X121501296Y-40334955D01*
X121426317Y-40426317D01*
X121334955Y-40501296D01*
X121334950Y-40501299D01*
X121332421Y-40503374D01*
X121315094Y-40520701D01*
X121301480Y-40541075D01*
X121292103Y-40563714D01*
X121287322Y-40587747D01*
X121287322Y-40612251D01*
X121292102Y-40636285D01*
X121301479Y-40658924D01*
X121315093Y-40679298D01*
X121332421Y-40696626D01*
X121334950Y-40698701D01*
X121334955Y-40698704D01*
X121426317Y-40773683D01*
X121501296Y-40865045D01*
X121557010Y-40969279D01*
X121591318Y-41082379D01*
X121602903Y-41200000D01*
X121591318Y-41317621D01*
X121557010Y-41430721D01*
X121501296Y-41534955D01*
X121426317Y-41626317D01*
X121334955Y-41701296D01*
X121334950Y-41701299D01*
X121332421Y-41703374D01*
X121315094Y-41720701D01*
X121301480Y-41741075D01*
X121292103Y-41763714D01*
X121287322Y-41787747D01*
X121287322Y-41812251D01*
X121292102Y-41836285D01*
X121301479Y-41858924D01*
X121315093Y-41879298D01*
X121332421Y-41896626D01*
X121334950Y-41898701D01*
X121334955Y-41898704D01*
X121426317Y-41973683D01*
X121501296Y-42065045D01*
X121557010Y-42169279D01*
X121591318Y-42282379D01*
X121602903Y-42400000D01*
X121591318Y-42517621D01*
X121557010Y-42630721D01*
X121501296Y-42734955D01*
X121426317Y-42826317D01*
X121334955Y-42901296D01*
X121334950Y-42901299D01*
X121332421Y-42903374D01*
X121315094Y-42920701D01*
X121301480Y-42941075D01*
X121292103Y-42963714D01*
X121287322Y-42987747D01*
X121287322Y-43012251D01*
X121292102Y-43036285D01*
X121301479Y-43058924D01*
X121315093Y-43079298D01*
X121332421Y-43096626D01*
X121334950Y-43098701D01*
X121334955Y-43098704D01*
X121426317Y-43173683D01*
X121501296Y-43265045D01*
X121557010Y-43369279D01*
X121591318Y-43482379D01*
X121602903Y-43600000D01*
X121591318Y-43717621D01*
X121557010Y-43830721D01*
X121501296Y-43934955D01*
X121426317Y-44026317D01*
X121334955Y-44101296D01*
X121334950Y-44101299D01*
X121332421Y-44103374D01*
X121315094Y-44120701D01*
X121301480Y-44141075D01*
X121292103Y-44163714D01*
X121287322Y-44187747D01*
X121287322Y-44212251D01*
X121292102Y-44236285D01*
X121301479Y-44258924D01*
X121315093Y-44279298D01*
X121332421Y-44296626D01*
X121334950Y-44298701D01*
X121334955Y-44298704D01*
X121426317Y-44373683D01*
X121501296Y-44465045D01*
X121557010Y-44569279D01*
X121591318Y-44682379D01*
X121602903Y-44800000D01*
X121591318Y-44917621D01*
X121557010Y-45030721D01*
X121501296Y-45134955D01*
X121426317Y-45226317D01*
X121334955Y-45301296D01*
X121334950Y-45301299D01*
X121332421Y-45303374D01*
X121315094Y-45320701D01*
X121301480Y-45341075D01*
X121292103Y-45363714D01*
X121287322Y-45387747D01*
X121287322Y-45412251D01*
X121292102Y-45436285D01*
X121301479Y-45458924D01*
X121315093Y-45479298D01*
X121332421Y-45496626D01*
X121334950Y-45498701D01*
X121334955Y-45498704D01*
X121426317Y-45573683D01*
X121501296Y-45665045D01*
X121557010Y-45769279D01*
X121591318Y-45882379D01*
X121602903Y-46000000D01*
X121591318Y-46117621D01*
X121557010Y-46230721D01*
X121501296Y-46334955D01*
X121426317Y-46426317D01*
X121334955Y-46501296D01*
X121334950Y-46501299D01*
X121332421Y-46503374D01*
X121315094Y-46520701D01*
X121301480Y-46541075D01*
X121292103Y-46563714D01*
X121287322Y-46587747D01*
X121287322Y-46612251D01*
X121292102Y-46636285D01*
X121301479Y-46658924D01*
X121315093Y-46679298D01*
X121332421Y-46696626D01*
X121334950Y-46698701D01*
X121334955Y-46698704D01*
X121426317Y-46773683D01*
X121501296Y-46865045D01*
X121557010Y-46969279D01*
X121591318Y-47082379D01*
X121602903Y-47200000D01*
X121591318Y-47317621D01*
X121557010Y-47430721D01*
X121501296Y-47534955D01*
X121426317Y-47626317D01*
X121334955Y-47701296D01*
X121334950Y-47701299D01*
X121332421Y-47703374D01*
X121315094Y-47720701D01*
X121301480Y-47741075D01*
X121292103Y-47763714D01*
X121287322Y-47787747D01*
X121287322Y-47812251D01*
X121292102Y-47836285D01*
X121301479Y-47858924D01*
X121315093Y-47879298D01*
X121332421Y-47896626D01*
X121334950Y-47898701D01*
X121334955Y-47898704D01*
X121426317Y-47973683D01*
X121501296Y-48065045D01*
X121557010Y-48169279D01*
X121591318Y-48282379D01*
X121602903Y-48400000D01*
X121591318Y-48517621D01*
X121557010Y-48630721D01*
X121501296Y-48734955D01*
X121426317Y-48826317D01*
X121334955Y-48901296D01*
X121334950Y-48901299D01*
X121332421Y-48903374D01*
X121315094Y-48920701D01*
X121301480Y-48941075D01*
X121292103Y-48963714D01*
X121287322Y-48987747D01*
X121287322Y-49012251D01*
X121292102Y-49036285D01*
X121301479Y-49058924D01*
X121315093Y-49079298D01*
X121332421Y-49096626D01*
X121334950Y-49098701D01*
X121334955Y-49098704D01*
X121426317Y-49173683D01*
X121501296Y-49265045D01*
X121557010Y-49369279D01*
X121591318Y-49482379D01*
X121602903Y-49600000D01*
X121591318Y-49717621D01*
X121557010Y-49830721D01*
X121501296Y-49934955D01*
X121426317Y-50026317D01*
X121334955Y-50101296D01*
X121334950Y-50101299D01*
X121332421Y-50103374D01*
X121315094Y-50120701D01*
X121301480Y-50141075D01*
X121292103Y-50163714D01*
X121287322Y-50187747D01*
X121287322Y-50212251D01*
X121292102Y-50236285D01*
X121301479Y-50258924D01*
X121315093Y-50279298D01*
X121332421Y-50296626D01*
X121334950Y-50298701D01*
X121334955Y-50298704D01*
X121426317Y-50373683D01*
X121501296Y-50465045D01*
X121557010Y-50569279D01*
X121591318Y-50682379D01*
X121602903Y-50800000D01*
X121591318Y-50917621D01*
X121557010Y-51030721D01*
X121501296Y-51134955D01*
X121426317Y-51226317D01*
X121334955Y-51301296D01*
X121334950Y-51301299D01*
X121332421Y-51303374D01*
X121315094Y-51320701D01*
X121301480Y-51341075D01*
X121292103Y-51363714D01*
X121287322Y-51387747D01*
X121287322Y-51412251D01*
X121292102Y-51436285D01*
X121301479Y-51458924D01*
X121315093Y-51479298D01*
X121332421Y-51496626D01*
X121334950Y-51498701D01*
X121334955Y-51498704D01*
X121426317Y-51573683D01*
X121501296Y-51665045D01*
X121557010Y-51769279D01*
X121591318Y-51882379D01*
X121602903Y-52000000D01*
X121602903Y-52000004D01*
X121603460Y-52005664D01*
X121608240Y-52029697D01*
X121617618Y-52052336D01*
X121631231Y-52072710D01*
X121648558Y-52090037D01*
X121668933Y-52103651D01*
X121691572Y-52113029D01*
X121715605Y-52117809D01*
X121740109Y-52117809D01*
X121764142Y-52113029D01*
X121786781Y-52103651D01*
X121807155Y-52090038D01*
X121822710Y-52074483D01*
X121823679Y-52073688D01*
X121823683Y-52073683D01*
X121915045Y-51998704D01*
X122019279Y-51942990D01*
X122132379Y-51908682D01*
X122250000Y-51897097D01*
X122367620Y-51908682D01*
X122480720Y-51942990D01*
X122584954Y-51998704D01*
X122676317Y-52073683D01*
X122751296Y-52165045D01*
X122751299Y-52165050D01*
X122753375Y-52167580D01*
X122770702Y-52184907D01*
X122791076Y-52198520D01*
X122813715Y-52207898D01*
X122837748Y-52212678D01*
X122862252Y-52212678D01*
X122886285Y-52207898D01*
X122908924Y-52198520D01*
X122929299Y-52184906D01*
X122946626Y-52167580D01*
X122948701Y-52165052D01*
X122948704Y-52165046D01*
X123023683Y-52073683D01*
X123115045Y-51998704D01*
X123219279Y-51942990D01*
X123332379Y-51908682D01*
X123450000Y-51897097D01*
X123567620Y-51908682D01*
X123680720Y-51942990D01*
X123784954Y-51998704D01*
X123876317Y-52073683D01*
X123951296Y-52165045D01*
X123951299Y-52165050D01*
X123953375Y-52167580D01*
X123970702Y-52184907D01*
X123991076Y-52198520D01*
X124013715Y-52207898D01*
X124037748Y-52212678D01*
X124062252Y-52212678D01*
X124086285Y-52207898D01*
X124108924Y-52198520D01*
X124129299Y-52184906D01*
X124146626Y-52167580D01*
X124148701Y-52165052D01*
X124148704Y-52165046D01*
X124223683Y-52073683D01*
X124315045Y-51998704D01*
X124419279Y-51942990D01*
X124532379Y-51908682D01*
X124650000Y-51897097D01*
X124767620Y-51908682D01*
X124880720Y-51942990D01*
X124984954Y-51998704D01*
X125076317Y-52073683D01*
X125151296Y-52165045D01*
X125151299Y-52165050D01*
X125153375Y-52167580D01*
X125170702Y-52184907D01*
X125191076Y-52198520D01*
X125213715Y-52207898D01*
X125237748Y-52212678D01*
X125262252Y-52212678D01*
X125286285Y-52207898D01*
X125308924Y-52198520D01*
X125329299Y-52184906D01*
X125346626Y-52167580D01*
X125348701Y-52165052D01*
X125348704Y-52165046D01*
X125423683Y-52073683D01*
X125515045Y-51998704D01*
X125619279Y-51942990D01*
X125732379Y-51908682D01*
X125850000Y-51897097D01*
X125967620Y-51908682D01*
X126080720Y-51942990D01*
X126184954Y-51998704D01*
X126276317Y-52073683D01*
X126351296Y-52165045D01*
X126351299Y-52165050D01*
X126353375Y-52167580D01*
X126370702Y-52184907D01*
X126391076Y-52198520D01*
X126413715Y-52207898D01*
X126437748Y-52212678D01*
X126462252Y-52212678D01*
X126486285Y-52207898D01*
X126508924Y-52198520D01*
X126529299Y-52184906D01*
X126546626Y-52167580D01*
X126548701Y-52165052D01*
X126548704Y-52165046D01*
X126623683Y-52073683D01*
X126715045Y-51998704D01*
X126819279Y-51942990D01*
X126932379Y-51908682D01*
X127050000Y-51897097D01*
X127167620Y-51908682D01*
X127280720Y-51942990D01*
X127384954Y-51998704D01*
X127476317Y-52073683D01*
X127551296Y-52165045D01*
X127551299Y-52165050D01*
X127553375Y-52167580D01*
X127570702Y-52184907D01*
X127591076Y-52198520D01*
X127613715Y-52207898D01*
X127637748Y-52212678D01*
X127662252Y-52212678D01*
X127686285Y-52207898D01*
X127708924Y-52198520D01*
X127729299Y-52184906D01*
X127746626Y-52167580D01*
X127748701Y-52165052D01*
X127748704Y-52165046D01*
X127823683Y-52073683D01*
X127915045Y-51998704D01*
X128019279Y-51942990D01*
X128132379Y-51908682D01*
X128250000Y-51897097D01*
X128367620Y-51908682D01*
X128480720Y-51942990D01*
X128584954Y-51998704D01*
X128676317Y-52073683D01*
X128751296Y-52165045D01*
X128751299Y-52165050D01*
X128753375Y-52167580D01*
X128770702Y-52184907D01*
X128791076Y-52198520D01*
X128813715Y-52207898D01*
X128837748Y-52212678D01*
X128862252Y-52212678D01*
X128886285Y-52207898D01*
X128908924Y-52198520D01*
X128929299Y-52184906D01*
X128946626Y-52167580D01*
X128948701Y-52165052D01*
X128948704Y-52165046D01*
X129023683Y-52073683D01*
X129115045Y-51998704D01*
X129219279Y-51942990D01*
X129332379Y-51908682D01*
X129450000Y-51897097D01*
X129567620Y-51908682D01*
X129680720Y-51942990D01*
X129784954Y-51998704D01*
X129876317Y-52073683D01*
X129876321Y-52073688D01*
X129877290Y-52074483D01*
X129892845Y-52090038D01*
X129913220Y-52103652D01*
X129935859Y-52113029D01*
X129959892Y-52117809D01*
X129984396Y-52117809D01*
X130008429Y-52113028D01*
X130031068Y-52103651D01*
X130051442Y-52090037D01*
X130068769Y-52072710D01*
X130082383Y-52052335D01*
X130091760Y-52029696D01*
X130096540Y-52005664D01*
X130097097Y-52000004D01*
X130097097Y-52000000D01*
X130108682Y-51882379D01*
X130142990Y-51769279D01*
X130198704Y-51665045D01*
X130273683Y-51573683D01*
X130365045Y-51498704D01*
X130365050Y-51498701D01*
X130367579Y-51496626D01*
X130384906Y-51479299D01*
X130398520Y-51458925D01*
X130407897Y-51436286D01*
X130412678Y-51412253D01*
X130412678Y-51387749D01*
X130407898Y-51363715D01*
X130398521Y-51341076D01*
X130384907Y-51320702D01*
X130367579Y-51303374D01*
X130365050Y-51301299D01*
X130365045Y-51301296D01*
X130273683Y-51226317D01*
X130198704Y-51134955D01*
X130142990Y-51030721D01*
X130108682Y-50917621D01*
X130097097Y-50800000D01*
X130108682Y-50682379D01*
X130142990Y-50569279D01*
X130198704Y-50465045D01*
X130273683Y-50373683D01*
X130365045Y-50298704D01*
X130365050Y-50298701D01*
X130367579Y-50296626D01*
X130384906Y-50279299D01*
X130398520Y-50258925D01*
X130407897Y-50236286D01*
X130412678Y-50212253D01*
X130412678Y-50187749D01*
X130407898Y-50163715D01*
X130398521Y-50141076D01*
X130384907Y-50120702D01*
X130367579Y-50103374D01*
X130365050Y-50101299D01*
X130365045Y-50101296D01*
X130273683Y-50026317D01*
X130198704Y-49934955D01*
X130142990Y-49830721D01*
X130108682Y-49717621D01*
X130097097Y-49600000D01*
X130108682Y-49482379D01*
X130142990Y-49369279D01*
X130198704Y-49265045D01*
X130273683Y-49173683D01*
X130365045Y-49098704D01*
X130365050Y-49098701D01*
X130367579Y-49096626D01*
X130384906Y-49079299D01*
X130398520Y-49058925D01*
X130407897Y-49036286D01*
X130412678Y-49012253D01*
X130412678Y-48987749D01*
X130407898Y-48963715D01*
X130398521Y-48941076D01*
X130384907Y-48920702D01*
X130367579Y-48903374D01*
X130365050Y-48901299D01*
X130365045Y-48901296D01*
X130273683Y-48826317D01*
X130198704Y-48734955D01*
X130142990Y-48630721D01*
X130108682Y-48517621D01*
X130097097Y-48400000D01*
X130108682Y-48282379D01*
X130142990Y-48169279D01*
X130198704Y-48065045D01*
X130273683Y-47973683D01*
X130365045Y-47898704D01*
X130365050Y-47898701D01*
X130367579Y-47896626D01*
X130384906Y-47879299D01*
X130398520Y-47858925D01*
X130407897Y-47836286D01*
X130412678Y-47812253D01*
X130412678Y-47787749D01*
X130407898Y-47763715D01*
X130398521Y-47741076D01*
X130384907Y-47720702D01*
X130367579Y-47703374D01*
X130365050Y-47701299D01*
X130365045Y-47701296D01*
X130273683Y-47626317D01*
X130198704Y-47534955D01*
X130142990Y-47430721D01*
X130108682Y-47317621D01*
X130097097Y-47200000D01*
X130108682Y-47082379D01*
X130142990Y-46969279D01*
X130198704Y-46865045D01*
X130273683Y-46773683D01*
X130365045Y-46698704D01*
X130365050Y-46698701D01*
X130367579Y-46696626D01*
X130384906Y-46679299D01*
X130398520Y-46658925D01*
X130407897Y-46636286D01*
X130412678Y-46612253D01*
X130412678Y-46587749D01*
X130407898Y-46563715D01*
X130398521Y-46541076D01*
X130384907Y-46520702D01*
X130367579Y-46503374D01*
X130365050Y-46501299D01*
X130365045Y-46501296D01*
X130273683Y-46426317D01*
X130198704Y-46334955D01*
X130142990Y-46230721D01*
X130108682Y-46117621D01*
X130097097Y-46000000D01*
X130108682Y-45882379D01*
X130142990Y-45769279D01*
X130198704Y-45665045D01*
X130273683Y-45573683D01*
X130365045Y-45498704D01*
X130365050Y-45498701D01*
X130367579Y-45496626D01*
X130384906Y-45479299D01*
X130398520Y-45458925D01*
X130407897Y-45436286D01*
X130412678Y-45412253D01*
X130412678Y-45387749D01*
X130407898Y-45363715D01*
X130398521Y-45341076D01*
X130384907Y-45320702D01*
X130367579Y-45303374D01*
X130365050Y-45301299D01*
X130365045Y-45301296D01*
X130273683Y-45226317D01*
X130198704Y-45134955D01*
X130142990Y-45030721D01*
X130108682Y-44917621D01*
X130097097Y-44800000D01*
X130108682Y-44682379D01*
X130142990Y-44569279D01*
X130198704Y-44465045D01*
X130273683Y-44373683D01*
X130365045Y-44298704D01*
X130365050Y-44298701D01*
X130367579Y-44296626D01*
X130384906Y-44279299D01*
X130398520Y-44258925D01*
X130407897Y-44236286D01*
X130412678Y-44212253D01*
X130412678Y-44187749D01*
X130407898Y-44163715D01*
X130398521Y-44141076D01*
X130384907Y-44120702D01*
X130367579Y-44103374D01*
X130365050Y-44101299D01*
X130365045Y-44101296D01*
X130273683Y-44026317D01*
X130198704Y-43934955D01*
X130142990Y-43830721D01*
X130108682Y-43717621D01*
X130097097Y-43600000D01*
X130108682Y-43482379D01*
X130142990Y-43369279D01*
X130198704Y-43265045D01*
X130273683Y-43173683D01*
X130365045Y-43098704D01*
X130365050Y-43098701D01*
X130367579Y-43096626D01*
X130384906Y-43079299D01*
X130398520Y-43058925D01*
X130407897Y-43036286D01*
X130412678Y-43012253D01*
X130412678Y-42987749D01*
X130407898Y-42963715D01*
X130398521Y-42941076D01*
X130384907Y-42920702D01*
X130367579Y-42903374D01*
X130365050Y-42901299D01*
X130365045Y-42901296D01*
X130273683Y-42826317D01*
X130198704Y-42734955D01*
X130142990Y-42630721D01*
X130108682Y-42517621D01*
X130097097Y-42400000D01*
X130108682Y-42282379D01*
X130142990Y-42169279D01*
X130198704Y-42065045D01*
X130273683Y-41973683D01*
X130365045Y-41898704D01*
X130365050Y-41898701D01*
X130367579Y-41896626D01*
X130384906Y-41879299D01*
X130398520Y-41858925D01*
X130407897Y-41836286D01*
X130412678Y-41812253D01*
X130412678Y-41787749D01*
X130407898Y-41763715D01*
X130398521Y-41741076D01*
X130384907Y-41720702D01*
X130367579Y-41703374D01*
X130365050Y-41701299D01*
X130365045Y-41701296D01*
X130273683Y-41626317D01*
X130198704Y-41534955D01*
X130142990Y-41430721D01*
X130108682Y-41317621D01*
X130097097Y-41200000D01*
X130108682Y-41082379D01*
X130142990Y-40969279D01*
X130198704Y-40865045D01*
X130273683Y-40773683D01*
X130365045Y-40698704D01*
X130365050Y-40698701D01*
X130367579Y-40696626D01*
X130384906Y-40679299D01*
X130398520Y-40658925D01*
X130407897Y-40636286D01*
X130412678Y-40612253D01*
X130412678Y-40587749D01*
X130407898Y-40563715D01*
X130398521Y-40541076D01*
X130384907Y-40520702D01*
X130367579Y-40503374D01*
X130365050Y-40501299D01*
X130365045Y-40501296D01*
X130273683Y-40426317D01*
X130198704Y-40334955D01*
X130142990Y-40230721D01*
X130108682Y-40117621D01*
X130097097Y-40000000D01*
X130108682Y-39882379D01*
X130142990Y-39769279D01*
X130198704Y-39665045D01*
X130273683Y-39573683D01*
X130365045Y-39498704D01*
X130469279Y-39442990D01*
X130582379Y-39408682D01*
X130670526Y-39400000D01*
X132329474Y-39400000D01*
X132417621Y-39408682D01*
X132530721Y-39442990D01*
X132634955Y-39498704D01*
X132726317Y-39573683D01*
X132801296Y-39665045D01*
X132857010Y-39769279D01*
X132891318Y-39882379D01*
X132902903Y-40000000D01*
X132891318Y-40117621D01*
X132857010Y-40230721D01*
X132801296Y-40334955D01*
X132726317Y-40426317D01*
X132634955Y-40501296D01*
X132634950Y-40501299D01*
X132632421Y-40503374D01*
X132615094Y-40520701D01*
X132601480Y-40541075D01*
X132592103Y-40563714D01*
X132587322Y-40587747D01*
X132587322Y-40612251D01*
X132592102Y-40636285D01*
X132601479Y-40658924D01*
X132615093Y-40679298D01*
X132632421Y-40696626D01*
X132634950Y-40698701D01*
X132634955Y-40698704D01*
X132726317Y-40773683D01*
X132801296Y-40865045D01*
X132857010Y-40969279D01*
X132891318Y-41082379D01*
X132902903Y-41200000D01*
X132891318Y-41317621D01*
X132857010Y-41430721D01*
X132801296Y-41534955D01*
X132726317Y-41626317D01*
X132634955Y-41701296D01*
X132634950Y-41701299D01*
X132632421Y-41703374D01*
X132615094Y-41720701D01*
X132601480Y-41741075D01*
X132592103Y-41763714D01*
X132587322Y-41787747D01*
X132587322Y-41812251D01*
X132592102Y-41836285D01*
X132601479Y-41858924D01*
X132615093Y-41879298D01*
X132632421Y-41896626D01*
X132634950Y-41898701D01*
X132634955Y-41898704D01*
X132726317Y-41973683D01*
X132801296Y-42065045D01*
X132857010Y-42169279D01*
X132891318Y-42282379D01*
X132902903Y-42400000D01*
X132891318Y-42517621D01*
X132857010Y-42630721D01*
X132801296Y-42734955D01*
X132726317Y-42826317D01*
X132634955Y-42901296D01*
X132634950Y-42901299D01*
X132632421Y-42903374D01*
X132615094Y-42920701D01*
X132601480Y-42941075D01*
X132592103Y-42963714D01*
X132587322Y-42987747D01*
X132587322Y-43012251D01*
X132592102Y-43036285D01*
X132601479Y-43058924D01*
X132615093Y-43079298D01*
X132632421Y-43096626D01*
X132634950Y-43098701D01*
X132634955Y-43098704D01*
X132726317Y-43173683D01*
X132801296Y-43265045D01*
X132857010Y-43369279D01*
X132891318Y-43482379D01*
X132902903Y-43600000D01*
X132891318Y-43717621D01*
X132857010Y-43830721D01*
X132801296Y-43934955D01*
X132726317Y-44026317D01*
X132634955Y-44101296D01*
X132634950Y-44101299D01*
X132632421Y-44103374D01*
X132615094Y-44120701D01*
X132601480Y-44141075D01*
X132592103Y-44163714D01*
X132587322Y-44187747D01*
X132587322Y-44212251D01*
X132592102Y-44236285D01*
X132601479Y-44258924D01*
X132615093Y-44279298D01*
X132632421Y-44296626D01*
X132634950Y-44298701D01*
X132634955Y-44298704D01*
X132726317Y-44373683D01*
X132801296Y-44465045D01*
X132857010Y-44569279D01*
X132891318Y-44682379D01*
X132902903Y-44800000D01*
X132891318Y-44917621D01*
X132857010Y-45030721D01*
X132801296Y-45134955D01*
X132726317Y-45226317D01*
X132634955Y-45301296D01*
X132634950Y-45301299D01*
X132632421Y-45303374D01*
X132615094Y-45320701D01*
X132601480Y-45341075D01*
X132592103Y-45363714D01*
X132587322Y-45387747D01*
X132587322Y-45412251D01*
X132592102Y-45436285D01*
X132601479Y-45458924D01*
X132615093Y-45479298D01*
X132632421Y-45496626D01*
X132634950Y-45498701D01*
X132634955Y-45498704D01*
X132726317Y-45573683D01*
X132801296Y-45665045D01*
X132857010Y-45769279D01*
X132891318Y-45882379D01*
X132902903Y-46000000D01*
X132891318Y-46117621D01*
X132857010Y-46230721D01*
X132801296Y-46334955D01*
X132726317Y-46426317D01*
X132634955Y-46501296D01*
X132634950Y-46501299D01*
X132632421Y-46503374D01*
X132615094Y-46520701D01*
X132601480Y-46541075D01*
X132592103Y-46563714D01*
X132587322Y-46587747D01*
X132587322Y-46612251D01*
X132592102Y-46636285D01*
X132601479Y-46658924D01*
X132615093Y-46679298D01*
X132632421Y-46696626D01*
X132634950Y-46698701D01*
X132634955Y-46698704D01*
X132726317Y-46773683D01*
X132801296Y-46865045D01*
X132857010Y-46969279D01*
X132891318Y-47082379D01*
X132902903Y-47200000D01*
X132891318Y-47317621D01*
X132857010Y-47430721D01*
X132801296Y-47534955D01*
X132726317Y-47626317D01*
X132634955Y-47701296D01*
X132634950Y-47701299D01*
X132632421Y-47703374D01*
X132615094Y-47720701D01*
X132601480Y-47741075D01*
X132592103Y-47763714D01*
X132587322Y-47787747D01*
X132587322Y-47812251D01*
X132592102Y-47836285D01*
X132601479Y-47858924D01*
X132615093Y-47879298D01*
X132632421Y-47896626D01*
X132634950Y-47898701D01*
X132634955Y-47898704D01*
X132726317Y-47973683D01*
X132801296Y-48065045D01*
X132857010Y-48169279D01*
X132891318Y-48282379D01*
X132902903Y-48400000D01*
X132891318Y-48517621D01*
X132857010Y-48630721D01*
X132801296Y-48734955D01*
X132726317Y-48826317D01*
X132634955Y-48901296D01*
X132634950Y-48901299D01*
X132632421Y-48903374D01*
X132615094Y-48920701D01*
X132601480Y-48941075D01*
X132592103Y-48963714D01*
X132587322Y-48987747D01*
X132587322Y-49012251D01*
X132592102Y-49036285D01*
X132601479Y-49058924D01*
X132615093Y-49079298D01*
X132632421Y-49096626D01*
X132634950Y-49098701D01*
X132634955Y-49098704D01*
X132726317Y-49173683D01*
X132801296Y-49265045D01*
X132857010Y-49369279D01*
X132891318Y-49482379D01*
X132902903Y-49600000D01*
X132891318Y-49717621D01*
X132857010Y-49830721D01*
X132801296Y-49934955D01*
X132726317Y-50026317D01*
X132634955Y-50101296D01*
X132634950Y-50101299D01*
X132632421Y-50103374D01*
X132615094Y-50120701D01*
X132601480Y-50141075D01*
X132592103Y-50163714D01*
X132587322Y-50187747D01*
X132587322Y-50212251D01*
X132592102Y-50236285D01*
X132601479Y-50258924D01*
X132615093Y-50279298D01*
X132632421Y-50296626D01*
X132634950Y-50298701D01*
X132634955Y-50298704D01*
X132726317Y-50373683D01*
X132801296Y-50465045D01*
X132857010Y-50569279D01*
X132891318Y-50682379D01*
X132902903Y-50800000D01*
X132891318Y-50917621D01*
X132857010Y-51030721D01*
X132801296Y-51134955D01*
X132726317Y-51226317D01*
X132634955Y-51301296D01*
X132634950Y-51301299D01*
X132632421Y-51303374D01*
X132615094Y-51320701D01*
X132601480Y-51341075D01*
X132592103Y-51363714D01*
X132587322Y-51387747D01*
X132587322Y-51412251D01*
X132592102Y-51436285D01*
X132601479Y-51458924D01*
X132615093Y-51479298D01*
X132632421Y-51496626D01*
X132634950Y-51498701D01*
X132634955Y-51498704D01*
X132726317Y-51573683D01*
X132801296Y-51665045D01*
X132857010Y-51769279D01*
X132891318Y-51882379D01*
X132902903Y-52000000D01*
X132891318Y-52117621D01*
X132857010Y-52230721D01*
X132801296Y-52334955D01*
X132726317Y-52426317D01*
X132634955Y-52501296D01*
X132634950Y-52501299D01*
X132632421Y-52503374D01*
X132615094Y-52520701D01*
X132601480Y-52541075D01*
X132592103Y-52563714D01*
X132587322Y-52587747D01*
X132587322Y-52612251D01*
X132592102Y-52636285D01*
X132601479Y-52658924D01*
X132615093Y-52679298D01*
X132632421Y-52696626D01*
X132634950Y-52698701D01*
X132634955Y-52698704D01*
X132726317Y-52773683D01*
X132801296Y-52865045D01*
X132857010Y-52969279D01*
X132891318Y-53082379D01*
X132902903Y-53200000D01*
X132891318Y-53317621D01*
X132857010Y-53430721D01*
X132801296Y-53534955D01*
X132726317Y-53626317D01*
X132634955Y-53701296D01*
X132530721Y-53757010D01*
X132417621Y-53791318D01*
X132329474Y-53800000D01*
X130670526Y-53800000D01*
X130582379Y-53791318D01*
X130469279Y-53757010D01*
X130365045Y-53701296D01*
X130273683Y-53626317D01*
X130273681Y-53626314D01*
X130271623Y-53623807D01*
X130254296Y-53606480D01*
X130233921Y-53592867D01*
X130211282Y-53583490D01*
X130187249Y-53578710D01*
X130162745Y-53578710D01*
X130138712Y-53583491D01*
X130116073Y-53592869D01*
X130095699Y-53606483D01*
X130078372Y-53623810D01*
X130064759Y-53644185D01*
X130055382Y-53666824D01*
X130050000Y-53703106D01*
X130050000Y-54129474D01*
X130041318Y-54217621D01*
X130007010Y-54330721D01*
X129951296Y-54434955D01*
X129876317Y-54526317D01*
X129784955Y-54601296D01*
X129680721Y-54657010D01*
X129567621Y-54691318D01*
X129450000Y-54702903D01*
X129332380Y-54691318D01*
X129219280Y-54657010D01*
X129115046Y-54601296D01*
X129023684Y-54526317D01*
X128948705Y-54434955D01*
X128948702Y-54434950D01*
X128946627Y-54432421D01*
X128929300Y-54415094D01*
X128908926Y-54401480D01*
X128886287Y-54392103D01*
X128862254Y-54387322D01*
X128837750Y-54387322D01*
X128813716Y-54392102D01*
X128791077Y-54401479D01*
X128770703Y-54415093D01*
X128753376Y-54432420D01*
X128751297Y-54434953D01*
X128751296Y-54434955D01*
X128676317Y-54526317D01*
X128584955Y-54601296D01*
X128480721Y-54657010D01*
X128367621Y-54691318D01*
X128250000Y-54702903D01*
X128132380Y-54691318D01*
X128019280Y-54657010D01*
X127915046Y-54601296D01*
X127823684Y-54526317D01*
X127748705Y-54434955D01*
X127748702Y-54434950D01*
X127746627Y-54432421D01*
X127729300Y-54415094D01*
X127708926Y-54401480D01*
X127686287Y-54392103D01*
X127662254Y-54387322D01*
X127637750Y-54387322D01*
X127613716Y-54392102D01*
X127591077Y-54401479D01*
X127570703Y-54415093D01*
X127553376Y-54432420D01*
X127551297Y-54434953D01*
X127551296Y-54434955D01*
X127476317Y-54526317D01*
X127384955Y-54601296D01*
X127280721Y-54657010D01*
X127167621Y-54691318D01*
X127050000Y-54702903D01*
X126932380Y-54691318D01*
X126819280Y-54657010D01*
X126715046Y-54601296D01*
X126623684Y-54526317D01*
X126548705Y-54434955D01*
X126548702Y-54434950D01*
X126546627Y-54432421D01*
X126529300Y-54415094D01*
X126508926Y-54401480D01*
X126486287Y-54392103D01*
X126462254Y-54387322D01*
X126437750Y-54387322D01*
X126413716Y-54392102D01*
X126391077Y-54401479D01*
X126370703Y-54415093D01*
X126353376Y-54432420D01*
X126351297Y-54434953D01*
X126351296Y-54434955D01*
X126276317Y-54526317D01*
X126184955Y-54601296D01*
X126080721Y-54657010D01*
X125967621Y-54691318D01*
X125850000Y-54702903D01*
X125732380Y-54691318D01*
X125619280Y-54657010D01*
X125515046Y-54601296D01*
X125423684Y-54526317D01*
X125348705Y-54434955D01*
X125348702Y-54434950D01*
X125346627Y-54432421D01*
X125329300Y-54415094D01*
X125308926Y-54401480D01*
X125286287Y-54392103D01*
X125262254Y-54387322D01*
X125237750Y-54387322D01*
X125213716Y-54392102D01*
X125191077Y-54401479D01*
X125170703Y-54415093D01*
X125153376Y-54432420D01*
X125151297Y-54434953D01*
X125151296Y-54434955D01*
X125076317Y-54526317D01*
X124984955Y-54601296D01*
X124880721Y-54657010D01*
X124767621Y-54691318D01*
X124650000Y-54702903D01*
X124532380Y-54691318D01*
X124419280Y-54657010D01*
X124315046Y-54601296D01*
X124223684Y-54526317D01*
X124148705Y-54434955D01*
X124148702Y-54434950D01*
X124146627Y-54432421D01*
X124129300Y-54415094D01*
X124108926Y-54401480D01*
X124086287Y-54392103D01*
X124062254Y-54387322D01*
X124037750Y-54387322D01*
X124013716Y-54392102D01*
X123991077Y-54401479D01*
X123970703Y-54415093D01*
X123953376Y-54432420D01*
X123951297Y-54434953D01*
X123951296Y-54434955D01*
X123876317Y-54526317D01*
X123784955Y-54601296D01*
X123680721Y-54657010D01*
X123567621Y-54691318D01*
X123450000Y-54702903D01*
X123332380Y-54691318D01*
X123219280Y-54657010D01*
X123115046Y-54601296D01*
X123023684Y-54526317D01*
X122948705Y-54434955D01*
X122948702Y-54434950D01*
X122946627Y-54432421D01*
X122929300Y-54415094D01*
X122908926Y-54401480D01*
X122886287Y-54392103D01*
X122862254Y-54387322D01*
X122837750Y-54387322D01*
X122813716Y-54392102D01*
X122791077Y-54401479D01*
X122770703Y-54415093D01*
X122753376Y-54432420D01*
X122751297Y-54434953D01*
X122751296Y-54434955D01*
X122676317Y-54526317D01*
X122584955Y-54601296D01*
X122480721Y-54657010D01*
X122367621Y-54691318D01*
X122250000Y-54702903D01*
X122132380Y-54691318D01*
X122019280Y-54657010D01*
X121915046Y-54601296D01*
X121823684Y-54526317D01*
X121748705Y-54434955D01*
X121692991Y-54330721D01*
X121658683Y-54217621D01*
X121650001Y-54129474D01*
X121650001Y-53703103D01*
X121647599Y-53678720D01*
X121640486Y-53655271D01*
X121628935Y-53633660D01*
X121613390Y-53614718D01*
X121594448Y-53599173D01*
X121572837Y-53587622D01*
X121549388Y-53580509D01*
X121525002Y-53578107D01*
X121500616Y-53580509D01*
X121477167Y-53587622D01*
X121455556Y-53599173D01*
X121428379Y-53623805D01*
X121426320Y-53626314D01*
X121426318Y-53626315D01*
X121426317Y-53626317D01*
X121334955Y-53701296D01*
X121230721Y-53757010D01*
X121117621Y-53791318D01*
X121029474Y-53800000D01*
X119370526Y-53800000D01*
X119282379Y-53791318D01*
X119169279Y-53757010D01*
X119065045Y-53701296D01*
X118973683Y-53626317D01*
X118898704Y-53534955D01*
X118842990Y-53430721D01*
X118808682Y-53317621D01*
X118797097Y-53200000D01*
X118808682Y-53082379D01*
X118842990Y-52969279D01*
X118898704Y-52865045D01*
X118973683Y-52773683D01*
X119065045Y-52698704D01*
X119065050Y-52698701D01*
X119067579Y-52696626D01*
X119084906Y-52679299D01*
X119098520Y-52658925D01*
X119107897Y-52636286D01*
X119112678Y-52612253D01*
X119112678Y-52587749D01*
X119112678Y-52587747D01*
X121287322Y-52587747D01*
X121287322Y-52612251D01*
X121292102Y-52636285D01*
X121301479Y-52658924D01*
X121315093Y-52679298D01*
X121332421Y-52696626D01*
X121334950Y-52698701D01*
X121334955Y-52698704D01*
X121404552Y-52755821D01*
X121426318Y-52773684D01*
X121428374Y-52776190D01*
X121445700Y-52793518D01*
X121466074Y-52807132D01*
X121488713Y-52816510D01*
X121512746Y-52821291D01*
X121537250Y-52821291D01*
X121561283Y-52816511D01*
X121583922Y-52807135D01*
X121604297Y-52793521D01*
X121621625Y-52776195D01*
X121635239Y-52755821D01*
X121644617Y-52733182D01*
X121649398Y-52709149D01*
X121650000Y-52696894D01*
X121650000Y-52503107D01*
X130050000Y-52503107D01*
X130050000Y-52696893D01*
X130052402Y-52721279D01*
X130059515Y-52744728D01*
X130071066Y-52766339D01*
X130086611Y-52785281D01*
X130105553Y-52800826D01*
X130127164Y-52812377D01*
X130150613Y-52819490D01*
X130174999Y-52821892D01*
X130199385Y-52819490D01*
X130222834Y-52812377D01*
X130244445Y-52800826D01*
X130271623Y-52776193D01*
X130273681Y-52773685D01*
X130282632Y-52766339D01*
X130365045Y-52698704D01*
X130365050Y-52698701D01*
X130367579Y-52696626D01*
X130384906Y-52679299D01*
X130398520Y-52658925D01*
X130407897Y-52636286D01*
X130412678Y-52612253D01*
X130412678Y-52587749D01*
X130407898Y-52563715D01*
X130398521Y-52541076D01*
X130384907Y-52520702D01*
X130367579Y-52503374D01*
X130365050Y-52501299D01*
X130365045Y-52501296D01*
X130273683Y-52426317D01*
X130271626Y-52423810D01*
X130254296Y-52406480D01*
X130233921Y-52392867D01*
X130211282Y-52383490D01*
X130187249Y-52378710D01*
X130162745Y-52378710D01*
X130138712Y-52383491D01*
X130116073Y-52392869D01*
X130095699Y-52406483D01*
X130078372Y-52423810D01*
X130064759Y-52444185D01*
X130055382Y-52466824D01*
X130050000Y-52503107D01*
X121650000Y-52503107D01*
X121650000Y-52503106D01*
X121647598Y-52478720D01*
X121640485Y-52455271D01*
X121628934Y-52433660D01*
X121613389Y-52414718D01*
X121594447Y-52399173D01*
X121572836Y-52387622D01*
X121549387Y-52380509D01*
X121525001Y-52378107D01*
X121500615Y-52380509D01*
X121477166Y-52387622D01*
X121455555Y-52399173D01*
X121436613Y-52414718D01*
X121428379Y-52423805D01*
X121426317Y-52426317D01*
X121334955Y-52501296D01*
X121334950Y-52501299D01*
X121332421Y-52503374D01*
X121315094Y-52520701D01*
X121301480Y-52541075D01*
X121292103Y-52563714D01*
X121287322Y-52587747D01*
X119112678Y-52587747D01*
X119107898Y-52563715D01*
X119098521Y-52541076D01*
X119084907Y-52520702D01*
X119067579Y-52503374D01*
X119065050Y-52501299D01*
X119065045Y-52501296D01*
X118973683Y-52426317D01*
X118898704Y-52334955D01*
X118842990Y-52230721D01*
X118808682Y-52117621D01*
X118797097Y-52000000D01*
X118808682Y-51882379D01*
X118842990Y-51769279D01*
X118898704Y-51665045D01*
X118973683Y-51573683D01*
X119065045Y-51498704D01*
X119065050Y-51498701D01*
X119067579Y-51496626D01*
X119084906Y-51479299D01*
X119098520Y-51458925D01*
X119107897Y-51436286D01*
X119112678Y-51412253D01*
X119112678Y-51387749D01*
X119107898Y-51363715D01*
X119098521Y-51341076D01*
X119084907Y-51320702D01*
X119067579Y-51303374D01*
X119065050Y-51301299D01*
X119065045Y-51301296D01*
X118973683Y-51226317D01*
X118898704Y-51134955D01*
X118842990Y-51030721D01*
X118808682Y-50917621D01*
X118797097Y-50800000D01*
X118808682Y-50682379D01*
X118842990Y-50569279D01*
X118898704Y-50465045D01*
X118973683Y-50373683D01*
X119065045Y-50298704D01*
X119065050Y-50298701D01*
X119067579Y-50296626D01*
X119084906Y-50279299D01*
X119098520Y-50258925D01*
X119107897Y-50236286D01*
X119112678Y-50212253D01*
X119112678Y-50187749D01*
X119107898Y-50163715D01*
X119098521Y-50141076D01*
X119084907Y-50120702D01*
X119067579Y-50103374D01*
X119065050Y-50101299D01*
X119065045Y-50101296D01*
X118973683Y-50026317D01*
X118898704Y-49934955D01*
X118842990Y-49830721D01*
X118808682Y-49717621D01*
X118797097Y-49600000D01*
X118808682Y-49482379D01*
X118842990Y-49369279D01*
X118898704Y-49265045D01*
X118973683Y-49173683D01*
X119065045Y-49098704D01*
X119065050Y-49098701D01*
X119067579Y-49096626D01*
X119084906Y-49079299D01*
X119098520Y-49058925D01*
X119107897Y-49036286D01*
X119112678Y-49012253D01*
X119112678Y-48987749D01*
X119107898Y-48963715D01*
X119098521Y-48941076D01*
X119084907Y-48920702D01*
X119067579Y-48903374D01*
X119065050Y-48901299D01*
X119065045Y-48901296D01*
X118973683Y-48826317D01*
X118898704Y-48734955D01*
X118842990Y-48630721D01*
X118808682Y-48517621D01*
X118797097Y-48400000D01*
X118808682Y-48282379D01*
X118842990Y-48169279D01*
X118898704Y-48065045D01*
X118973683Y-47973683D01*
X119065045Y-47898704D01*
X119065050Y-47898701D01*
X119067579Y-47896626D01*
X119084906Y-47879299D01*
X119098520Y-47858925D01*
X119107897Y-47836286D01*
X119112678Y-47812253D01*
X119112678Y-47787749D01*
X119107898Y-47763715D01*
X119098521Y-47741076D01*
X119084907Y-47720702D01*
X119067579Y-47703374D01*
X119065050Y-47701299D01*
X119065045Y-47701296D01*
X118973683Y-47626317D01*
X118898704Y-47534955D01*
X118842990Y-47430721D01*
X118808682Y-47317621D01*
X118797097Y-47200000D01*
X118808682Y-47082379D01*
X118842990Y-46969279D01*
X118898704Y-46865045D01*
X118973683Y-46773683D01*
X119065045Y-46698704D01*
X119065050Y-46698701D01*
X119067579Y-46696626D01*
X119084906Y-46679299D01*
X119098520Y-46658925D01*
X119107897Y-46636286D01*
X119112678Y-46612253D01*
X119112678Y-46587749D01*
X119107898Y-46563715D01*
X119098521Y-46541076D01*
X119084907Y-46520702D01*
X119067579Y-46503374D01*
X119065050Y-46501299D01*
X119065045Y-46501296D01*
X118973683Y-46426317D01*
X118898704Y-46334955D01*
X118842990Y-46230721D01*
X118808682Y-46117621D01*
X118797097Y-46000000D01*
X118808682Y-45882379D01*
X118842990Y-45769279D01*
X118898704Y-45665045D01*
X118973683Y-45573683D01*
X119065045Y-45498704D01*
X119065050Y-45498701D01*
X119067579Y-45496626D01*
X119084906Y-45479299D01*
X119098520Y-45458925D01*
X119107897Y-45436286D01*
X119112678Y-45412253D01*
X119112678Y-45387749D01*
X119107898Y-45363715D01*
X119098521Y-45341076D01*
X119084907Y-45320702D01*
X119067579Y-45303374D01*
X119065050Y-45301299D01*
X119065045Y-45301296D01*
X118973683Y-45226317D01*
X118898704Y-45134955D01*
X118842990Y-45030721D01*
X118808682Y-44917621D01*
X118797097Y-44800000D01*
X118808682Y-44682379D01*
X118842990Y-44569279D01*
X118898704Y-44465045D01*
X118973683Y-44373683D01*
X119065045Y-44298704D01*
X119065050Y-44298701D01*
X119067579Y-44296626D01*
X119084906Y-44279299D01*
X119098520Y-44258925D01*
X119107897Y-44236286D01*
X119112678Y-44212253D01*
X119112678Y-44187749D01*
X119107898Y-44163715D01*
X119098521Y-44141076D01*
X119084907Y-44120702D01*
X119067579Y-44103374D01*
X119065050Y-44101299D01*
X119065045Y-44101296D01*
X118973683Y-44026317D01*
X118898704Y-43934955D01*
X118842990Y-43830721D01*
X118808682Y-43717621D01*
X118797097Y-43600000D01*
X118808682Y-43482379D01*
X118842990Y-43369279D01*
X118898704Y-43265045D01*
X118973683Y-43173683D01*
X119065045Y-43098704D01*
X119065050Y-43098701D01*
X119067579Y-43096626D01*
X119084906Y-43079299D01*
X119098520Y-43058925D01*
X119107897Y-43036286D01*
X119112678Y-43012253D01*
X119112678Y-42987749D01*
X119107898Y-42963715D01*
X119098521Y-42941076D01*
X119084907Y-42920702D01*
X119067579Y-42903374D01*
X119065050Y-42901299D01*
X119065045Y-42901296D01*
X118973683Y-42826317D01*
X118898704Y-42734955D01*
X118842990Y-42630721D01*
X118808682Y-42517621D01*
X118797097Y-42400000D01*
X118808682Y-42282379D01*
X118842990Y-42169279D01*
X118898704Y-42065045D01*
X118973683Y-41973683D01*
X119065045Y-41898704D01*
X119065050Y-41898701D01*
X119067579Y-41896626D01*
X119084906Y-41879299D01*
X119098520Y-41858925D01*
X119107897Y-41836286D01*
X119112678Y-41812253D01*
X119112678Y-41787749D01*
X119107898Y-41763715D01*
X119098521Y-41741076D01*
X119084907Y-41720702D01*
X119067579Y-41703374D01*
X119065050Y-41701299D01*
X119065045Y-41701296D01*
X118973683Y-41626317D01*
X118898704Y-41534955D01*
X118842990Y-41430721D01*
X118808682Y-41317621D01*
X118797097Y-41200000D01*
X118808682Y-41082379D01*
X118842990Y-40969279D01*
X118898704Y-40865045D01*
X118973683Y-40773683D01*
X119065045Y-40698704D01*
X119065050Y-40698701D01*
X119067579Y-40696626D01*
X119084906Y-40679299D01*
X119098520Y-40658925D01*
X119107897Y-40636286D01*
X119112678Y-40612253D01*
X119112678Y-40587749D01*
X119107898Y-40563715D01*
X119098521Y-40541076D01*
X119084907Y-40520702D01*
X119067579Y-40503374D01*
X119065050Y-40501299D01*
X119065045Y-40501296D01*
X118973683Y-40426317D01*
X118898704Y-40334955D01*
X118842990Y-40230721D01*
X118808682Y-40117621D01*
X118797097Y-40000000D01*
X118808682Y-39882379D01*
X118842990Y-39769279D01*
X118898704Y-39665045D01*
X118973683Y-39573683D01*
X119065045Y-39498704D01*
X119169279Y-39442990D01*
X119282379Y-39408682D01*
X119370526Y-39400000D01*
X121029474Y-39400000D01*
X121117621Y-39408682D01*
X121117621Y-39408682D01*
G37*
G36*
X115250583Y-51121919D02*
G01*
X115431925Y-51176929D01*
X115599043Y-51266256D01*
X115745528Y-51386472D01*
X115865744Y-51532957D01*
X115955071Y-51700075D01*
X116010081Y-51881417D01*
X116028654Y-52070000D01*
X116010081Y-52258583D01*
X115972190Y-52383491D01*
X115956972Y-52433660D01*
X115955071Y-52439925D01*
X115865744Y-52607043D01*
X115745528Y-52753528D01*
X115599043Y-52873744D01*
X115431925Y-52963071D01*
X115250583Y-53018081D01*
X115109257Y-53032000D01*
X113490743Y-53032000D01*
X113349417Y-53018081D01*
X113168075Y-52963071D01*
X113000957Y-52873744D01*
X112854472Y-52753528D01*
X112734256Y-52607043D01*
X112644929Y-52439925D01*
X112643029Y-52433660D01*
X112627810Y-52383491D01*
X112589919Y-52258583D01*
X112571346Y-52070000D01*
X112589919Y-51881417D01*
X112644929Y-51700075D01*
X112734256Y-51532957D01*
X112854472Y-51386472D01*
X113000957Y-51266256D01*
X113168075Y-51176929D01*
X113349417Y-51121919D01*
X113490743Y-51108000D01*
X115109257Y-51108000D01*
X115250583Y-51121919D01*
X115250583Y-51121919D01*
G37*
G36*
X138110583Y-51121919D02*
G01*
X138291925Y-51176929D01*
X138459043Y-51266256D01*
X138605528Y-51386472D01*
X138725744Y-51532957D01*
X138815071Y-51700075D01*
X138870081Y-51881417D01*
X138888654Y-52070000D01*
X138870081Y-52258583D01*
X138832190Y-52383491D01*
X138816972Y-52433660D01*
X138815071Y-52439925D01*
X138725744Y-52607043D01*
X138605528Y-52753528D01*
X138459043Y-52873744D01*
X138291925Y-52963071D01*
X138110583Y-53018081D01*
X137969257Y-53032000D01*
X136350743Y-53032000D01*
X136209417Y-53018081D01*
X136028075Y-52963071D01*
X135860957Y-52873744D01*
X135714472Y-52753528D01*
X135594256Y-52607043D01*
X135504929Y-52439925D01*
X135503029Y-52433660D01*
X135487810Y-52383491D01*
X135449919Y-52258583D01*
X135431346Y-52070000D01*
X135449919Y-51881417D01*
X135504929Y-51700075D01*
X135594256Y-51532957D01*
X135714472Y-51386472D01*
X135860957Y-51266256D01*
X136028075Y-51176929D01*
X136209417Y-51121919D01*
X136350743Y-51108000D01*
X137969257Y-51108000D01*
X138110583Y-51121919D01*
X138110583Y-51121919D01*
G37*
G36*
X138110583Y-48581919D02*
G01*
X138291925Y-48636929D01*
X138459043Y-48726256D01*
X138605528Y-48846472D01*
X138725744Y-48992957D01*
X138815071Y-49160075D01*
X138870081Y-49341417D01*
X138888654Y-49530000D01*
X138870081Y-49718583D01*
X138815071Y-49899925D01*
X138725744Y-50067043D01*
X138605528Y-50213528D01*
X138459043Y-50333744D01*
X138291925Y-50423071D01*
X138110583Y-50478081D01*
X137969257Y-50492000D01*
X136350743Y-50492000D01*
X136209417Y-50478081D01*
X136028075Y-50423071D01*
X135860957Y-50333744D01*
X135714472Y-50213528D01*
X135594256Y-50067043D01*
X135504929Y-49899925D01*
X135449919Y-49718583D01*
X135431346Y-49530000D01*
X135449919Y-49341417D01*
X135504929Y-49160075D01*
X135594256Y-48992957D01*
X135714472Y-48846472D01*
X135860957Y-48726256D01*
X136028075Y-48636929D01*
X136209417Y-48581919D01*
X136350743Y-48568000D01*
X137969257Y-48568000D01*
X138110583Y-48581919D01*
X138110583Y-48581919D01*
G37*
G36*
X115250583Y-48581919D02*
G01*
X115431925Y-48636929D01*
X115599043Y-48726256D01*
X115745528Y-48846472D01*
X115865744Y-48992957D01*
X115955071Y-49160075D01*
X116010081Y-49341417D01*
X116028654Y-49530000D01*
X116010081Y-49718583D01*
X115955071Y-49899925D01*
X115865744Y-50067043D01*
X115745528Y-50213528D01*
X115599043Y-50333744D01*
X115431925Y-50423071D01*
X115250583Y-50478081D01*
X115109257Y-50492000D01*
X113490743Y-50492000D01*
X113349417Y-50478081D01*
X113168075Y-50423071D01*
X113000957Y-50333744D01*
X112854472Y-50213528D01*
X112734256Y-50067043D01*
X112644929Y-49899925D01*
X112589919Y-49718583D01*
X112571346Y-49530000D01*
X112589919Y-49341417D01*
X112644929Y-49160075D01*
X112734256Y-48992957D01*
X112854472Y-48846472D01*
X113000957Y-48726256D01*
X113168075Y-48636929D01*
X113349417Y-48581919D01*
X113490743Y-48568000D01*
X115109257Y-48568000D01*
X115250583Y-48581919D01*
X115250583Y-48581919D01*
G37*
G36*
X138110583Y-46041919D02*
G01*
X138291925Y-46096929D01*
X138459043Y-46186256D01*
X138605528Y-46306472D01*
X138725744Y-46452957D01*
X138815071Y-46620075D01*
X138870081Y-46801417D01*
X138888654Y-46990000D01*
X138870081Y-47178583D01*
X138815071Y-47359925D01*
X138725744Y-47527043D01*
X138605528Y-47673528D01*
X138459043Y-47793744D01*
X138291925Y-47883071D01*
X138110583Y-47938081D01*
X137969257Y-47952000D01*
X136350743Y-47952000D01*
X136209417Y-47938081D01*
X136028075Y-47883071D01*
X135860957Y-47793744D01*
X135714472Y-47673528D01*
X135594256Y-47527043D01*
X135504929Y-47359925D01*
X135449919Y-47178583D01*
X135431346Y-46990000D01*
X135449919Y-46801417D01*
X135504929Y-46620075D01*
X135594256Y-46452957D01*
X135714472Y-46306472D01*
X135860957Y-46186256D01*
X136028075Y-46096929D01*
X136209417Y-46041919D01*
X136350743Y-46028000D01*
X137969257Y-46028000D01*
X138110583Y-46041919D01*
X138110583Y-46041919D01*
G37*
G36*
X115250583Y-46041919D02*
G01*
X115431925Y-46096929D01*
X115599043Y-46186256D01*
X115745528Y-46306472D01*
X115865744Y-46452957D01*
X115955071Y-46620075D01*
X116010081Y-46801417D01*
X116028654Y-46990000D01*
X116010081Y-47178583D01*
X115955071Y-47359925D01*
X115865744Y-47527043D01*
X115745528Y-47673528D01*
X115599043Y-47793744D01*
X115431925Y-47883071D01*
X115250583Y-47938081D01*
X115109257Y-47952000D01*
X113490743Y-47952000D01*
X113349417Y-47938081D01*
X113168075Y-47883071D01*
X113000957Y-47793744D01*
X112854472Y-47673528D01*
X112734256Y-47527043D01*
X112644929Y-47359925D01*
X112589919Y-47178583D01*
X112571346Y-46990000D01*
X112589919Y-46801417D01*
X112644929Y-46620075D01*
X112734256Y-46452957D01*
X112854472Y-46306472D01*
X113000957Y-46186256D01*
X113168075Y-46096929D01*
X113349417Y-46041919D01*
X113490743Y-46028000D01*
X115109257Y-46028000D01*
X115250583Y-46041919D01*
X115250583Y-46041919D01*
G37*
G36*
X115250583Y-43501919D02*
G01*
X115431925Y-43556929D01*
X115599043Y-43646256D01*
X115745528Y-43766472D01*
X115865744Y-43912957D01*
X115955071Y-44080075D01*
X116010081Y-44261417D01*
X116028654Y-44450000D01*
X116010081Y-44638583D01*
X115955071Y-44819925D01*
X115865744Y-44987043D01*
X115745528Y-45133528D01*
X115599043Y-45253744D01*
X115431925Y-45343071D01*
X115250583Y-45398081D01*
X115109257Y-45412000D01*
X113490743Y-45412000D01*
X113349417Y-45398081D01*
X113168075Y-45343071D01*
X113000957Y-45253744D01*
X112854472Y-45133528D01*
X112734256Y-44987043D01*
X112644929Y-44819925D01*
X112589919Y-44638583D01*
X112571346Y-44450000D01*
X112589919Y-44261417D01*
X112644929Y-44080075D01*
X112734256Y-43912957D01*
X112854472Y-43766472D01*
X113000957Y-43646256D01*
X113168075Y-43556929D01*
X113349417Y-43501919D01*
X113490743Y-43488000D01*
X115109257Y-43488000D01*
X115250583Y-43501919D01*
X115250583Y-43501919D01*
G37*
G36*
X138110583Y-43501919D02*
G01*
X138291925Y-43556929D01*
X138459043Y-43646256D01*
X138605528Y-43766472D01*
X138725744Y-43912957D01*
X138815071Y-44080075D01*
X138870081Y-44261417D01*
X138888654Y-44450000D01*
X138870081Y-44638583D01*
X138815071Y-44819925D01*
X138725744Y-44987043D01*
X138605528Y-45133528D01*
X138459043Y-45253744D01*
X138291925Y-45343071D01*
X138110583Y-45398081D01*
X137969257Y-45412000D01*
X136350743Y-45412000D01*
X136209417Y-45398081D01*
X136028075Y-45343071D01*
X135860957Y-45253744D01*
X135714472Y-45133528D01*
X135594256Y-44987043D01*
X135504929Y-44819925D01*
X135449919Y-44638583D01*
X135431346Y-44450000D01*
X135449919Y-44261417D01*
X135504929Y-44080075D01*
X135594256Y-43912957D01*
X135714472Y-43766472D01*
X135860957Y-43646256D01*
X136028075Y-43556929D01*
X136209417Y-43501919D01*
X136350743Y-43488000D01*
X137969257Y-43488000D01*
X138110583Y-43501919D01*
X138110583Y-43501919D01*
G37*
G36*
X135400000Y-42900000D02*
G01*
X134000000Y-42900000D01*
X134000000Y-39700000D01*
X135400000Y-39700000D01*
X135400000Y-42900000D01*
X135400000Y-42900000D01*
G37*
M02*
