G04 #@! TF.GenerationSoftware,KiCad,Pcbnew,(5.1.0)-1*
G04 #@! TF.CreationDate,2019-05-23T22:12:47+09:00*
G04 #@! TF.ProjectId,ble5,626c6535-2e6b-4696-9361-645f70636258,v1.4*
G04 #@! TF.SameCoordinates,Original*
G04 #@! TF.FileFunction,Paste,Top*
G04 #@! TF.FilePolarity,Positive*
%FSLAX46Y46*%
G04 Gerber Fmt 4.6, Leading zero omitted, Abs format (unit mm)*
G04 Created by KiCad (PCBNEW (5.1.0)-1) date 2019-05-23 22:12:47*
%MOMM*%
%LPD*%
G04 APERTURE LIST*
%ADD10R,1.000000X1.100000*%
%ADD11R,1.100000X1.000000*%
%ADD12R,1.049020X1.079500*%
%ADD13O,3.048000X1.524000*%
%ADD14R,1.050000X0.650000*%
%ADD15O,2.400000X0.800000*%
%ADD16O,0.800000X2.400000*%
%ADD17O,1.524000X1.800000*%
G04 APERTURE END LIST*
D10*
X134700000Y-40450000D03*
X134700000Y-42150000D03*
D11*
X124850000Y-59100000D03*
X126550000Y-59100000D03*
D12*
X126573760Y-57200000D03*
X124826240Y-57200000D03*
D13*
X114300000Y-44450000D03*
X114300000Y-46990000D03*
X114300000Y-49530000D03*
X114300000Y-52070000D03*
X114300000Y-54610000D03*
X114300000Y-57150000D03*
X114300000Y-59690000D03*
X114300000Y-62230000D03*
X137160000Y-44450000D03*
X137160000Y-46990000D03*
X137160000Y-49530000D03*
X137160000Y-52070000D03*
X137160000Y-54610000D03*
X137160000Y-57150000D03*
X137160000Y-59690000D03*
X137160000Y-62230000D03*
D11*
X120900000Y-56000000D03*
X119200000Y-56000000D03*
X130350000Y-55900000D03*
X132050000Y-55900000D03*
D14*
X122100000Y-59850000D03*
X117950000Y-59850000D03*
X122100000Y-57700000D03*
X117950000Y-57700000D03*
X129050000Y-57600000D03*
X133200000Y-57600000D03*
X129050000Y-59750000D03*
X133200000Y-59750000D03*
D15*
X120200000Y-40000000D03*
X120200000Y-41200000D03*
X120200000Y-42400000D03*
X120200000Y-43600000D03*
X120200000Y-44800000D03*
X120200000Y-46000000D03*
X120200000Y-47200000D03*
X120200000Y-48400000D03*
X120200000Y-49600000D03*
X120200000Y-50800000D03*
X120200000Y-52000000D03*
X120200000Y-53200000D03*
D16*
X122250000Y-53300000D03*
X123450000Y-53300000D03*
X124650000Y-53300000D03*
X125850000Y-53300000D03*
X127050000Y-53300000D03*
X128250000Y-53300000D03*
X129450000Y-53300000D03*
D15*
X131500000Y-53200000D03*
X131500000Y-52000000D03*
X131500000Y-50800000D03*
X131500000Y-49600000D03*
X131500000Y-48400000D03*
X131500000Y-47200000D03*
X131500000Y-46000000D03*
X131500000Y-44800000D03*
X131500000Y-43600000D03*
X131500000Y-42400000D03*
X131500000Y-41200000D03*
X131500000Y-40000000D03*
D17*
X128700000Y-62500000D03*
X126700000Y-62500000D03*
X124700000Y-62500000D03*
X122700000Y-62500000D03*
M02*
