M48
; DRILL file {KiCad (5.1.0)-1} date 2019/05/23 22:12:50
; FORMAT={-:-/ absolute / metric / decimal}
; #@! TF.CreationDate,2019-05-23T22:12:50+09:00
; #@! TF.GenerationSoftware,Kicad,Pcbnew,(5.1.0)-1
FMAT,2
METRIC
T1C0.400
T2C0.762
T3C1.016
%
G90
G05
T1
X117.468Y-45.298
X117.95Y-58.67
X118.302Y-49.891
X120.694Y-57.575
X122.022Y-47.419
X122.046Y-49.916
X122.646Y-51.448
X122.8Y-46.6
X123.735Y-51.475
X124.709Y-55.779
X124.851Y-51.499
X125.8Y-47.2
X126.027Y-51.482
X127.86Y-59.502
X129.45Y-51.297
X131.4Y-57.8
X133.338Y-45.641
X133.7Y-55.5
X134.3Y-47.9
X134.3Y-53.2
T2
X122.7Y-62.5
X124.7Y-62.5
X126.7Y-62.5
X128.7Y-62.5
T3
X114.3Y-44.45
X114.3Y-46.99
X114.3Y-49.53
X114.3Y-52.07
X114.3Y-54.61
X114.3Y-57.15
X114.3Y-59.69
X114.3Y-62.23
X137.16Y-44.45
X137.16Y-46.99
X137.16Y-49.53
X137.16Y-52.07
X137.16Y-54.61
X137.16Y-57.15
X137.16Y-59.69
X137.16Y-62.23
T0
M30
