G04 #@! TF.GenerationSoftware,KiCad,Pcbnew,(5.1.0)-1*
G04 #@! TF.CreationDate,2019-05-23T22:12:48+09:00*
G04 #@! TF.ProjectId,ble5,626c6535-2e6b-4696-9361-645f70636258,v1.4*
G04 #@! TF.SameCoordinates,Original*
G04 #@! TF.FileFunction,Legend,Bot*
G04 #@! TF.FilePolarity,Positive*
%FSLAX46Y46*%
G04 Gerber Fmt 4.6, Leading zero omitted, Abs format (unit mm)*
G04 Created by KiCad (PCBNEW (5.1.0)-1) date 2019-05-23 22:12:48*
%MOMM*%
%LPD*%
G04 APERTURE LIST*
%ADD10C,0.200000*%
%ADD11C,0.150000*%
G04 APERTURE END LIST*
D10*
X129561904Y-59652380D02*
X128990476Y-59652380D01*
X129276190Y-60652380D02*
X129276190Y-59652380D01*
X128752380Y-59652380D02*
X128085714Y-60652380D01*
X128085714Y-59652380D02*
X128752380Y-60652380D01*
X126866666Y-60652380D02*
X127200000Y-60176190D01*
X127438095Y-60652380D02*
X127438095Y-59652380D01*
X127057142Y-59652380D01*
X126961904Y-59700000D01*
X126914285Y-59747619D01*
X126866666Y-59842857D01*
X126866666Y-59985714D01*
X126914285Y-60080952D01*
X126961904Y-60128571D01*
X127057142Y-60176190D01*
X127438095Y-60176190D01*
X126533333Y-59652380D02*
X125866666Y-60652380D01*
X125866666Y-59652380D02*
X126533333Y-60652380D01*
X125547619Y-59652380D02*
X124928571Y-59652380D01*
X125261904Y-60033333D01*
X125119047Y-60033333D01*
X125023809Y-60080952D01*
X124976190Y-60128571D01*
X124928571Y-60223809D01*
X124928571Y-60461904D01*
X124976190Y-60557142D01*
X125023809Y-60604761D01*
X125119047Y-60652380D01*
X125404761Y-60652380D01*
X125500000Y-60604761D01*
X125547619Y-60557142D01*
X124500000Y-60557142D02*
X124452380Y-60604761D01*
X124500000Y-60652380D01*
X124547619Y-60604761D01*
X124500000Y-60557142D01*
X124500000Y-60652380D01*
X124119047Y-59652380D02*
X123500000Y-59652380D01*
X123833333Y-60033333D01*
X123690476Y-60033333D01*
X123595238Y-60080952D01*
X123547619Y-60128571D01*
X123500000Y-60223809D01*
X123500000Y-60461904D01*
X123547619Y-60557142D01*
X123595238Y-60604761D01*
X123690476Y-60652380D01*
X123976190Y-60652380D01*
X124071428Y-60604761D01*
X124119047Y-60557142D01*
X122438095Y-59700000D02*
X122533333Y-59652380D01*
X122676190Y-59652380D01*
X122819047Y-59700000D01*
X122914285Y-59795238D01*
X122961904Y-59890476D01*
X123009523Y-60080952D01*
X123009523Y-60223809D01*
X122961904Y-60414285D01*
X122914285Y-60509523D01*
X122819047Y-60604761D01*
X122676190Y-60652380D01*
X122580952Y-60652380D01*
X122438095Y-60604761D01*
X122390476Y-60557142D01*
X122390476Y-60223809D01*
X122580952Y-60223809D01*
D11*
X130509523Y-40967857D02*
X130395238Y-41005952D01*
X130357142Y-41044047D01*
X130319047Y-41120238D01*
X130319047Y-41234523D01*
X130357142Y-41310714D01*
X130395238Y-41348809D01*
X130471428Y-41386904D01*
X130776190Y-41386904D01*
X130776190Y-40586904D01*
X130509523Y-40586904D01*
X130433333Y-40625000D01*
X130395238Y-40663095D01*
X130357142Y-40739285D01*
X130357142Y-40815476D01*
X130395238Y-40891666D01*
X130433333Y-40929761D01*
X130509523Y-40967857D01*
X130776190Y-40967857D01*
X129595238Y-41386904D02*
X129976190Y-41386904D01*
X129976190Y-40586904D01*
X129328571Y-40967857D02*
X129061904Y-40967857D01*
X128947619Y-41386904D02*
X129328571Y-41386904D01*
X129328571Y-40586904D01*
X128947619Y-40586904D01*
X128223809Y-40586904D02*
X128604761Y-40586904D01*
X128642857Y-40967857D01*
X128604761Y-40929761D01*
X128528571Y-40891666D01*
X128338095Y-40891666D01*
X128261904Y-40929761D01*
X128223809Y-40967857D01*
X128185714Y-41044047D01*
X128185714Y-41234523D01*
X128223809Y-41310714D01*
X128261904Y-41348809D01*
X128338095Y-41386904D01*
X128528571Y-41386904D01*
X128604761Y-41348809D01*
X128642857Y-41310714D01*
X126966666Y-40967857D02*
X126852380Y-41005952D01*
X126814285Y-41044047D01*
X126776190Y-41120238D01*
X126776190Y-41234523D01*
X126814285Y-41310714D01*
X126852380Y-41348809D01*
X126928571Y-41386904D01*
X127233333Y-41386904D01*
X127233333Y-40586904D01*
X126966666Y-40586904D01*
X126890476Y-40625000D01*
X126852380Y-40663095D01*
X126814285Y-40739285D01*
X126814285Y-40815476D01*
X126852380Y-40891666D01*
X126890476Y-40929761D01*
X126966666Y-40967857D01*
X127233333Y-40967857D01*
X126319047Y-41386904D02*
X126395238Y-41348809D01*
X126433333Y-41310714D01*
X126471428Y-41234523D01*
X126471428Y-41005952D01*
X126433333Y-40929761D01*
X126395238Y-40891666D01*
X126319047Y-40853571D01*
X126204761Y-40853571D01*
X126128571Y-40891666D01*
X126090476Y-40929761D01*
X126052380Y-41005952D01*
X126052380Y-41234523D01*
X126090476Y-41310714D01*
X126128571Y-41348809D01*
X126204761Y-41386904D01*
X126319047Y-41386904D01*
X125366666Y-41386904D02*
X125366666Y-40967857D01*
X125404761Y-40891666D01*
X125480952Y-40853571D01*
X125633333Y-40853571D01*
X125709523Y-40891666D01*
X125366666Y-41348809D02*
X125442857Y-41386904D01*
X125633333Y-41386904D01*
X125709523Y-41348809D01*
X125747619Y-41272619D01*
X125747619Y-41196428D01*
X125709523Y-41120238D01*
X125633333Y-41082142D01*
X125442857Y-41082142D01*
X125366666Y-41044047D01*
X124985714Y-41386904D02*
X124985714Y-40853571D01*
X124985714Y-41005952D02*
X124947619Y-40929761D01*
X124909523Y-40891666D01*
X124833333Y-40853571D01*
X124757142Y-40853571D01*
X124147619Y-41386904D02*
X124147619Y-40586904D01*
X124147619Y-41348809D02*
X124223809Y-41386904D01*
X124376190Y-41386904D01*
X124452380Y-41348809D01*
X124490476Y-41310714D01*
X124528571Y-41234523D01*
X124528571Y-41005952D01*
X124490476Y-40929761D01*
X124452380Y-40891666D01*
X124376190Y-40853571D01*
X124223809Y-40853571D01*
X124147619Y-40891666D01*
X123233333Y-40853571D02*
X123042857Y-41386904D01*
X122852380Y-40853571D01*
X122128571Y-41386904D02*
X122585714Y-41386904D01*
X122357142Y-41386904D02*
X122357142Y-40586904D01*
X122433333Y-40701190D01*
X122509523Y-40777380D01*
X122585714Y-40815476D01*
X121785714Y-41310714D02*
X121747619Y-41348809D01*
X121785714Y-41386904D01*
X121823809Y-41348809D01*
X121785714Y-41310714D01*
X121785714Y-41386904D01*
X121061904Y-40853571D02*
X121061904Y-41386904D01*
X121252380Y-40548809D02*
X121442857Y-41120238D01*
X120947619Y-41120238D01*
X129709523Y-42736904D02*
X130166666Y-42736904D01*
X129938095Y-42736904D02*
X129938095Y-41936904D01*
X130014285Y-42051190D01*
X130090476Y-42127380D01*
X130166666Y-42165476D01*
X129328571Y-42736904D02*
X129176190Y-42736904D01*
X129100000Y-42698809D01*
X129061904Y-42660714D01*
X128985714Y-42546428D01*
X128947619Y-42394047D01*
X128947619Y-42089285D01*
X128985714Y-42013095D01*
X129023809Y-41975000D01*
X129100000Y-41936904D01*
X129252380Y-41936904D01*
X129328571Y-41975000D01*
X129366666Y-42013095D01*
X129404761Y-42089285D01*
X129404761Y-42279761D01*
X129366666Y-42355952D01*
X129328571Y-42394047D01*
X129252380Y-42432142D01*
X129100000Y-42432142D01*
X129023809Y-42394047D01*
X128985714Y-42355952D01*
X128947619Y-42279761D01*
X128452380Y-41936904D02*
X128376190Y-41936904D01*
X128300000Y-41975000D01*
X128261904Y-42013095D01*
X128223809Y-42089285D01*
X128185714Y-42241666D01*
X128185714Y-42432142D01*
X128223809Y-42584523D01*
X128261904Y-42660714D01*
X128300000Y-42698809D01*
X128376190Y-42736904D01*
X128452380Y-42736904D01*
X128528571Y-42698809D01*
X128566666Y-42660714D01*
X128604761Y-42584523D01*
X128642857Y-42432142D01*
X128642857Y-42241666D01*
X128604761Y-42089285D01*
X128566666Y-42013095D01*
X128528571Y-41975000D01*
X128452380Y-41936904D01*
X127461904Y-41936904D02*
X127842857Y-41936904D01*
X127880952Y-42317857D01*
X127842857Y-42279761D01*
X127766666Y-42241666D01*
X127576190Y-42241666D01*
X127500000Y-42279761D01*
X127461904Y-42317857D01*
X127423809Y-42394047D01*
X127423809Y-42584523D01*
X127461904Y-42660714D01*
X127500000Y-42698809D01*
X127576190Y-42736904D01*
X127766666Y-42736904D01*
X127842857Y-42698809D01*
X127880952Y-42660714D01*
X126014285Y-42660714D02*
X126052380Y-42698809D01*
X126166666Y-42736904D01*
X126242857Y-42736904D01*
X126357142Y-42698809D01*
X126433333Y-42622619D01*
X126471428Y-42546428D01*
X126509523Y-42394047D01*
X126509523Y-42279761D01*
X126471428Y-42127380D01*
X126433333Y-42051190D01*
X126357142Y-41975000D01*
X126242857Y-41936904D01*
X126166666Y-41936904D01*
X126052380Y-41975000D01*
X126014285Y-42013095D01*
X125671428Y-42736904D02*
X125671428Y-42203571D01*
X125671428Y-42355952D02*
X125633333Y-42279761D01*
X125595238Y-42241666D01*
X125519047Y-42203571D01*
X125442857Y-42203571D01*
X124871428Y-42698809D02*
X124947619Y-42736904D01*
X125100000Y-42736904D01*
X125176190Y-42698809D01*
X125214285Y-42622619D01*
X125214285Y-42317857D01*
X125176190Y-42241666D01*
X125100000Y-42203571D01*
X124947619Y-42203571D01*
X124871428Y-42241666D01*
X124833333Y-42317857D01*
X124833333Y-42394047D01*
X125214285Y-42470238D01*
X124528571Y-42698809D02*
X124452380Y-42736904D01*
X124300000Y-42736904D01*
X124223809Y-42698809D01*
X124185714Y-42622619D01*
X124185714Y-42584523D01*
X124223809Y-42508333D01*
X124300000Y-42470238D01*
X124414285Y-42470238D01*
X124490476Y-42432142D01*
X124528571Y-42355952D01*
X124528571Y-42317857D01*
X124490476Y-42241666D01*
X124414285Y-42203571D01*
X124300000Y-42203571D01*
X124223809Y-42241666D01*
X123500000Y-42698809D02*
X123576190Y-42736904D01*
X123728571Y-42736904D01*
X123804761Y-42698809D01*
X123842857Y-42660714D01*
X123880952Y-42584523D01*
X123880952Y-42355952D01*
X123842857Y-42279761D01*
X123804761Y-42241666D01*
X123728571Y-42203571D01*
X123576190Y-42203571D01*
X123500000Y-42241666D01*
X122852380Y-42698809D02*
X122928571Y-42736904D01*
X123080952Y-42736904D01*
X123157142Y-42698809D01*
X123195238Y-42622619D01*
X123195238Y-42317857D01*
X123157142Y-42241666D01*
X123080952Y-42203571D01*
X122928571Y-42203571D01*
X122852380Y-42241666D01*
X122814285Y-42317857D01*
X122814285Y-42394047D01*
X123195238Y-42470238D01*
X122471428Y-42203571D02*
X122471428Y-42736904D01*
X122471428Y-42279761D02*
X122433333Y-42241666D01*
X122357142Y-42203571D01*
X122242857Y-42203571D01*
X122166666Y-42241666D01*
X122128571Y-42317857D01*
X122128571Y-42736904D01*
X121861904Y-42203571D02*
X121557142Y-42203571D01*
X121747619Y-41936904D02*
X121747619Y-42622619D01*
X121709523Y-42698809D01*
X121633333Y-42736904D01*
X121557142Y-42736904D01*
M02*
